SplineFontDB: 3.0
FontName: Fanwood-Italic
FullName: Fanwood Italic
FamilyName: Fanwood
Weight: Regular
Copyright: Copyright (c) 2010, Barry Schwartz
UComments: "10pt on 11pt body: Scan 6400, cut 1000, scale 105%; print at 11pt to match original size." 
Version: 0.1
ItalicAngle: -9
UnderlinePosition: -100
UnderlineWidth: 50
Ascent: 690
Descent: 310
LayerCount: 3
Layer: 0 0 "Back"  1
Layer: 1 0 "Fore"  0
Layer: 2 0 "backup"  0
NeedsXUIDChange: 1
XUID: [1021 658 797806517 11107023]
OS2Version: 0
OS2_WeightWidthSlopeOnly: 0
OS2_UseTypoMetrics: 1
CreationTime: 1287776574
ModificationTime: 1292657816
OS2TypoAscent: 0
OS2TypoAOffset: 1
OS2TypoDescent: 0
OS2TypoDOffset: 1
OS2TypoLinegap: 0
OS2WinAscent: 0
OS2WinAOffset: 1
OS2WinDescent: 0
OS2WinDOffset: 1
HheadAscent: 0
HheadAOffset: 1
HheadDescent: 0
HheadDOffset: 1
OS2Vendor: 'PfEd'
Lookup: 260 0 0 "accent anchors"  {"accent anchors-1"  } []
MarkAttachClasses: 1
DEI: 91125
Encoding: UnicodeBmp
UnicodeInterp: none
NameList: Adobe Glyph List
DisplaySize: -48
AntiAlias: 1
FitToEm: 1
WinInfo: 60 12 4
BeginPrivate: 11
BlueValues 31 [-25 0 372 399 401 429 661 687]
OtherBlues 11 [-295 -275]
FamilyBlues 31 [-25 0 372 399 401 429 661 687]
FamilyOtherBlues 11 [-295 -275]
BlueScale 9 0.0353571
BlueShift 1 7
BlueFuzz 1 0
StdHW 4 [27]
StemSnapH 7 [27 34]
StdVW 4 [68]
StemSnapV 26 [28 52 61 68 73 77 85 102]
EndPrivate
AnchorClass2: "caron"  "accent anchors-1" "cedilla"  "accent anchors-1" "top"  "accent anchors-1" 
BeginChars: 65785 662

StartChar: a
Encoding: 97 97 0
Width: 437
VWidth: 0
Flags: W
HStem: -11 54<69.2148 140.035 283.753 333> 347 40<188.99 288.625>
VStem: 22 69<43.4021 182.266> 251 65<2.6875 112.486> 340 57<329.906 382.072>
AnchorPoint: "top" 286 500 basechar 0
LayerCount: 3
Fore
SplineSet
249 387 m 0
 272 387 292 376 305 357 c 0
 314 344 320 329 325 329 c 0
 328 329 340 371 340 373 c 0
 343 381 362 382 376 384 c 0
 386 385 397 383 397 379 c 0
 397 365 316 107 316 63 c 0
 316 53 320 43 330 43 c 0
 345 43 391 99 394 99 c 0
 398 99 405 93 405 85 c 0
 405 81 321 -11 278 -11 c 0
 262 -11 251 -3 251 13 c 0
 251 55 308 226 308 226 c 1
 308 226 253 125 183 52 c 0
 148 16 124 -10 87 -10 c 0
 44 -10 22 21 22 59 c 0
 22 175 99 387 249 387 c 0
229 347 m 0
 161 347 91 177 91 96 c 0
 91 74 94 43 117 43 c 0
 153 43 246 153 296 235 c 0
 308 254 311 284 311 289 c 0
 311 327 259 347 229 347 c 0
EndSplineSet
EndChar

StartChar: b
Encoding: 98 98 1
Width: 451
VWidth: 0
Flags: W
HStem: -8 28<130.058 216.697> 341 47<273.96 362.48> 662 20G<196 204>
VStem: 21 87<10 96> 129 83<527.59 675.5> 355 69<207.05 335.312>
AnchorPoint: "top" 199 780 basechar 0
LayerCount: 3
Fore
SplineSet
36 644 m 0
 97 659 192 682 200 682 c 0
 208 682 212 679 212 672 c 0
 212 664 179 452 172 414 c 0
 160 345 123 163 123 163 c 1
 123 163 174 248 210 296 c 0
 254 355 281 388 346 388 c 0
 378 388 398 377 410 365 c 0
 422 353 424 339 424 323 c 0
 424 118 250 -8 166 -8 c 0
 120 -8 87 20 78 20 c 0
 75 20 66 16 58 12 c 0
 53 10 40 4 31 4 c 0
 23 4 21 8 21 12 c 0
 21 20 32 32 34 35 c 0
 40 43 40 45 42 54 c 0
 84 278 129 588 129 623 c 0
 129 627 127 630 122 630 c 0
 115 630 47 608 40 608 c 0
 33 608 31 615 31 633 c 0
 31 638 31 643 36 644 c 0
108 80 m 0
 108 50 128 20 176 20 c 0
 265 20 355 211 355 282 c 0
 355 307 346 341 313 341 c 0
 275 341 250 310 230 282 c 0
 163 189 108 112 108 80 c 0
EndSplineSet
EndChar

StartChar: c
Encoding: 99 99 2
Width: 412
VWidth: 0
Flags: W
HStem: -9 49<133.945 257.784> 364 27<206.669 289.013>
VStem: 37 65<72.5693 238.434> 301 65<260.927 358.005>
AnchorPoint: "cedilla" 150 -100 basechar 0
AnchorPoint: "top" 290 500 basechar 0
LayerCount: 3
Fore
SplineSet
301 292 m 0
 301 300 302 308 302 316 c 0
 302 339 289 364 255 364 c 0
 217 364 175 337 149 297 c 0
 119 252 102 192 102 144 c 0
 102 118 103 40 208 40 c 0
 295 40 363 118 370 118 c 0
 374 118 382 110 382 104 c 0
 382 98 273 -9 174 -9 c 0
 67 -9 37 63 37 128 c 0
 37 291 163 391 258 391 c 4
 295 391 325 381 344 360 c 0
 357 346 366 328 366 304 c 0
 366 277 349 255 323 255 c 0
 307 255 301 273 301 292 c 0
EndSplineSet
EndChar

StartChar: d
Encoding: 100 100 3
Width: 487
VWidth: 0
Flags: W
HStem: -7 52<96.2829 160.661 327.003 378.548> 357 22<205.222 283.789> 608 34<284.097 354.859> 659 20G<442.5 448>
VStem: 24 66<51.5711 182.913> 286 70<11.8384 152.743>
AnchorPoint: "top" 422 780 basechar 0
AnchorPoint: "caron" 490 550 basechar 0
LayerCount: 3
Fore
SplineSet
369 45 m 0
 399 45 458 118 462 118 c 0
 466 118 472 112 472 110 c 0
 472 105 394 -7 313 -7 c 0
 298 -7 286 6 286 28 c 0
 286 69 327 237 327 237 c 1
 327 237 289 165 238 98 c 0
 199 46 162 -4 101 -4 c 0
 85 -4 24 0 24 74 c 0
 24 159 98 379 239 379 c 0
 289 379 316 360 326 356 c 0
 338 351 340 352 343 366 c 0
 356 436 379 608 380 612 c 0
 382 619 383 629 376 629 c 0
 372 629 292 608 287 608 c 0
 283 608 282 612 284 629 c 0
 285 640 287 640 294 642 c 0
 384 661 440 679 445 679 c 0
 451 679 456 677 456 664 c 0
 456 649 356 112 356 60 c 0
 356 47 364 45 369 45 c 0
328 304 m 0
 328 321 284 357 239 357 c 0
 150 357 90 176 90 102 c 0
 90 65 102 46 136 46 c 0
 173 46 227 118 274 186 c 0
 295 218 328 266 328 304 c 0
EndSplineSet
EndChar

StartChar: e
Encoding: 101 101 4
Width: 408
VWidth: 0
Flags: W
HStem: -5 40<124.02 245.583> 170 23<111.001 195.893> 367 24<208.987 289.361>
VStem: 30 66<60.5308 191.807> 303 65<264.557 360.723>
AnchorPoint: "top" 328 500 basechar 0
LayerCount: 3
Fore
SplineSet
192 35 m 0
 286 35 355 122 362 122 c 0
 367 122 375 114 375 108 c 0
 375 104 275 -5 156 -5 c 0
 88 -5 30 28 30 105 c 0
 30 256 143 391 275 391 c 0
 317 391 368 378 368 325 c 0
 368 264 309 218 245 194 c 0
 196 176 142 170 104 170 c 0
 99 170 96 151 96 124 c 0
 96 58 136 35 192 35 c 0
121 193 m 0
 215 193 303 242 303 326 c 0
 303 351 282 367 253 367 c 0
 183 367 145 298 125 245 c 0
 119 230 111 203 111 200 c 0
 111 196 113 193 121 193 c 0
EndSplineSet
EndChar

StartChar: f
Encoding: 102 102 5
Width: 275
VWidth: 0
Flags: W
HStem: -276 53<-111.829 5.2793> 347 25<12.6328 98.9737 165.957 259.822> 641 40<264.059 354.5>
AnchorPoint: "top" 288 779 basechar 0
LayerCount: 3
Fore
SplineSet
46 -54 m 0
 69 91 99 330 99 336 c 0
 99 340 100 347 95 347 c 2
 19 347 l 2
 13 347 12 347 12 353 c 0
 12 357 13 362 14 366 c 0
 15 371 16 372 21 372 c 2
 94 372 l 2
 103 372 103 372 104 384 c 0
 106 406 117 489 146 541 c 0
 158 562 188 619 247 653 c 0
 271 667 306 681 338 681 c 0
 371 681 411 659 411 645 c 0
 411 627 377 604 357 604 c 0
 331 604 310 641 276 641 c 0
 197 641 173 429 166 378 c 0
 165 374 170 372 174 372 c 2
 256 372 l 2
 260 372 261 371 261 370 c 0
 261 366 260 359 259 356 c 0
 258 350 257 347 252 347 c 2
 172 347 l 2
 163 347 164 347 162 336 c 0
 155 289 124 59 105 -54 c 0
 102 -73 76 -185 11 -234 c 0
 -11 -250 -42 -276 -80 -276 c 0
 -113 -276 -148 -254 -148 -240 c 0
 -148 -222 -119 -199 -99 -199 c 0
 -73 -199 -52 -223 -18 -223 c 0
 28 -223 38 -104 46 -54 c 0
EndSplineSet
Layer: 2
SplineSet
46 -54 m 4
 69 91 99 330 99 336 c 4
 99 340 100 347 95 347 c 6
 19 347 l 6
 13 347 12 347 12 353 c 4
 12 357 13 362 14 366 c 4
 15 371 16 372 21 372 c 6
 94 372 l 6
 103 372 103 372 104 384 c 4
 106 406 117 489 146 541 c 4
 158 562 188 619 247 653 c 4
 271 667 306 681 338 681 c 4
 371 681 411 659 411 645 c 4
 411 627 377 604 357 604 c 4
 331 604 310 641 276 641 c 4
 197 641 173 429 166 378 c 4
 165 374 170 372 174 372 c 6
 256 372 l 6
 260 372 261 371 261 370 c 4
 261 366 260 359 259 356 c 4
 258 350 257 347 252 347 c 6
 172 347 l 6
 163 347 164 347 162 336 c 4
 155 289 126 66 105 -54 c 4
 95 -114 83 -186 14 -236 c 4
 -8 -252 -51 -276 -80 -276 c 4
 -113 -276 -148 -254 -148 -240 c 4
 -148 -222 -119 -199 -99 -199 c 4
 -73 -199 -52 -223 -18 -223 c 4
 28 -223 38 -104 46 -54 c 4
EndSplineSet
EndChar

StartChar: g
Encoding: 103 103 6
Width: 425
VWidth: 0
Flags: W
HStem: -251 29<94.4284 283.113> 376 23<195.305 269.957> 400 20G<377.5 389.5>
VStem: -7 42<-189.056 -101.223> 53 50<-4 43.3916> 59 63<152.935 310.187> 313 62<190.816 332.304> 343 61<-175.98 -91.1214> 363 48<363.203 419.711>
AnchorPoint: "top" 255 498 basechar 0
LayerCount: 3
Fore
SplineSet
164 -251 m 0xf9
 86 -251 -7 -233 -7 -157 c 0
 -7 -97 57 -60 84 -48 c 0
 92 -44 96 -42 96 -40 c 0
 96 -37 85 -35 78 -30 c 0
 64 -20 53 -11 53 3 c 0xf9
 53 11 85 65 98 70 c 2
 158 92 l 2
 163 94 170 95 157 99 c 0
 128 108 59 138 59 230 c 0
 59 324 138 399 236 399 c 0
 302 399 332 354 335 354 c 0
 339 354 357 400 363 411 c 0
 367 418 371 420 384 420 c 0
 395 420 411 416 411 409 c 0xf480
 411 382 365 325 365 320 c 0
 365 317 366 312 368 307 c 0
 373 294 375 280 375 267 c 0xf2
 375 221 353 174 322 146 c 0
 284 111 252 102 196 87 c 0
 154 75 103 59 103 40 c 0
 103 11 195 1 273 -11 c 0
 346 -23 404 -40 404 -106 c 0
 404 -212 293 -251 164 -251 c 0xf9
203 -222 m 0
 281 -222 343 -195 343 -133 c 0
 343 -86 295 -74 239 -64 c 0
 193 -56 138 -47 132 -47 c 0
 121 -47 111 -53 100 -58 c 0
 64 -76 35 -108 35 -151 c 0
 35 -212 149 -222 203 -222 c 0
313 279 m 0xf6
 313 325 282 376 235 376 c 0
 162 376 122 286 122 229 c 0
 122 138 172 115 196 115 c 0
 244 115 313 183 313 279 c 0xf6
EndSplineSet
EndChar

StartChar: h
Encoding: 104 104 7
Width: 487
VWidth: 0
Flags: W
HStem: 0 45<307.5 379.333> 346 37<285.579 370> 638 37<101.67 204.894>
VStem: 36 66<1.16183 37.7> 278 68<21.0905 119.588> 351 62<228.75 344.018>
AnchorPoint: "top" 229 780 basechar 0
LayerCount: 3
Fore
SplineSet
367 45 m 0
 393 45 458 132 462 132 c 0
 465 132 474 124 474 122 c 0
 474 117 395 0 319 0 c 0
 296 0 278 15 278 38 c 0
 278 71 351 255 351 307 c 0
 351 329 339 346 317 346 c 0
 268 346 217 267 176 199 c 0
 154 162 131 125 122 91 c 2
 102 9 l 2
 100 0 47 -2 44 -2 c 0
 38 -2 36 1 36 6 c 0
 36 17 100 270 134 619 c 0
 135 630 132 638 130 638 c 0
 113 638 47 611 43 611 c 0
 41 611 40 619 40 625 c 0
 40 633 43 639 47 641 c 0
 88 656 178 675 202 675 c 0
 208 675 208 670 208 660 c 0
 203 563 142 257 115 123 c 1
 115 123 162 233 230 315 c 0
 259 350 295 383 354 383 c 0
 386 383 413 369 413 335 c 0
 413 270 346 96 346 67 c 0
 346 56 353 45 367 45 c 0
EndSplineSet
EndChar

StartChar: i
Encoding: 105 105 8
Width: 249
VWidth: 0
Flags: W
HStem: -6 61<60.1719 140.5> 328 55<93 172.582> 501 94<122.36 192.64>
VStem: 47 71<7.6574 107.493> 115 85<507.521 588.479> 118 65<255.991 368.623>
LayerCount: 3
Fore
SplineSet
156 595 m 0xe8
 185 595 200 568 200 547 c 0
 200 521 183 501 159 501 c 0
 130 501 115 528 115 549 c 0
 115 575 130 595 156 595 c 0xe8
183 361 m 4xe4
 183 314 118 103 118 75 c 4
 118 65 118 55 131 55 c 4
 150 55 207 119 210 119 c 4
 214 119 222 110 222 107 c 4
 222 93 102 -6 71 -6 c 4
 61 -6 47 -3 47 12 c 4xf0
 47 63 118 249 118 310 c 4
 118 320 116 328 106 328 c 4
 80 328 29 269 24 269 c 4
 19 269 12 277 12 282 c 4
 12 288 126 383 163 383 c 4
 173 383 183 378 183 361 c 4xe4
EndSplineSet
EndChar

StartChar: j
Encoding: 106 106 9
Width: 267
VWidth: 0
Flags: W
HStem: -255 45<-49.451 38.0988> 328 55<123 198> 531 94<154.36 224.64>
VStem: 147 85<537.521 618.479> 148 66<201.729 368.188>
LayerCount: 3
Fore
SplineSet
-79 -221 m 0xe8
 -79 -201 -64 -185 -44 -185 c 0
 -8 -185 -3 -210 31 -210 c 0
 59 -210 69 -159 81 -102 c 0
 107 26 148 283 148 310 c 0
 148 320 146 328 136 328 c 0
 110 328 42 239 37 239 c 0
 32 239 25 245 25 250 c 0
 25 256 138 383 193 383 c 0
 203 383 214 376 214 359 c 0
 214 312 163 27 159 -3 c 0
 149 -63 132 -165 63 -217 c 0
 41 -233 6 -255 -24 -255 c 0
 -58 -255 -79 -236 -79 -221 c 0xe8
188 625 m 0
 217 625 232 598 232 577 c 0
 232 551 215 531 191 531 c 0
 162 531 147 558 147 579 c 0xf0
 147 605 162 625 188 625 c 0
EndSplineSet
EndChar

StartChar: k
Encoding: 107 107 10
Width: 451
VWidth: 0
Flags: W
HStem: -2 39<339.74 423.559> 348 33<269.518 359.5> 659 20G<202 210>
VStem: 31 65<-1.46155 107.558> 139 81<556.167 673> 175 42<172.244 188.918> 335 68<279.447 346.933> 429 27<41.4799 93.1993>
AnchorPoint: "cedilla" 228 -100 basechar 0
LayerCount: 3
Fore
SplineSet
56 641 m 0xfb
 152 664 198 679 206 679 c 0
 214 679 220 678 220 668 c 0xfb
 220 648 139 257 123 179 c 1
 123 179 159 248 195 296 c 0
 235 349 274 381 344 381 c 0
 375 381 403 371 403 344 c 0
 403 252 287 200 238 189 c 0
 232 188 217 186 217 185 c 0
 217 184 231 179 244 167 c 0
 269 143 308 101 317 90 c 0
 342 59 359 37 395 37 c 0
 420 37 429 50 429 64 c 0
 429 71 427 78 427 84 c 0
 427 91 430 96 435 96 c 0
 443 96 456 86 456 53 c 0
 456 21 384 -2 345 -2 c 0
 332 -2 319 2 302 18 c 0
 277 41 252 79 225 113 c 0
 200 145 175 172 175 175 c 0xf7
 175 180 190 195 192 197 c 0
 194 199 197 199 202 199 c 0
 210 199 220 200 230 204 c 0
 275 224 335 280 335 328 c 0
 335 341 324 348 304 348 c 0
 280 348 262 336 241 316 c 0
 209 286 178 234 141 178 c 0
 129 159 122 142 117 120 c 0
 111 95 100 46 96 22 c 0
 93 3 92 0 86 0 c 0
 84 0 47 -6 36 -6 c 0
 30 -6 31 -5 31 1 c 0
 31 17 113 358 139 623 c 0
 139 627 137 632 132 632 c 0
 125 632 64 615 57 613 c 0
 49 611 48 614 50 632 c 0
 51 637 51 640 56 641 c 0xfb
EndSplineSet
EndChar

StartChar: z
Encoding: 122 122 11
Width: 418
VWidth: 0
Flags: W
HStem: -10 21G<31.5 40.5> -2 53<117.344 349.369> 14 51<114.875 280.406> 318 34<256.307 277.125> 350 46<106.323 222.738> 369 20G<360.5 376>
VStem: 350 27<51.0333 102.683>
AnchorPoint: "top" 245 500 basechar 0
LayerCount: 3
Fore
SplineSet
322 352 m 0x12
 340 352 349 389 372 389 c 0
 380 389 387 381 387 373 c 0
 387 347 343 337 328 321 c 2
 108 77 l 2
 101 69 98 66 118 65 c 0x36
 204 61 297 51 335 51 c 0
 348 51 350 56 350 69 c 0
 350 70 349 95 349 97 c 0
 349 101 355 103 360 103 c 0
 364 103 369 102 369 98 c 0
 372 64 377 17 377 12 c 0
 377 -1 359 -2 341 -2 c 2
 334 -2 l 2x42
 281 -2 142 14 63 14 c 0
 54 14 47 -10 34 -10 c 0
 29 -10 23 -7 23 2 c 0
 23 20 44 36 54 48 c 2
 292 313 l 2
 302 325 287 318 278 318 c 0xb2
 235 318 168 350 135 350 c 0
 99 350 72 302 68 302 c 0
 63 302 55 307 55 310 c 0
 55 314 103 396 156 396 c 0x0a
 201 396 280 352 322 352 c 0x12
EndSplineSet
EndChar

StartChar: l
Encoding: 108 108 12
Width: 285
VWidth: 0
Flags: W
HStem: -10 57<67.5 134.548> 659 20G<205.5 211.5>
VStem: 46 72<10.7563 154.333> 141 77<538.487 625.169>
AnchorPoint: "cedilla" 117 -100 basechar 0
AnchorPoint: "caron" 252 550 basechar 0
AnchorPoint: "top" 206 780 basechar 0
LayerCount: 3
Fore
SplineSet
132 47 m 0
 160 47 228 131 232 131 c 0
 236 131 248 120 248 118 c 0
 248 113 143 -10 75 -10 c 0
 60 -10 46 0 46 28 c 0
 46 46 116 402 141 612 c 0
 143 625 141 631 127 627 c 0
 105 621 57 609 53 609 c 0
 49 609 48 612 50 629 c 0
 51 640 53 640 60 642 c 0
 150 662 203 679 208 679 c 0
 215 679 218 675 218 670 c 0
 218 649 118 77 118 68 c 0
 118 50 127 47 132 47 c 0
EndSplineSet
EndChar

StartChar: m
Encoding: 109 109 13
Width: 735
VWidth: 0
Flags: W
HStem: -11 21G<93 98.5> -4 53<551 629> 336 43<331.625 387.87 564.049 635.99>
VStem: 135 68<192.581 359.757> 304 64<2.13574 76.6213> 362 65<203.064 354.614> 526 75<12.2517 107.836> 604 70<252.628 353.5>
AnchorPoint: "top" 461 500 basechar 0
LayerCount: 3
Fore
SplineSet
619 49 m 0x77
 639 49 708 131 712 131 c 0
 716 131 724 122 724 119 c 0
 724 113 616 -4 561 -4 c 0
 541 -4 526 9 526 25 c 0
 526 65 604 253 604 314 c 0
 604 324 597 336 583 336 c 0
 554 336 502 271 458 203 c 0
 417 140 390 91 368 15 c 0
 366 7 361 4 354 3 c 0
 338 1 324 0 312 0 c 0
 307 0 304 2 304 7 c 0x7b
 304 30 362 181 362 296 c 0x77
 362 318 355 333 341 333 c 0
 327 333 311 317 304 308 c 0
 273 271 239 229 196 141 c 0
 178 105 161 44 155 23 c 0
 153 16 151 6 144 3 c 0
 126 -4 102 -11 95 -11 c 0xbb
 91 -11 89 -6 90 -1 c 0
 103 53 135 229 135 296 c 0
 135 306 131 313 121 313 c 0
 95 313 32 238 27 238 c 0
 24 238 15 240 15 255 c 0
 15 265 136 373 185 373 c 0
 195 373 203 371 203 354 c 0
 203 293 182 201 168 117 c 1
 234 269 312 379 393 379 c 0
 416 379 427 355 427 332 c 0
 427 249 370 81 370 81 c 1
 409 152 517 379 623 379 c 0
 668 379 674 362 674 345 c 0
 674 293 601 112 601 73 c 0
 601 65 604 49 619 49 c 0x77
EndSplineSet
EndChar

StartChar: n
Encoding: 110 110 14
Width: 517
VWidth: 0
Flags: W
HStem: -6 21G<78 83.5> 1 49<330 403.29> 344 42<344.856 418.585>
VStem: 135 73<239.52 372.414> 308 71<22.5102 126.751> 388 68<250.593 343.806>
AnchorPoint: "cedilla" 244 -100 basechar 0
AnchorPoint: "top" 372 500 basechar 0
LayerCount: 3
Fore
SplineSet
405 386 m 0xbc
 450 386 456 359 456 342 c 0
 456 290 379 98 379 70 c 0
 379 62 383 50 398 50 c 0
 428 50 484 124 488 124 c 0
 492 124 500 116 500 113 c 0
 500 107 413 1 340 1 c 0x7c
 320 1 308 18 308 42 c 0
 308 99 388 254 388 315 c 0
 388 330 380 344 366 344 c 0
 328 344 236 215 187 136 c 0
 166 102 149 45 143 24 c 0
 141 17 138 -1 128 -2 c 0
 108 -4 87 -6 80 -6 c 0
 76 -6 74 -1 75 4 c 0
 88 58 135 249 135 316 c 0
 135 326 132 334 122 334 c 0
 98 334 34 270 29 270 c 0
 26 270 15 277 15 287 c 0
 15 289 127 386 187 386 c 0
 196 386 208 381 208 365 c 0
 208 304 176 202 154 118 c 1
 244 277 326 386 405 386 c 0xbc
EndSplineSet
EndChar

StartChar: o
Encoding: 111 111 15
Width: 440
VWidth: 0
Flags: W
HStem: -8 24<137.067 220.74> 374 23<216.101 299.766>
VStem: 35 62<55.4044 238.969> 341 63<170.758 327.843>
AnchorPoint: "top" 310 500 basechar 0
LayerCount: 3
Fore
SplineSet
255 374 m 0
 175 374 97 234 97 146 c 0
 97 104 99 16 177 16 c 0
 275 16 341 188 341 278 c 0
 341 312 328 374 255 374 c 0
175 -8 m 0
 81 -8 35 62 35 138 c 0
 35 284 133 397 266 397 c 0
 372 397 404 300 404 238 c 0
 404 115 301 -8 175 -8 c 0
EndSplineSet
EndChar

StartChar: p
Encoding: 112 112 16
Width: 509
VWidth: 0
Flags: W
HStem: -280 39<147.606 235.952> -266 32<25.1602 80.9986> -7 26<198.219 293.213> 342 40<334.91 402.044>
VStem: 160 71<192.734 376.25> 412 62<181.514 335.343>
AnchorPoint: "top" 420 500 basechar 0
LayerCount: 3
Fore
SplineSet
412 278 m 0x3c
 412 311 403 342 368 342 c 0
 315 342 274 242 249 195 c 0
 217 134 194 80 194 51 c 0
 194 24 229 19 258 19 c 0
 327 19 412 173 412 278 c 0x3c
236 -259 m 4
 236 -279 229 -280 216 -280 c 4xbc
 208 -280 128 -266 42 -266 c 4
 31 -266 25 -265 25 -256 c 4
 25 -238 28 -234 44 -234 c 6
 60 -234 l 6x7c
 76 -234 79 -231 82 -213 c 4
 140 120 160 238 160 304 c 4
 160 314 158 322 148 322 c 0
 114 322 44 210 39 210 c 0
 34 210 23 220 23 225 c 1
 23 225 122 395 214 395 c 0
 226 395 231 388 231 364 c 0
 231 317 199 131 199 131 c 1
 226 198 246 244 299 325 c 0
 321 359 356 382 398 382 c 0
 462 382 474 342 474 291 c 0
 474 140 348 -7 249 -7 c 0
 230 -7 202 0 193 0 c 0
 187 0 181 0 180 -8 c 6
 148 -217 l 6
 146 -227 148 -240 157 -241 c 4xbc
 220 -248 236 -244 236 -259 c 4
EndSplineSet
EndChar

StartChar: q
Encoding: 113 113 17
Width: 487
VWidth: 0
Flags: W
HStem: -288 33<183.408 233.556> -281 34<306.004 383.943> -7 47<99.2057 168.324> 361 20<239.552 313.853>
VStem: 25 64<49.0928 172.225> 342 88<315.03 368.5>
LayerCount: 3
Fore
SplineSet
306 -236 m 0xbc
 306 -245 312 -247 320 -247 c 2
 341 -247 l 2
 351 -247 360 -247 372 -248 c 0
 383 -249 384 -256 384 -265 c 0
 384 -278 387 -284 370 -284 c 0
 365 -284 326 -281 283 -281 c 0x7c
 252 -281 201 -288 196 -288 c 0
 189 -288 182 -288 183 -276 c 0
 184 -258 188 -258 204 -255 c 0
 229 -251 231 -253 236 -229 c 0
 258 -125 261 -136 329 237 c 1
 329 237 298 168 247 98 c 0
 209 45 161 -7 109 -7 c 0
 93 -7 25 0 25 74 c 0
 25 166 118 381 274 381 c 0
 310 381 342 369 360 361 c 0
 369 357 371 355 374 355 c 0
 377 355 380 356 390 362 c 0
 395 364 408 373 420 375 c 0
 425 376 430 372 430 365 c 0
 430 359 417 334 403 304 c 0
 400 297 397 287 396 279 c 0
 360 73 306 -223 306 -236 c 0xbc
342 318 m 0
 342 330 319 361 274 361 c 0
 185 361 89 173 89 99 c 0
 89 62 112 40 136 40 c 0
 172 40 231 118 278 186 c 0
 299 218 342 288 342 318 c 0
EndSplineSet
EndChar

StartChar: r
Encoding: 114 114 18
Width: 320
VWidth: 0
Flags: W
HStem: -4 21G<53 61.5> 338 55<217.714 298.608>
VStem: 95 59<180.74 373.86>
AnchorPoint: "cedilla" 74 -100 basechar 0
AnchorPoint: "top" 201 500 basechar 0
LayerCount: 3
Fore
SplineSet
82 331 m 0
 56 331 20 280 15 280 c 0
 10 280 6 286 6 291 c 0
 6 302 93 386 136 386 c 0
 152 386 154 376 154 366 c 0
 154 346 136 243 127 190 c 1
 131 189 l 1
 146 228 167 291 193 338 c 0
 208 366 233 393 265 393 c 0
 287 393 312 380 312 357 c 0
 312 340 306 320 290 320 c 0
 268 320 256 338 235 338 c 0
 225 338 217 332 210 321 c 0
 192 293 171 243 153 196 c 0
 147 180 145 169 142 158 c 0
 127 96 121 61 109 7 c 0
 108 1 66 -4 57 -4 c 0
 49 -4 47 -3 47 -0 c 0
 47 8 95 236 95 293 c 0
 95 306 95 331 82 331 c 0
EndSplineSet
EndChar

StartChar: s
Encoding: 115 115 19
Width: 323
VWidth: 0
Flags: W
HStem: -5 26<114.447 185.917> 380 19<163.688 222.244>
VStem: 72 61<261.518 345.504> 216 62<47.4232 135.23>
AnchorPoint: "cedilla" 125 -100 basechar 0
AnchorPoint: "top" 219 500 basechar 0
LayerCount: 3
Fore
SplineSet
300 335 m 0
 300 324 292 318 282 318 c 0
 258 318 244 335 234 353 c 0
 226 367 219 380 202 380 c 0
 172 380 133 366 133 317 c 0
 133 222 278 216 278 107 c 0
 278 48 219 -5 147 -5 c 0
 86 -5 19 30 19 61 c 0
 19 77 35 86 43 86 c 0
 65 86 73 75 86 62 c 0
 110 38 120 21 145 21 c 0
 184 21 216 49 216 94 c 0
 216 156 72 200 72 283 c 0
 72 346 132 399 203 399 c 0
 291 399 300 346 300 335 c 0
EndSplineSet
EndChar

StartChar: t
Encoding: 116 116 20
Width: 269
VWidth: 0
Flags: W
HStem: -2 66<67 148> 342 30<25.6563 96.9252 167.225 256.497>
VStem: 122 67<393.477 497.928>
AnchorPoint: "top" 157 540 basechar 0
AnchorPoint: "caron" 246 550 basechar 0
AnchorPoint: "cedilla" 75 -100 basechar 0
LayerCount: 3
Fore
SplineSet
171 342 m 2
 159 342 160 342 158 332 c 0
 142 246 117 94 117 85 c 0
 117 77 117 64 136 64 c 0
 160 64 241 154 245 154 c 0
 248 154 259 145 259 143 c 0
 259 138 139 -2 79 -2 c 0
 55 -2 44 9 44 32 c 0
 44 49 97 324 97 331 c 0
 97 340 100 342 88 342 c 2
 41 342 l 2
 37 342 25 342 25 346 c 0
 25 349 26 361 26 365 c 0
 26 367 28 372 34 372 c 2
 95 372 l 2
 101 372 104 372 106 380 c 0
 110 402 119 458 122 481 c 0
 124 493 125 496 140 498 c 0
 145 499 152 499 161 499 c 0
 175 499 189 498 189 494 c 0
 189 491 168 400 165 382 c 0
 164 373 164 372 175 372 c 2
 248 372 l 2
 256 372 257 369 257 364 c 0
 257 351 253 342 244 342 c 2
 171 342 l 2
EndSplineSet
Layer: 2
SplineSet
171 342 m 6
 159 342 160 342 158 332 c 4
 142 246 116 89 116 80 c 4
 116 72 117 59 136 59 c 4
 160 59 241 149 245 149 c 4
 248 149 259 140 259 138 c 4
 259 133 138 -5 78 -5 c 4
 54 -5 43 4 43 27 c 4
 43 44 97 324 97 331 c 4
 97 340 100 342 88 342 c 6
 41 342 l 6
 37 342 25 342 25 346 c 4
 25 349 26 361 26 365 c 4
 26 367 28 372 34 372 c 6
 95 372 l 6
 101 372 104 372 106 380 c 4
 110 402 119 456 122 479 c 4
 124 491 125 494 140 496 c 4
 145 497 152 497 161 497 c 4
 175 497 189 496 189 492 c 4
 189 489 168 400 165 382 c 4
 164 373 164 372 175 372 c 6
 248 372 l 6
 256 372 257 369 257 364 c 4
 257 351 253 342 244 342 c 6
 171 342 l 6
EndSplineSet
EndChar

StartChar: u
Encoding: 117 117 21
Width: 517
VWidth: 0
Flags: W
HStem: -0 54<138.509 199.948> 344 47<107.01 180.5>
VStem: 331 63<14.2581 143.43> 387 62<305.126 392.557>
AnchorPoint: "top" 300 500 basechar 0
LayerCount: 3
Fore
SplineSet
505 147 m 0xe0
 505 140 424 0 364 -0 c 0
 346 0 331 11 331 27 c 0xe0
 331 68 372 214 380 280 c 1
 379 277 346 206 311 153 c 0
 263 80 196 -5 138 -5 c 0
 119 -5 83 -1 83 37 c 0
 83 68 144 248 144 315 c 0
 144 326 143 344 124 344 c 0
 98 344 33 246 28 246 c 0
 23 246 14 251 14 256 c 0
 14 260 57 319 96 360 c 0
 113 377 138 391 167 391 c 0
 194 391 222 380 222 355 c 0
 222 325 158 124 158 77 c 0
 158 66 164 54 186 54 c 0
 213 54 241 85 274 132 c 0
 315 191 356 268 375 331 c 0
 378 342 384 369 387 386 c 0
 388 392 398 391 440 396 c 0
 444 396 449 395 449 387 c 0xd0
 449 375 394 110 394 89 c 0
 394 79 396 64 413 64 c 0
 438 64 493 154 497 154 c 0
 501 154 505 150 505 147 c 0xe0
EndSplineSet
EndChar

StartChar: v
Encoding: 118 118 22
Width: 443
VWidth: 0
Flags: W
HStem: -5 69<187.469 227.666> 350 42<82.7412 136.213> 371 30<300.262 391>
VStem: 122 60<70.4242 283.401> 142 65<136.474 344.39> 372 48<268.985 370.46>
LayerCount: 3
Fore
SplineSet
207 337 m 0xcc
 207 268 182 138 182 100 c 0
 182 82 211 64 216 64 c 0
 221 64 231 65 239 75 c 0
 246 83 258 100 270 116 c 0
 313 174 372 253 372 331 c 0
 372 363 362 371 347 371 c 0
 323 371 291 362 288 362 c 0
 287 362 282 367 282 378 c 0
 282 384 352 401 380 401 c 0
 402 401 420 396 420 361 c 0
 420 260 328 149 249 48 c 0
 242 39 232 24 226 14 c 0
 218 1 213 -5 202 -5 c 0
 190 -5 171 8 161 16 c 0
 133 38 122 50 122 97 c 0xb4
 122 137 142 256 142 319 c 0
 142 329 141 336 132 342 c 0
 125 346 112 350 108 350 c 0
 74 350 33 286 29 286 c 0
 22 286 12 295 12 299 c 0
 12 310 90 392 126 392 c 0
 137 392 158 388 168 382 c 0
 198 365 207 359 207 337 c 0xcc
EndSplineSet
EndChar

StartChar: w
Encoding: 119 119 23
Width: 685
VWidth: 0
Flags: W
HStem: -1 55<201.835 237.782 419.719 459.228> 344 42<94.2313 145.901> 362 32<543.485 637>
VStem: 136 59<59.8191 267.346> 158 62<118.869 333.044> 355 59<58.7199 197.94> 382 62<200.434 336.577> 615 51<268.7 361.6>
AnchorPoint: "top" 367 500 basechar 0
LayerCount: 3
Fore
SplineSet
220 322 m 0xc9
 220 254 195 102 195 95 c 0
 195 77 218 54 229 54 c 0
 233 54 242 59 251 72 c 0
 276 107 329 187 348 211 c 0
 366 234 382 286 382 303 c 0
 382 316 370 327 362 335 c 0
 346 351 335 355 335 359 c 0
 335 371 360 395 373 395 c 0
 395 395 444 352 444 334 c 0xd3
 444 302 414 133 414 95 c 0
 414 72 438 52 452 52 c 0
 461 52 470 63 482 77 c 0
 514 114 546 153 570 188 c 0
 599 231 614 271 615 329 c 0
 615 354 605 362 594 362 c 0
 570 362 518 350 515 350 c 0
 514 350 509 356 509 367 c 0
 509 373 616 394 626 394 c 0
 648 394 666 390 666 355 c 0
 666 275 586 150 501 64 c 0
 483 47 473 35 453 14 c 0
 445 6 444 4 437 4 c 0
 390 4 355 41 355 81 c 0
 355 100 376 193 384 234 c 1
 352 184 296 98 259 51 c 0
 252 42 240 23 233 14 c 0
 224 2 222 -1 212 -1 c 0
 200 -1 181 13 171 21 c 0
 143 43 136 52 136 86 c 0xb5
 136 126 158 201 158 298 c 0
 158 315 131 344 114 344 c 0
 80 344 38 287 34 287 c 0
 27 287 20 298 20 302 c 0
 20 313 108 386 144 386 c 0
 155 386 179 374 189 368 c 0
 219 348 220 336 220 322 c 0xc9
EndSplineSet
EndChar

StartChar: x
Encoding: 120 120 24
Width: 468
VWidth: 0
Flags: W
HStem: -3 55<299.5 372.464> -3 46<35 95.7655> 348 40<85.5123 145.554> 357 39<364.095 411.749>
VStem: 10 38<14 96.7367> 412 24<300.589 366.618>
LayerCount: 3
Fore
SplineSet
438 110 m 0x9c
 438 91 376 -3 326 -3 c 0x9c
 273 -3 256 71 226 157 c 0
 222 168 221 162 215 155 c 0
 175 109 108 -3 44 -3 c 0
 26 -3 10 5 10 23 c 0
 10 46 22 83 36 114 c 0
 38 117 40 119 44 119 c 0
 46 119 58 116 58 111 c 0
 58 107 48 86 48 65 c 0
 48 50 58 43 69 43 c 0
 102 43 183 145 208 179 c 0
 214 188 214 188 210 200 c 0
 185 270 152 348 110 348 c 0
 78 348 43 291 35 291 c 0
 30 291 24 299 24 304 c 0
 24 309 78 388 143 388 c 0x6c
 209 388 222 338 256 248 c 0
 261 235 263 240 269 250 c 0
 303 303 352 396 411 396 c 0
 427 396 436 377 436 356 c 0
 436 336 430 314 428 300 c 0
 427 295 411 297 411 300 c 0
 411 311 412 322 412 332 c 0
 412 350 405 357 395 357 c 0
 366 357 306 272 274 224 c 0
 269 217 269 214 272 204 c 0
 287 160 326 52 360 52 c 0
 388 52 418 118 421 118 c 0
 425 118 438 114 438 110 c 0x9c
EndSplineSet
EndChar

StartChar: y
Encoding: 121 121 25
Width: 455
VWidth: 0
Flags: W
HStem: -289 80<31.9963 86.0757> 337 45<106.246 208.5> 374 20G<398 407.5>
VStem: 204 57<43 237.499> 390 47<291.319 391.39>
AnchorPoint: "top" 251 500 basechar 0
LayerCount: 3
Fore
SplineSet
204 17 m 0xb8
 204 130 196 337 135 337 c 0
 95 337 59 276 54 276 c 0
 52 276 40 279 40 286 c 0
 40 290 98 382 165 382 c 0xd8
 252 382 252 241 261 43 c 1
 295 109 348 195 373 276 c 0
 385 314 387 342 390 377 c 0
 391 389 395 394 401 394 c 0
 414 394 437 385 437 369 c 0
 437 365 436 358 435 352 c 0
 421 258 264 3 258 -8 c 0
 236 -49 187 -146 147 -217 c 0
 138 -233 126 -243 108 -254 c 0
 83 -269 53 -289 34 -289 c 0
 23 -289 17 -273 17 -262 c 0
 17 -223 59 -220 91 -209 c 0
 111 -202 134 -180 145 -160 c 0
 199 -60 204 -23 204 17 c 0xb8
EndSplineSet
EndChar

StartChar: A
Encoding: 65 65 26
Width: 698
VWidth: 0
Flags: W
HStem: -3 30<30.0144 89.5155 150.001 229.991 452.014 529 619.815 677.991> 281 24<294.004 491.859> 667 20G<492.5 501.5>
AnchorPoint: "top" 511 780 basechar 0
LayerCount: 3
Fore
SplineSet
625 27 m 2
 667 27 l 2
 678 27 678 26 678 14 c 0
 678 -1 677 -3 667 -3 c 0
 652 -3 607 0 577 0 c 0
 547 0 489 -3 466 -3 c 0
 453 -3 452 -2 452 15 c 0
 452 27 454 27 470 27 c 2
 527 27 l 2
 529 27 529 31 529 38 c 0
 529 79 504 229 501 262 c 0
 499 281 498 281 483 281 c 2
 294 281 l 2
 281 281 278 279 271 266 c 0
 246 219 150 42 150 28 c 0
 150 27 151 27 151 27 c 1
 219 27 l 2
 230 27 230 26 230 14 c 0
 230 -1 229 -3 219 -3 c 0
 196 -3 147 0 117 0 c 0
 87 0 67 -3 44 -3 c 0
 31 -3 30 -2 30 15 c 0
 30 27 32 27 48 27 c 2
 81 27 l 2
 89 27 348 489 430 610 c 0
 443 629 464 640 481 673 c 0
 485 681 489 687 496 687 c 0
 507 687 507 678 509 668 c 0
 528 551 613 27 625 27 c 2
312 305 m 2
 479 305 l 2
 489 305 492 307 492 310 c 0
 492 326 449 579 447 579 c 0
 445 579 440 571 434 560 c 2
 301 326 l 2
 297 319 294 314 294 311 c 0
 294 306 300 305 312 305 c 2
EndSplineSet
EndChar

StartChar: B
Encoding: 66 66 27
Width: 587
VWidth: 0
Flags: W
HStem: -2 29<51.0144 126.581 214.712 369.806> 326 22<209.001 371.992> 634 28<40.0233 120.779> 644 21<212.793 323.755>
VStem: 127 82<67.5282 326 348 632.939> 434 84<435.163 568.051> 459 88<92.0133 252.938>
AnchorPoint: "top" 291 780 basechar 0
LayerCount: 3
Fore
SplineSet
282 348 m 2xdc
 299 348 309 347 315 347 c 0
 321 347 329 348 335 350 c 0
 381 364 434 404 434 488 c 0
 434 587 359 644 257 644 c 0
 241 644 228 644 214 640 c 0
 210 639 209 486 209 406 c 2
 209 358 l 2
 209 350 211 348 225 348 c 2
 282 348 l 2xdc
279 27 m 2
 424 27 459 101 459 176 c 0xca
 459 247 436 295 372 316 c 0
 344 325 298 326 254 326 c 2
 220 326 l 2
 210 326 209 321 209 315 c 0
 209 253 209 27 218 27 c 2
 279 27 l 2
171 0 m 0
 141 0 74 -3 65 -3 c 0
 52 -3 51 -2 51 15 c 0
 51 27 53 27 69 27 c 2
 122 27 l 2
 127 27 127 43 127 69 c 2
 127 392 l 2
 127 515 124 634 117 634 c 2
 60 632 l 2
 48 632 40 634 40 649 c 0
 40 664 47 664 60 664 c 0
 76 664 143 662 173 662 c 0xea
 212 662 255 665 296 665 c 0
 416 665 518 625 518 504 c 0xdc
 518 407 412 364 368 348 c 0
 358 344 351 342 351 341 c 0
 351 335 547 339 547 169 c 0
 547 15 379 -2 267 -2 c 0
 221 -2 184 0 171 0 c 0
EndSplineSet
EndChar

StartChar: C
Encoding: 67 67 28
Width: 731
VWidth: 0
Flags: W
HStem: -16 39<328.22 517.596> 429 21G<632 647.5> 650 30<319.07 481.625>
VStem: 45 102<213.191 459.954> 626 35<429.075 555.5 611 650.986>
AnchorPoint: "cedilla" 396 -100 basechar 0
AnchorPoint: "top" 395 780 basechar 0
LayerCount: 3
Fore
SplineSet
45 335 m 0
 45 544 200 680 402 680 c 0
 520 680 589 622 609 608 c 0
 618 601 626 594 626 611 c 2
 626 638 l 2
 626 649 626 651 641 651 c 0
 656 651 661 650 661 638 c 0
 661 620 657 496 657 445 c 0
 657 433 654 429 641 429 c 0
 623 429 622 432 622 441 c 0
 622 445 626 522 626 531 c 0
 626 545 528 650 395 650 c 0
 250 650 147 514 147 333 c 0
 147 164 270 23 424 23 c 0
 537 23 618 80 619 91 c 2
 632 204 l 2
 634 218 638 220 654 218 c 0
 664 217 666 212 666 205 c 0
 666 195 662 162 650 72 c 0
 648 54 523 -16 396 -16 c 0
 212 -16 45 94 45 335 c 0
EndSplineSet
EndChar

StartChar: D
Encoding: 68 68 29
Width: 758
VWidth: 0
Flags: HWO
HStem: -4 29<35.0029 98.5771 193.301 376.52> 635 28<96.0117 181.976 269 443.605>
VStem: 630 88<237.449 468.299>
AnchorPoint: "top" 372 780 basechar 0
LayerCount: 3
Fore
SplineSet
360 663 m 0
 567 663 718 570 718 335 c 0
 718 113 550 -2 368 -4 c 0
 303 -4 208 0 143 0 c 0
 115 0 57 -4 46 -4 c 0
 35 -4 35 -2 35 10 c 0
 35 25 39 25 52 25 c 2
 95 25 l 2
 102 25 174 542 183 625 c 0
 184 632 180 636 179 636 c 2
 109 634 l 2
 100 634 96 634 96 646 c 0
 96 658 96 662 109 662 c 0
 113 662 194 661 228 661 c 0
 288 661 326 663 360 663 c 0
193 29 m 0
 199 25 232 25 252 25 c 0
 593 25 630 268 630 365 c 0
 630 522 538 635 332 635 c 0
 312 635 283 635 269 631 c 1
 269 630 187 92 187 46 c 0
 187 36 190 31 193 29 c 0
EndSplineSet
EndChar

StartChar: E
Encoding: 69 69 30
Width: 605
VWidth: 0
Flags: W
AnchorPoint: "top" 316 780 basechar 0
LayerCount: 3
Fore
SplineSet
200 30 m 0x7820
 226 30 519 37 519 37 c 2xb820
 527 37 544 103 557 134 c 0
 559 139 563 143 571 143 c 0
 579 143 588 138 588 132 c 0
 588 121 567 71 546 8 c 0xb840
 543 -1 539 -3 529 -3 c 0
 506 -3 196 0 166 0 c 0x7840
 136 0 86 -3 63 -3 c 0xb840
 50 -3 49 -2 49 15 c 0
 49 27 51 27 67 27 c 2
 110 27 l 1
 110 27 193 546 193 626 c 0
 193 633 191 636 190 636 c 2
 135 636 l 2
 123 636 116 636 116 651 c 0
 116 663 120 665 128 665 c 0
 135 665 207 662 242 662 c 4
 295 662 408 665 451 665 c 0
 518 665 544 666 546 678 c 0
 547 688 551 690 559 690 c 0
 573 690 576 689 576 679 c 0
 576 660 569 634 567 554 c 0x7980
 567 546 565 544 551 544 c 0
 539 544 536 548 536 558 c 0
 536 563 542 625 542 631 c 0
 542 635 390 638 279 638 c 0
 274 638 243 405 238 368 c 0
 236 352 236 352 252 352 c 2
 416 352 l 2
 435 352 461 352 463 365 c 2
 474 418 l 2
 475 424 482 425 490 425 c 0
 497 425 503 424 503 419 c 0x7a
 503 410 493 370 486 332 c 0
 480 300 473 256 471 243 c 0x7c
 470 238 465 236 458 236 c 0
 450 236 441 238 441 244 c 0
 444 262 453 307 453 311 c 0x7a20
 453 321 445 325 403 325 c 2
 252 325 l 2
 237 325 234 325 232 315 c 0
 229 299 198 83 193 39 c 0
 193 32 195 30 200 30 c 0x7820
EndSplineSet
EndChar

StartChar: F
Encoding: 70 70 31
Width: 550
VWidth: 0
Flags: W
HStem: 0 27<49.0062 112.052 194.229 276.999> 325 27<238.543 444.976> 395 20G<475 482.5> 636 29<116.005 192.999 274.95 473.725>
VStem: 193 45<439.298 522.754> 445 47<296.627 411.048> 463 29<370.375 414.98> 510 31<544.003 631.928> 520 30<666.285 689.986>
AnchorPoint: "top" 368 780 basechar 0
LayerCount: 3
Fore
SplineSet
201 27 m 2xfc
 266 27 l 2
 277 27 277 26 277 14 c 0
 277 -1 276 -3 266 -3 c 0
 243 -3 196 0 166 0 c 0
 136 0 86 -3 63 -3 c 0
 50 -3 49 -2 49 15 c 0
 49 27 51 27 67 27 c 2
 110 27 l 1
 110 27 193 546 193 626 c 0
 193 633 191 636 190 636 c 2
 135 636 l 2
 123 636 116 636 116 651 c 0
 116 663 120 665 128 665 c 0
 135 665 207 662 242 662 c 0
 295 662 408 665 451 665 c 0
 518 665 518 666 520 678 c 0
 521 688 525 690 533 690 c 0
 547 690 550 689 550 679 c 0xfc80
 550 660 543 634 541 554 c 0
 541 546 539 544 525 544 c 0
 513 544 510 548 510 558 c 0
 510 563 516 625 516 631 c 0
 516 635 390 638 279 638 c 0
 274 638 243 405 238 368 c 0
 236 352 236 352 252 352 c 2
 408 352 l 2
 427 352 453 352 455 365 c 2
 463 408 l 2xfb
 464 414 471 415 479 415 c 0
 486 415 492 414 492 409 c 0
 492 400 485 370 478 332 c 0
 472 300 468 266 466 253 c 0
 465 248 460 246 453 246 c 0
 445 246 436 248 436 254 c 0
 439 272 445 307 445 311 c 0
 445 321 437 325 395 325 c 2
 252 325 l 2
 237 325 234 325 232 315 c 0
 229 299 198 80 193 36 c 0
 192 30 195 27 201 27 c 2xfc
EndSplineSet
EndChar

StartChar: G
Encoding: 71 71 32
Width: 764
VWidth: 0
Flags: W
HStem: -18 30<344.901 508.22> 220 30<485.1 587.551 673.782 723.993> 650 27<333.483 489.264>
VStem: 45 102<211.125 458.004> 590 81<52.928 220> 626 34<449.048 563.938 620.97 658.986>
AnchorPoint: "cedilla" 416 -100 basechar 0
AnchorPoint: "top" 404 780 basechar 0
LayerCount: 3
Fore
SplineSet
671 73 m 0xf8
 671 55 532 -18 396 -18 c 0
 212 -18 45 88 45 335 c 0
 45 556 206 677 408 677 c 0
 519 677 589 632 609 618 c 0
 618 611 626 604 626 621 c 2
 626 646 l 2
 626 657 626 659 641 659 c 0
 656 659 660 658 660 646 c 0
 660 632 657 516 657 465 c 0
 657 453 654 449 641 449 c 0
 623 449 622 452 622 461 c 0
 622 465 626 532 626 541 c 0xf4
 626 555 540 650 404 650 c 0
 259 650 147 514 147 333 c 0
 147 164 262 12 424 12 c 0
 537 12 586 57 587 68 c 0
 589 85 590 127 590 162 c 0xf8
 590 193 588 220 580 220 c 2
 493 220 l 2
 487 220 485 225 485 232 c 0
 485 241 487 250 494 250 c 0
 543 249 594 247 626 247 c 0xf4
 658 247 669 249 716 250 c 0
 723 250 724 244 724 236 c 0
 724 228 723 220 716 220 c 2
 685 220 l 2
 672 220 672 197 672 162 c 0
 672 137 671 106 671 73 c 0xf8
EndSplineSet
EndChar

StartChar: H
Encoding: 72 72 33
Width: 791
VWidth: 0
Flags: W
AnchorPoint: "top" 452 780 basechar 0
LayerCount: 3
Fore
SplineSet
179 639 m 2
 118 639 l 2
 111 639 106 640 106 654 c 0
 106 669 112 669 125 669 c 0
 141 669 201 666 231 666 c 0
 261 666 309 669 332 669 c 0
 345 669 346 668 346 651 c 0
 346 639 344 639 328 639 c 2
 278 639 l 2
 272 639 251 509 231 369 c 0
 229 354 228 350 243 350 c 2
 575 350 l 2
 588 350 593 350 595 362 c 0
 611 486 625 601 625 623 c 0
 625 636 623 639 616 639 c 2
 555 639 l 2
 548 639 543 640 543 654 c 0
 543 669 549 669 562 669 c 0
 578 669 639 666 669 666 c 0
 699 666 746 669 769 669 c 0
 782 669 783 668 783 651 c 0
 783 639 781 639 765 639 c 2
 715 639 l 2
 700 639 631 52 631 40 c 0
 631 32 633 27 639 27 c 2
 696 27 l 2
 707 27 707 26 707 14 c 0
 707 -1 706 -3 696 -3 c 0
 673 -3 612 0 582 0 c 0
 552 0 510 -3 487 -3 c 0
 474 -3 473 -2 473 15 c 0
 473 27 475 27 491 27 c 2
 544 27 l 2
 548 27 568 168 588 314 c 0
 589 325 588 326 573 326 c 2
 239 326 l 2
 227 326 224 324 222 310 c 0
 205 185 190 66 190 40 c 0
 190 32 192 27 198 27 c 2
 257 27 l 2
 268 27 268 26 268 14 c 0
 268 -1 267 -3 257 -3 c 0
 234 -3 174 0 144 0 c 0
 114 0 65 -3 42 -3 c 0
 29 -3 28 0 28 13 c 0
 28 25 30 27 46 27 c 2
 99 27 l 2
 109 27 188 585 188 623 c 0
 188 633 186 639 179 639 c 2
EndSplineSet
EndChar

StartChar: I
Encoding: 73 73 34
Width: 353
VWidth: 0
Flags: W
AnchorPoint: "top" 223 780 basechar 0
LayerCount: 3
Fore
SplineSet
163 639 m 6
 97 639 l 6
 90 639 85 640 85 654 c 4
 85 669 91 669 104 669 c 4
 120 669 189 666 219 666 c 4
 249 666 305 669 328 669 c 4
 341 669 342 668 342 651 c 4
 342 639 340 639 324 639 c 6
 267 639 l 6
 255 639 179 100 179 40 c 4
 179 32 181 27 187 27 c 6
 253 27 l 6
 264 27 264 26 264 14 c 4
 264 -1 263 -3 253 -3 c 4
 230 -3 162 0 132 0 c 4
 102 0 42 -3 19 -3 c 4
 6 -3 5 -2 5 15 c 4
 5 27 7 27 23 27 c 6
 83 27 l 6
 90 27 172 572 172 623 c 4
 172 633 170 639 163 639 c 6
EndSplineSet
EndChar

StartChar: J
Encoding: 74 74 35
Width: 333
VWidth: 0
Flags: W
AnchorPoint: "top" 167 780 basechar 0
LayerCount: 3
Fore
SplineSet
54 -5 m 0
 79 239 132 604 132 621 c 0
 132 631 132 639 122 639 c 2
 54 639 l 2
 42 639 34 639 34 654 c 0
 34 669 41 669 54 669 c 0
 70 669 147 666 177 666 c 0
 207 666 253 669 276 669 c 0
 289 669 290 668 290 651 c 0
 290 639 288 639 272 639 c 2
 222 639 l 2
 210 639 159 210 148 130 c 0
 137 45 127 -65 49 -148 c 0
 20 -179 -14 -212 -60 -212 c 0
 -83 -212 -113 -202 -113 -188 c 0
 -113 -153 -53 -124 -46 -124 c 0
 -30 -124 -15 -145 6 -145 c 0
 44 -145 48 -62 54 -5 c 0
EndSplineSet
EndChar

StartChar: K
Encoding: 75 75 36
Width: 650
VWidth: 0
Flags: W
AnchorPoint: "cedilla" 336 -100 basechar 0
LayerCount: 3
Fore
SplineSet
625 27 m 2
 639 27 l 2
 650 27 650 26 650 14 c 0
 650 -1 649 -3 639 -3 c 0
 616 -3 569 0 539 0 c 0
 509 0 462 -3 439 -3 c 0
 426 -3 425 -2 425 15 c 0
 425 27 427 27 443 27 c 2
 473 27 l 2
 486 27 490 29 490 31 c 0
 490 34 484 38 478 45 c 2
 261 302 l 2
 254 310 254 310 239 310 c 2
 219 310 l 2
 207 310 205 310 205 298 c 0
 205 172 205 27 216 27 c 2
 289 27 l 2
 300 27 300 26 300 14 c 0
 300 -1 299 -3 289 -3 c 0
 266 -3 199 0 169 0 c 0
 139 0 77 -3 54 -3 c 0
 41 -3 40 -2 40 15 c 0
 40 27 42 27 58 27 c 2
 113 27 l 2
 120 27 121 105 121 197 c 2
 121 487 l 2
 121 559 120 634 113 634 c 2
 69 634 l 2
 57 634 49 634 49 649 c 0
 49 664 56 664 69 664 c 0
 85 664 141 661 171 661 c 0
 201 661 254 664 277 664 c 0
 290 664 291 663 291 646 c 0
 291 634 289 634 273 634 c 2
 219 634 l 2
 209 634 205 532 205 476 c 2
 205 351 l 2
 205 337 206 331 218 331 c 2
 240 331 l 2
 265 331 432 566 469 613 c 0
 474 620 478 625 478 629 c 0
 478 632 474 634 463 634 c 2
 426 634 l 2
 414 634 406 634 406 649 c 0
 406 664 413 664 426 664 c 0
 442 664 481 661 511 661 c 0
 541 661 568 664 591 664 c 0
 604 664 605 663 605 646 c 0
 605 634 603 634 587 634 c 2
 538 634 l 2
 537 634 380 445 322 376 c 0
 312 365 315 366 325 354 c 2
 594 44 l 2
 603 34 611 27 625 27 c 2
EndSplineSet
EndChar

StartChar: L
Encoding: 76 76 37
Width: 584
VWidth: 0
Flags: W
AnchorPoint: "caron" 377 550 basechar 0
AnchorPoint: "cedilla" 292 -100 basechar 0
AnchorPoint: "top" 212 780 basechar 0
LayerCount: 3
Fore
SplineSet
192 31 m 0x70
 301 31 473 36 483 37 c 0
 499 38 500 39 506 60 c 2
 531 137 l 2
 533 142 536 145 542 145 c 0
 552 145 563 141 563 135 c 0
 563 127 544 78 526 8 c 0
 524 -1 516 -3 506 -3 c 0xb0
 483 -3 160 0 130 0 c 0x70
 100 0 53 -3 30 -3 c 0
 17 -3 17 -2 17 15 c 0
 17 27 18 27 34 27 c 2
 86 27 l 2xb0
 88 27 163 594 163 626 c 0
 163 635 163 639 161 639 c 2
 103 639 l 2
 90 639 87 640 87 654 c 0
 87 668 91 669 107 669 c 0
 123 669 175 666 205 666 c 0
 235 666 292 669 315 669 c 0
 331 669 332 668 332 654 c 0
 332 642 330 639 314 639 c 2
 252 639 l 1
 252 638 175 66 175 53 c 0
 175 40 179 31 192 31 c 0x70
EndSplineSet
EndChar

StartChar: M
Encoding: 77 77 38
Width: 895
VWidth: 0
Flags: W
AnchorPoint: "top" 458 780 basechar 0
LayerCount: 3
Fore
SplineSet
403 21 m 2x86
 170 596 l 2
 161 617 157 626 154 626 c 0
 151 626 151 615 150 594 c 0xa6
 145 462 142 260 142 129 c 0
 142 68 144 27 147 27 c 2
 219 27 l 2x6a
 230 27 230 26 230 14 c 0x8a
 230 -1 229 -3 219 -3 c 0
 196 -3 161 0 131 0 c 0
 101 0 72 -3 49 -3 c 0
 36 -3 35 -2 35 15 c 0
 35 27 37 27 53 27 c 2
 95 27 l 2
 102 27 101 68 104 129 c 0x4a
 107 190 122 556 122 626 c 0x66
 122 636 119 639 100 639 c 2
 54 639 l 2
 43 639 43 640 43 652 c 0
 43 667 44 669 54 669 c 0x16
 68 669 140 666 161 666 c 0x26
 183 666 214 669 220 669 c 0x16
 230 669 235 668 240 656 c 2
 450 132 l 2
 456 117 459 110 461 110 c 0
 463 110 467 118 472 132 c 2
 668 643 l 2
 676 664 678 666 693 666 c 2
 739 666 l 2x26
 769 666 816 669 839 669 c 0
 852 669 853 668 853 651 c 0
 853 639 851 639 835 639 c 2
 789 639 l 2
 783 639 782 608 782 559 c 2
 782 469 l 2
 782 288 788 27 798 27 c 2
 852 27 l 2x56
 863 27 865 26 865 14 c 0x86
 865 -1 864 -3 854 -3 c 0
 831 -3 777 0 747 0 c 0
 717 0 664 -3 641 -3 c 0
 628 -3 627 -2 627 15 c 0
 627 27 629 27 645 27 c 2
 691 27 l 2x46
 698 27 700 106 700 204 c 0
 700 321 696 621 693 621 c 0
 689 621 563 284 491 109 c 0
 472 63 459 60 435 12 c 0
 429 -1 424 -7 420 -7 c 0
 415 -7 410 4 403 21 c 2x86
EndSplineSet
EndChar

StartChar: N
Encoding: 78 78 39
Width: 814
VWidth: 0
Flags: W
AnchorPoint: "cedilla" 414 -100 basechar 0
AnchorPoint: "top" 421 780 basechar 0
LayerCount: 3
Fore
SplineSet
241 656 m 2x16
 647 157 l 2
 656 146 662 137 665 137 c 0
 668 137 669 145 669 165 c 2
 669 207 l 2
 669 305 667 482 667 583 c 0
 667 617 667 639 666 639 c 2
 572 639 l 2
 561 639 561 640 561 652 c 0
 561 667 562 669 572 669 c 0x16
 595 669 648 666 678 666 c 0x26
 708 666 737 669 760 669 c 0
 773 669 774 668 774 651 c 0
 774 639 772 639 756 639 c 2
 709 639 l 2x16
 708 639 705 617 705 580 c 0
 704 425 692 15 692 4 c 0
 692 -12 687 -18 682 -18 c 0
 677 -18 670 -9 664 -2 c 2
 172 596 l 2
 164 606 159 614 156 614 c 0
 154 614 153 609 153 594 c 0
 152 569 152 525 152 472 c 0xa6
 152 366 151 224 151 129 c 0
 151 68 153 27 156 27 c 2
 242 27 l 2
 253 27 253 26 253 14 c 0
 253 -1 252 -3 242 -3 c 0
 219 -3 166 0 136 0 c 0
 106 0 77 -3 54 -3 c 0
 41 -3 40 -2 40 15 c 0
 40 27 42 27 58 27 c 2
 102 27 l 2
 115 27 112 68 114 129 c 0x6a
 119 301 122 639 122 639 c 1
 54 639 l 2
 43 639 43 640 43 652 c 0
 43 667 44 669 54 669 c 0x56
 68 669 145 666 166 666 c 0x26
 188 666 215 669 221 669 c 0
 232 669 233 666 241 656 c 2x16
EndSplineSet
EndChar

StartChar: O
Encoding: 79 79 40
Width: 752
VWidth: 0
Flags: W
AnchorPoint: "top" 415 780 basechar 0
LayerCount: 3
Fore
SplineSet
335 -22 m 0
 175 -22 36 66 36 280 c 0
 36 519 227 673 408 673 c 0
 589 673 700 542 700 348 c 0
 700 148 538 -22 335 -22 c 0
128 286 m 0
 128 147 194 2 352 2 c 0
 510 2 609 213 609 373 c 0
 609 484 555 645 411 645 c 0
 266 645 128 463 128 286 c 0
EndSplineSet
EndChar

StartChar: P
Encoding: 80 80 41
Width: 564
VWidth: 0
Flags: W
HStem: 0 27<50.0062 121.382 210.917 296.999> 293 19<209.78 324.539> 634 28<40.0233 126.039> 641 21<210.66 325.386>
VStem: 128 81<228.579 292.996 312.676 633.469> 458 86<396.879 558.372>
AnchorPoint: "top" 304 780 basechar 0
LayerCount: 3
Fore
SplineSet
458 486 m 0xdc
 458 583 366 641 247 641 c 0
 236 641 225 641 214 640 c 0
 210 640 209 616 209 586 c 2
 209 325 l 2
 209 313 231 312 247 312 c 0
 361 312 458 357 458 486 c 0xdc
544 471 m 0
 544 343 446 290 305 290 c 0
 269 290 246 293 218 293 c 0
 208 293 208 288 208 282 c 2
 208 216 l 2
 208 136 209 27 213 27 c 2
 286 27 l 2
 297 27 297 26 297 14 c 0
 297 -1 296 -3 286 -3 c 0
 263 -3 201 0 171 0 c 0
 141 0 73 -3 64 -3 c 0
 51 -3 50 -2 50 15 c 0
 50 27 52 27 68 27 c 2
 119 27 l 2
 127 27 128 343 128 474 c 2
 128 526 l 2
 128 589 127 634 123 634 c 2xec
 60 632 l 2
 48 632 40 634 40 649 c 0
 40 664 47 664 60 664 c 0
 76 664 143 662 173 662 c 0
 203 662 281 667 304 667 c 0
 440 667 544 606 544 471 c 0
EndSplineSet
EndChar

StartChar: Q
Encoding: 81 81 42
Width: 783
VWidth: 0
Flags: W
HStem: -187 63<535.977 685.317> -122 56<160.803 252.822> 647 28<306.829 457.465>
VStem: 45 87<232.614 466.805> 640 98<220.12 459.104>
LayerCount: 3
Fore
SplineSet
434 18 m 0
 465 18 640 108 640 332 c 0
 640 485 545 647 382 647 c 0
 239 647 132 509 132 356 c 0
 132 264 166 177 217 119 c 0
 274 54 411 18 434 18 c 0
45 340 m 0
 45 556 208 675 392 675 c 0
 590 675 738 534 738 340 c 0
 738 179 637 55 494 14 c 0
 462 5 305 -65 305 -67 c 0
 305 -71 401 -70 459 -83 c 0
 527 -98 595 -124 639 -124 c 0
 707 -124 739 -94 745 -94 c 0
 748 -94 759 -103 759 -111 c 0
 759 -124 677 -187 603 -187 c 0
 466 -187 308 -104 254 -104 c 0
 229 -104 195 -122 187 -122 c 0
 174 -122 151 -91 151 -80 c 0
 151 -68 159 -65 176 -65 c 0
 183 -65 191 -66 198 -66 c 0
 215 -66 234 -65 255 -60 c 0
 289 -51 396 -3 396 1 c 0
 396 2 389 2 382 3 c 0
 204 25 45 118 45 340 c 0
EndSplineSet
EndChar

StartChar: R
Encoding: 82 82 43
Width: 641
VWidth: 0
Flags: W
HStem: 0 27<59.0062 124.708 215.539 289.999 572.286 640.719> 312 21<207.041 375.746> 634 28<40.0233 119.458> 642 26<209.754 336.928>
VStem: 127 80<57.415 312.996 334.909 535.205> 451 85<425.824 560.972> 483 86<27 195.779>
AnchorPoint: "cedilla" 362 -100 basechar 0
AnchorPoint: "top" 297 780 basechar 0
LayerCount: 3
Fore
SplineSet
351 333 m 0xdc
 355 333 359 332 363 334 c 0
 411 356 451 400 451 484 c 0
 451 583 360 642 266 642 c 0
 249 642 231 641 214 640 c 0
 210 640 207 616 207 586 c 2
 207 345 l 2
 207 337 209 335 223 335 c 0
 266 334 317 334 351 333 c 0xdc
218 27 m 2
 279 27 l 2
 290 27 290 26 290 14 c 0
 290 -1 289 -3 279 -3 c 0
 256 -3 201 0 171 0 c 0
 141 0 82 -3 73 -3 c 0
 60 -3 59 -2 59 15 c 0
 59 27 61 27 77 27 c 2
 122 27 l 2
 126 27 127 85 127 156 c 2
 127 289 l 2
 127 436 126 634 115 634 c 2
 60 632 l 2
 48 632 40 634 40 649 c 0
 40 664 47 664 60 664 c 0
 76 664 143 662 173 662 c 0xea
 203 662 295 668 318 668 c 0
 418 668 536 638 536 498 c 0xdc
 536 406 444 354 402 335 c 0
 389 329 382 328 382 327 c 0
 382 326 388 326 402 322 c 0
 465 303 563 256 569 92 c 0
 571 35 572 27 583 27 c 2
 629 27 l 2
 638 27 641 26 641 5 c 0
 641 0 636 -3 624 -3 c 0
 590 -3 491 0 491 0 c 2
 484 0 483 0 483 8 c 2
 483 66 l 2xda
 483 186 473 309 310 312 c 0
 289 312 246 313 218 313 c 0
 208 313 207 308 207 302 c 0
 207 240 212 27 218 27 c 2
EndSplineSet
EndChar

StartChar: S
Encoding: 83 83 44
Width: 528
VWidth: 0
Flags: W
HStem: -15 33<182.386 342.019> 642 20G<435.5 450.5> 649 28<209.238 330.36>
VStem: 55 83<456.399 570.215> 61 33<81 188.692> 411 82<91.0381 200.329> 425 32<475.003 578.814 637 661.975>
AnchorPoint: "cedilla" 278 -100 basechar 0
AnchorPoint: "top" 269 780 basechar 0
LayerCount: 3
Fore
SplineSet
271 649 m 0xb2
 195 649 138 594 138 520 c 0xb2
 138 334 493 411 493 178 c 0
 493 54 380 -15 269 -15 c 0
 158 -15 72 21 71 31 c 0
 69 67 61 161 61 175 c 0
 61 183 63 189 73 189 c 2
 78 189 l 2
 90 189 93 185 94 173 c 2xac
 100 81 l 2
 102 51 220 18 278 18 c 0
 349 18 411 70 411 139 c 0
 411 318 55 256 55 488 c 0
 55 600 161 677 269 677 c 0xb4
 305 677 348 673 404 635 c 0
 409 631 415 627 420 627 c 0
 424 627 426 629 427 637 c 2
 428 648 l 2
 428 659 428 662 443 662 c 0xd4
 458 662 462 660 462 648 c 0
 462 637 457 542 457 491 c 0
 457 479 454 475 441 475 c 0
 423 475 422 478 422 487 c 0
 422 491 425 542 425 551 c 0
 425 576 345 649 271 649 c 0xb2
EndSplineSet
EndChar

StartChar: T
Encoding: 84 84 45
Width: 690
VWidth: 0
Flags: W
HStem: 0 27<149.006 225.944 322.006 404.999> 633 28<96.4097 317.999 404.277 628.427> 666 20G<642 653>
VStem: 21 35<535.027 552> 623 30<535.077 630.579> 632 30<664.781 685.997>
AnchorPoint: "cedilla" 285 -100 basechar 0
LayerCount: 3
Fore
SplineSet
653 545 m 0xf8
 653 537 648 535 634 535 c 0
 622 535 623 539 623 549 c 0xf8
 623 554 629 621 629 627 c 0
 629 633 579 633 522 633 c 2
 416 633 l 2
 407 633 405 624 403 613 c 0
 388 512 322 44 322 41 c 0
 322 32 324 27 330 27 c 2
 394 27 l 2
 405 27 405 26 405 14 c 0
 405 -1 404 -3 394 -3 c 0
 371 -3 314 0 284 0 c 0
 254 0 186 -3 163 -3 c 0
 150 -3 149 -2 149 15 c 0
 149 27 151 27 167 27 c 2
 221 27 l 2
 234 27 299 488 315 596 c 0
 316 604 318 615 318 622 c 0
 318 629 317 633 312 633 c 2
 175 633 l 2
 123 633 83 632 80 622 c 2
 56 552 l 2
 51 539 50 535 40 535 c 0
 30 535 21 537 21 546 c 0
 21 548 42 600 64 672 c 0
 68 684 71 686 86 686 c 0
 94 686 96 680 96 674 c 2
 96 669 l 2
 96 663 149 661 202 661 c 2
 528 661 l 2
 586 661 631 662 632 672 c 0
 633 682 638 686 646 686 c 0
 660 686 662 685 662 675 c 0xf4
 662 656 657 624 653 545 c 0xf8
EndSplineSet
Layer: 2
SplineSet
653 545 m 4xf8
 653 537 648 535 634 535 c 4
 622 535 623 539 623 549 c 4xf8
 623 554 629 621 629 627 c 4
 629 633 579 633 522 633 c 6
 416 633 l 6
 407 633 405 624 403 613 c 4
 388 512 322 44 322 41 c 4
 322 32 324 27 330 27 c 6
 394 27 l 6
 405 27 405 26 405 14 c 4
 405 -1 404 -3 394 -3 c 4
 371 -3 314 0 284 0 c 4
 254 0 186 -3 163 -3 c 4
 150 -3 149 -2 149 15 c 4
 149 27 151 27 167 27 c 6
 221 27 l 6
 234 27 299 488 315 596 c 4
 316 604 318 615 318 622 c 4
 318 629 317 633 312 633 c 6
 175 633 l 6
 123 633 83 632 80 622 c 6
 56 552 l 6
 51 539 50 535 40 535 c 4
 30 535 21 537 21 546 c 4
 21 548 42 600 64 672 c 4
 68 684 71 686 86 686 c 4
 94 686 96 680 96 674 c 6
 96 669 l 6
 96 663 149 661 202 661 c 6
 528 661 l 6
 586 661 631 662 632 672 c 4
 633 682 638 686 646 686 c 4
 660 686 662 685 662 675 c 4xf4
 662 656 657 624 653 545 c 4xf8
EndSplineSet
EndChar

StartChar: U
Encoding: 85 85 46
Width: 755
VWidth: 0
Flags: W
HStem: -11 45<271.072 441.366> 634 30<40.0044 99.2503 192.192 277.986 503.006 576.981 668.384 714.986>
VStem: 99 82<122.808 474.285> 579 81<90.2761 560.192>
AnchorPoint: "top" 384 780 basechar 0
LayerCount: 3
Fore
SplineSet
632 -7 m 0
 612 -7 593 66 570 66 c 0
 562 66 542 56 524 46 c 0
 477 19 394 -11 318 -11 c 0
 116 -11 99 105 99 227 c 0
 99 260 100 496 100 575 c 0
 100 611 100 634 95 634 c 2
 58 634 l 2
 46 634 40 634 40 649 c 0
 40 664 45 664 58 664 c 0
 74 664 120 661 150 661 c 0
 180 661 241 664 264 664 c 0
 277 664 278 663 278 646 c 0
 278 634 276 634 260 634 c 2
 195 634 l 2
 186 634 181 272 181 228 c 0
 181 101 240 34 382 34 c 0
 467 34 526 69 554 88 c 0
 579 105 579 102 579 247 c 2
 579 552 l 2
 579 598 578 634 572 634 c 2
 523 634 l 2
 511 634 503 634 503 649 c 0
 503 664 510 664 523 664 c 0
 539 664 593 661 623 661 c 0
 653 661 691 664 701 664 c 0
 714 664 715 663 715 646 c 0
 715 634 713 634 697 634 c 2
 673 634 l 2
 662 634 664 472 660 317 c 0
 657 180 653 46 653 25 c 0
 653 17 652 -7 632 -7 c 0
EndSplineSet
EndChar

StartChar: V
Encoding: 86 86 47
Width: 685
VWidth: 0
Flags: W
HStem: -25 119<316.5 367.5> 634 30<10.0044 65.7115 173.001 263.986 463.004 560.993 624.672 674.986>
LayerCount: 3
Fore
SplineSet
322 -25 m 0
 311 -25 304 29 268 110 c 0
 265 116 66 634 59 634 c 2
 28 634 l 2
 16 634 10 634 10 649 c 0
 10 664 15 664 28 664 c 0
 44 664 90 661 120 661 c 0
 150 661 227 664 250 664 c 0
 263 664 264 663 264 646 c 0
 264 634 262 634 246 634 c 2
 175 634 l 2
 174 634 173 632 173 629 c 0
 173 618 179 594 185 578 c 0
 222 470 303 249 344 142 c 0
 356 112 364 94 366 94 c 0
 369 94 378 111 389 140 c 0
 441.48046875 275.706054688 561 567 561 618 c 0
 561 628 560 634 552 634 c 2
 481 634 l 2
 469 634 463 634 463 649 c 0
 463 664 465 664 478 664 c 0
 494 664 553 661 583 661 c 0
 613 661 651 664 661 664 c 0
 674 664 675 663 675 646 c 0
 675 634 673 634 657 634 c 0
 630 634 629 629 621 611 c 2
 390 68 l 2
 379 43 374 42 363 26 c 0
 342 -4 338 -25 322 -25 c 0
EndSplineSet
EndChar

StartChar: W
Encoding: 87 87 48
Width: 1008
VWidth: 0
Flags: W
HStem: -25 131<270 325.5> -25 115<646 702> 634 30<10.0058 70.5736 163.006 240.986 375.004 458.785 553.001 636.973 796.004 886.993 947.672 997.994>
VStem: 488 65<512.641 597.743>
AnchorPoint: "top" 502 780 basechar 0
LayerCount: 3
Fore
SplineSet
655 -25 m 0x70
 637 -25 629 32 603 110 c 0
 602 113 553 293 511 440 c 0
 506 457 504 465 501 465 c 0
 498 465 495 456 489 440 c 2
 347 68 l 2
 337 43 331 42 320 26 c 0
 299 -4 292 -25 279 -25 c 0
 261 -25 253 32 227 110 c 0
 225 116 72 634 65 634 c 2
 30 634 l 2
 18 634 10 634 10 649 c 0
 10 664 17 664 30 664 c 0
 46 664 93 661 123 661 c 0
 153 661 204 664 227 664 c 0
 240 664 241 663 241 646 c 0
 241 634 239 634 223 634 c 2
 173 634 l 2
 171 634 163 634 163 625 c 0
 163 620 187 536 190 526 c 0
 233 380 305 162 311 142 c 0
 319 118 321 106 324 106 c 0xb0
 327 106 331 118 340 142 c 2
 483 507 l 2
 486 515 488 520 488 525 c 0
 488 533 483 540 479 556 c 0
 466 602 454 634 452 634 c 2
 392 634 l 2
 380 634 375 634 375 649 c 0
 375 664 379 664 392 664 c 0
 408 664 473 661 503 661 c 0
 533 661 600 664 623 664 c 0
 636 664 637 663 637 646 c 0
 637 634 633 634 620 634 c 2
 556 634 l 2
 554 634 553 630 553 625 c 0
 553 601 568 538 571 526 c 0
 609 386 675 163 681 142 c 0
 692 108 695 90 700 90 c 0
 704 90 709 107 722 140 c 0
 773 276 887 567 887 618 c 0
 887 628 886 634 878 634 c 2
 813 634 l 2
 801 634 796 634 796 649 c 0
 796 664 800 664 813 664 c 0
 829 664 886 661 916 661 c 0
 946 661 974 664 984 664 c 0
 997 664 998 662 998 648 c 0
 998 636 996 634 980 634 c 0
 953 634 952 629 944 611 c 2
 723 68 l 2
 713 43 707 42 696 26 c 0
 675 -4 668 -25 655 -25 c 0x70
EndSplineSet
EndChar

StartChar: X
Encoding: 88 88 49
Width: 638
VWidth: 0
Flags: W
HStem: -3 30<10.0029 78.1663 121.002 205.986 378.014 451.404 562.945 627.996> 634 30<35.0044 102.418 216.104 280.986 417.014 493.999 546.511 600.997>
LayerCount: 3
Fore
SplineSet
281 336 m 0
 281 337 100 634 92 634 c 2
 53 634 l 2
 41 634 35 634 35 649 c 0
 35 664 40 664 53 664 c 0
 69 664 140 661 170 661 c 0
 200 661 244 664 267 664 c 0
 280 664 281 663 281 646 c 0
 281 634 279 634 263 634 c 2
 222 634 l 2
 207 634 208 633 214 619 c 0
 235 568 303 447 335 392 c 0
 339 387 341 382 342 382 c 0
 345 382 420 498 431 515 c 0
 464 564 494 613 494 630 c 0
 494 633 493 634 491 634 c 2
 435 634 l 2
 419 634 417 634 417 646 c 0
 417 663 418 664 431 664 c 0
 454 664 479 661 509 661 c 0
 539 661 569 664 585 664 c 0
 598 664 601 664 601 649 c 0
 601 634 597 634 585 634 c 2
 559 634 l 2
 558 634 538 610 513 574 c 0
 454 489 381 397 361 367 c 0
 356 359 356 361 361 353 c 0
 393 302 568 27 575 27 c 2
 610 27 l 2
 622 27 628 27 628 12 c 0
 628 -3 623 -3 610 -3 c 0
 594 -3 538 0 508 0 c 0
 478 0 415 -3 392 -3 c 0
 379 -3 378 -2 378 15 c 0
 378 27 380 27 396 27 c 2
 446 27 l 2
 461 27 461 28 454 42 c 0
 428 94 347 228 309 292 c 0
 303 302 304 306 296 294 c 0
 267 253 171 114 133 52 c 0
 126 40 121 34 121 31 c 0
 121 28 124 27 134 27 c 2
 188 27 l 2
 204 27 206 27 206 15 c 0
 206 -2 205 -3 192 -3 c 0
 169 -3 139 0 109 0 c 0
 79 0 42 -3 26 -3 c 0
 13 -3 10 -3 10 12 c 0
 10 27 14 27 26 27 c 2
 63 27 l 2
 71 27 100 73 137 127 c 0
 181 192 233 254 281 316 c 0
 287 324 287 327 281 336 c 0
EndSplineSet
EndChar

StartChar: Y
Encoding: 89 89 50
Width: 597
VWidth: 0
Flags: W
HStem: 0 27<183.006 257.553 354.033 439.999> 639 30<10.0044 66.4531 177.173 259.986 403.014 478.999 525.946 586.997>
VStem: 263 85<61.335 316.849>
AnchorPoint: "top" 328 780 basechar 0
LayerCount: 3
Fore
SplineSet
358 27 m 2
 429 27 l 2
 440 27 440 26 440 14 c 0
 440 -1 439 -3 429 -3 c 0
 406 -3 339 0 309 0 c 0
 279 0 220 -3 197 -3 c 0
 184 -3 183 -2 183 15 c 0
 183 27 185 27 201 27 c 2
 253 27 l 2
 262 27 263 137 263 271 c 0
 263 283 260 287 256 294 c 0
 222 356 65 639 57 639 c 2
 28 639 l 2
 16 639 10 639 10 654 c 0
 10 669 15 669 28 669 c 0
 44 669 101 666 131 666 c 0
 161 666 223 669 246 669 c 0
 259 669 260 668 260 651 c 0
 260 639 258 639 242 639 c 2
 183 639 l 2
 168 639 169 638 175 624 c 0
 196 573 288 407 317 351 c 0
 322 341 325 334 328 334 c 0
 331 334 334 339 339 348 c 0
 374 416 479 610 479 636 c 0
 479 638 478 639 477 639 c 2
 421 639 l 2
 405 639 403 639 403 651 c 0
 403 668 404 669 417 669 c 0
 440 669 465 666 495 666 c 0
 525 666 555 669 571 669 c 0
 584 669 587 669 587 654 c 0
 587 639 583 639 571 639 c 2
 535 639 l 2
 530 639 398 398 351 324 c 0
 348 319 348 316 348 313 c 0
 348 191 349 27 358 27 c 2
EndSplineSet
EndChar

StartChar: Z
Encoding: 90 90 51
Width: 601
VWidth: 0
Flags: W
HStem: 0 37<170.002 532.611> 629 32<102.018 434.996>
VStem: 52 33<526.49 625.883> 73 29<579.966 629 662.293 681.977> 536 35<37.0001 154.994>
AnchorPoint: "top" 314 780 basechar 0
LayerCount: 3
Fore
SplineSet
76 526 m 0xe8
 64 526 52 529 52 535 c 0xe8
 52 542 65 614 73 676 c 0
 73 679 77 682 89 682 c 0
 96 682 102 680 102 676 c 2
 102 670 l 2xd8
 102 663 108 661 161 661 c 2
 542 661 l 2
 554 661 559 659 559 646 c 0
 559 631 322 303 180 60 c 0
 175 52 170 46 170 42 c 0
 170 39 173 37 181 37 c 2
 518 37 l 2
 534 37 531 37 533 60 c 0
 535 85 535 108 536 147 c 0
 536 153 546 155 554 155 c 0
 563 155 571 153 571 146 c 0
 571 96 568 38 568 8 c 0
 568 -1 556 -3 546 -3 c 0
 434 -3 152 0 48 0 c 0
 41 0 40 1 40 15 c 0
 40 27 274 372 430 617 c 0
 433 621 435 624 435 626 c 0
 435 629 430 629 411 629 c 2
 109 629 l 2
 99 629 100 628 98 619 c 0
 94 596 86 545 85 541 c 0
 83 533 82 526 76 526 c 0xe8
EndSplineSet
Layer: 2
SplineSet
424 629 m 6xd8
 109 629 l 6
 99 629 100 628 98 619 c 4
 94 596 86 545 85 541 c 4
 83 533 82 526 76 526 c 4
 64 526 52 529 52 535 c 4xe8
 52 542 65 614 73 676 c 4
 73 679 77 682 89 682 c 4
 96 682 102 680 102 676 c 6
 102 670 l 6
 102 663 108 661 161 661 c 6
 542 661 l 6
 554 661 559 659 559 646 c 4
 559 631 322 303 180 60 c 4
 175 52 170 46 170 42 c 4
 170 39 173 37 181 37 c 6
 518 37 l 6
 534 37 531 37 533 60 c 4
 535 85 535 108 536 147 c 4
 536 153 546 155 554 155 c 4
 563 155 571 153 571 146 c 4
 571 96 568 38 568 8 c 4
 568 -1 556 -3 546 -3 c 4
 434 -3 152 0 48 0 c 4
 42 0 40 1 40 11 c 4
 40 17 42 22 54 41 c 6
 432 620 l 14
 434 624 440 629 424 629 c 6xd8
76 526 m 0xe8
 64 526 52 529 52 535 c 0xe8
 52 542 65 614 73 676 c 0
 73 679 77 682 89 682 c 0
 96 682 102 680 102 676 c 2
 102 670 l 2xd8
 102 663 108 661 161 661 c 2
 542 661 l 2
 554 661 559 659 559 646 c 0
 559 631 322 303 180 60 c 0
 175 52 170 46 170 42 c 0
 170 39 173 37 181 37 c 2
 518 37 l 2
 534 37 531 37 533 60 c 0
 535 85 535 108 536 147 c 0
 536 153 546 155 554 155 c 0
 563 155 571 153 571 146 c 0
 571 96 568 38 568 8 c 0
 568 -1 556 -3 546 -3 c 0
 434 -3 152 0 48 0 c 0
 41 0 40 1 40 15 c 0
 40 27 274 372 430 617 c 0
 433 621 435 624 435 626 c 0
 435 629 430 629 411 629 c 2
 109 629 l 2
 99 629 100 628 98 619 c 0
 94 596 86 545 85 541 c 0
 83 533 82 526 76 526 c 0xe8
EndSplineSet
EndChar

StartChar: zero
Encoding: 48 48 52
Width: 500
VWidth: 0
Flags: W
HStem: -5 48<162.905 334.804> 340 40<172.719 327.217>
VStem: 58 33<122.806 253.343> 405 37<121.989 266.535>
LayerCount: 3
Fore
SplineSet
58 189 m 0
 58 300 144 380 251 380 c 0
 373 380 442 292 442 188 c 0
 442 75 355 -5 245 -5 c 0
 141 -5 58 85 58 189 c 0
405 202 m 0
 405 283 329 340 247 340 c 0
 164 340 91 272 91 189 c 0
 91 100 161 43 244 43 c 0
 356 43 405 116 405 202 c 0
EndSplineSet
EndChar

StartChar: one
Encoding: 49 49 53
Width: 500
VWidth: 0
Flags: W
HStem: -2 27<150.001 217.046 289.954 352.999> 363 27<153.001 216 292 355.999>
VStem: 218 71<25 363>
LayerCount: 3
Fore
SplineSet
216 351 m 0
 216 360 216 363 206 363 c 2
 164 363 l 2
 154 363 153 367 153 376 c 0
 153 385 153 390 164 390 c 0
 183 390 230 388 255 388 c 0
 280 388 326 390 345 390 c 0
 356 390 356 387 356 376 c 0
 356 367 355 363 342 363 c 2
 303 363 l 2
 292 363 293 361 292 351 c 0
 289 293 289 196 289 117 c 0
 289 90 289 64 290 37 c 0
 290 28 292 25 302 25 c 2
 342 25 l 2
 352 25 353 21 353 12 c 0
 353 3 353 -2 342 -2 c 0
 323 -2 276 0 251 0 c 0
 226 0 180 -2 161 -2 c 0
 150 -2 150 1 150 12 c 0
 150 21 151 25 164 25 c 2
 206 25 l 2
 217 25 217 27 217 37 c 0
 218 66 218 95 218 125 c 2
 218 214 l 2
 218 260 218 307 216 351 c 0
EndSplineSet
EndChar

StartChar: two
Encoding: 50 50 54
Width: 500
VWidth: 0
Flags: W
HStem: 0 58<149.001 401.729> 364 42<146.842 260.985>
VStem: 290 68<216.89 335.827>
LayerCount: 3
Fore
SplineSet
290 270 m 0
 290 330 255 364 206 364 c 0
 138 364 82 303 77 303 c 0
 71 303 60 316 60 323 c 0
 60 338 155 406 230 406 c 0
 304 406 358 351 358 280 c 0
 358 195 237 112 177 77 c 0
 158 66 149 61 149 59 c 0
 149 58 151 58 156 58 c 2
 388 58 l 2
 395 58 421 124 425 124 c 0
 430 124 443 120 443 117 c 0
 443 106 425 38 416 6 c 0
 414 1 412 0 405 0 c 2
 79 0 l 2
 68 0 64 5 64 11 c 0
 64 17 71 24 76 28 c 0
 128 77 290 148 290 270 c 0
EndSplineSet
EndChar

StartChar: three
Encoding: 51 51 55
Width: 500
VWidth: 0
Flags: W
HStem: -213 25<185 278.696> 89 44<139.771 207.011> 369 38<163.894 275.563>
VStem: 311 61<214.867 337.579> 359 63<-111.035 44.0898>
LayerCount: 3
Fore
SplineSet
422 -27 m 0xe8
 422 -137 322 -213 223 -213 c 0
 174 -213 80 -192 80 -164 c 0
 80 -154 98 -144 118 -144 c 0
 135 -144 144 -150 159 -159 c 0
 179 -171 192 -188 233 -188 c 0
 296 -188 359 -117 359 -39 c 0xe8
 359 55 311 92 208 92 c 0
 187 92 160 89 155 89 c 0
 144 89 144 98 141 107 c 0
 140 110 139 113 139 116 c 0
 139 127 150 130 160 133 c 0
 259 161 311 198 311 272 c 0
 311 323 277 369 226 369 c 0
 151 369 120 319 114 319 c 0
 106 319 96 328 96 336 c 0
 96 348 166 407 238 407 c 0
 320 407 372 358 372 284 c 0xf0
 372 216 327 182 281 162 c 0
 255 151 233 141 233 139 c 0
 233 136 247 136 275 134 c 0
 360 127 422 85 422 -27 c 0xe8
EndSplineSet
EndChar

StartChar: four
Encoding: 52 52 56
Width: 500
VWidth: 0
Flags: W
HStem: 0 54<93.0044 305 368.29 446> 374 20G<346.5 357>
VStem: 40 53<4.5 63> 305 72<-210.463 -1.50067e-11> 305 61<-198.683 -1.50067e-11 54 315.995>
LayerCount: 3
Fore
SplineSet
366 368 m 2xe8
 366 72 l 2xe8
 366 54 367 54 381 54 c 2
 439 54 l 2
 445 54 446 54 446 44 c 2
 446 10 l 2
 446 0 446 0 434 0 c 2
 382 0 l 2
 368 0 367 0 368 -14 c 0
 371 -75 377 -194 377 -199 c 0
 377 -206 374 -209 361 -210 c 2
 316 -214 l 2
 310 -214 305 -210 305 -201 c 2
 305 -15 l 2xf0
 305 0 304 0 289 0 c 2
 58 0 l 2
 50 0 40 1 40 8 c 0
 40 34 100 110 124 138 c 2
 257 298 l 2
 265 307 340 394 353 394 c 0
 361 394 366 387 366 368 c 2xe8
284 295 m 2
 110 85 l 2
 101 74 93 66 93 60 c 0
 93 56 99 54 118 54 c 2
 286 54 l 2
 304 54 305 55 305 74 c 2
 305 290 l 2
 305 309 305 316 302 316 c 0
 300 316 293 306 284 295 c 2
EndSplineSet
EndChar

StartChar: five
Encoding: 53 53 57
Width: 500
VWidth: 0
Flags: W
HStem: -221 32<105.024 163.469> 319 63<174.587 392.747> 329 62<160.837 368.798> 392 20G<403.5 412.5>
VStem: 100 42<153.5 259.338> 309 71<-65.6255 76.8155>
LayerCount: 3
Fore
SplineSet
147 385 m 0xdc
 148 391 156 391 162 391 c 0xbc
 170 391 286 383 366 382 c 24
 375 382 382 380 388 387 c 0
 398 399 398 412 409 412 c 0
 416 412 420 407 420 400 c 0
 420 372 417 363 416 336 c 0
 415 321 394 319 379 319 c 0xdc
 301 319 263 325 183 329 c 0xbc
 173 329 164 328 162 319 c 0
 155 284 142 219 142 212 c 0
 142 204 145 206 153 205 c 0
 280 193 380 151 380 19 c 0
 380 -154 149 -221 113 -221 c 0
 107 -221 105 -214 105 -203 c 0
 105 -195 107 -190 113 -189 c 0
 179 -176 309 -120 309 3 c 0
 309 107 218 146 115 146 c 0
 105 146 100 149 100 158 c 0
 100 172 132 305 147 385 c 0xdc
EndSplineSet
EndChar

StartChar: six
Encoding: 54 54 58
Width: 500
VWidth: 0
Flags: W
HStem: -5 31<197.422 307.065> 336 22<142.514 277.782> 629 26<351.389 380.131>
VStem: 48 67<111.368 321.431> 373 68<94.8865 262.374>
LayerCount: 3
Fore
SplineSet
441 189 m 0
 441 67 352 -5 244 -5 c 0
 130 -5 48 76 48 231 c 0
 48 506 341 655 367 655 c 0
 373 655 382 643 382 635 c 0
 382 632 380 630 377 629 c 0
 236 571 166 433 144 375 c 0
 140 364 135 353 135 348 c 0
 135 341 150 348 162 350 c 0
 194 356 222 358 253 358 c 0
 357 358 441 290 441 189 c 0
124 298 m 0
 119 274 115 239 115 201 c 0
 115 120 158 26 258 26 c 0
 326 26 373 99 373 168 c 0
 373 263 323 336 217 336 c 0
 203 336 169 333 151 330 c 0
 128 326 129 322 124 298 c 0
EndSplineSet
EndChar

StartChar: seven
Encoding: 55 55 59
Width: 500
VWidth: 0
Flags: W
HStem: 335 58<119.615 419.997> 397 20G<107 117.5>
VStem: 84 41<394.485 416.429> 84 25<271.322 314.667>
LayerCount: 3
Fore
SplineSet
289 393 m 2xe0
 455 393 l 2
 464 393 472 391 472 384 c 0
 472 381 470 378 468 374 c 0
 345 146 166 -216 159 -216 c 0
 142 -216 123 -202 123 -188 c 0
 123 -184 346 201 411 314 c 0
 416 323 420 328 420 331 c 0
 420 334 416 335 402 335 c 2
 203 335 l 2
 173 335 119 333 118 326 c 2
 109 275 l 2
 108 267 84 269 84 278 c 0xd0
 84 288 90 335 96 399 c 0
 98 417 102 417 112 417 c 0
 123 417 125 409 125 397 c 0
 125 393 222 393 289 393 c 2xe0
EndSplineSet
EndChar

StartChar: eight
Encoding: 56 56 60
Width: 500
VWidth: 0
Flags: W
HStem: -6 28<193.027 302.739> 636 22<202.562 296.642>
VStem: 71 53<80.5566 238.424> 80 58<438.977 574.333> 363 45<424.006 585.091> 365 65<74.5899 228.179>
LayerCount: 3
Fore
SplineSet
305 332 m 0xd8
 338 312 430 273 430 154 c 0
 430 59 358 -6 248 -6 c 0
 153 -6 71 59 71 154 c 0xe4
 71 260 148 299 184 317 c 0
 196 323 202 323 202 324 c 0
 202 325 194 328 181 337 c 0
 146 361 80 415 80 495 c 0
 80 586 156 658 250 658 c 0
 337 658 408 598 408 508 c 0
 408 412 339 371 305 346 c 0
 300 342 296 340 296 338 c 0
 296 336 300 335 305 332 c 0xd8
252 22 m 0
 322 22 365 86 365 153 c 0
 365 238 305 272 246 304 c 0
 237 309 222 316 219 316 c 0
 215 316 199 304 186 295 c 0
 163 278 124 239 124 164 c 0
 124 80 175 22 252 22 c 0
291 357 m 0
 322 384 363 448 363 500 c 0
 363 588 314 636 248 636 c 0
 179 636 138 576 138 507 c 0xd8
 138 458 166 421 207 389 c 0
 228 373 248 360 261 354 c 0
 270 350 274 347 277 347 c 0
 280 347 283 350 291 357 c 0
EndSplineSet
EndChar

StartChar: nine
Encoding: 57 57 61
Width: 500
VWidth: 0
Flags: W
HStem: 32 31<195.799 315.03> 368 30<195.009 308.629>
VStem: 60 65<130.438 299.47> 387 66<78.7454 279.562>
LayerCount: 3
Fore
SplineSet
60 204 m 0
 60 326 145 398 253 398 c 0
 364 398 453 317 453 162 c 0
 453 -132 91 -218 73 -218 c 0
 67 -218 63 -201 63 -193 c 0
 63 -184 294 -147 367 56 c 0
 369 62 375 77 373 77 c 0
 371 77 362 71 353 65 c 0
 327 49 281 32 228 32 c 0
 124 32 60 103 60 204 c 0
125 214 m 0
 125 139 171 63 255 63 c 0
 323 63 365 87 381 115 c 0
 386 124 387 154 387 172 c 0
 387 265 349 368 256 368 c 0
 167 368 125 299 125 214 c 0
EndSplineSet
EndChar

StartChar: comma
Encoding: 44 44 63
Width: 203
VWidth: 0
Flags: W
HStem: -156 244
VStem: 110 53<-48.7941 37.5>
LayerCount: 3
Fore
SplineSet
45 47 m 0
 45 68 86 88 92 88 c 0
 108 88 163 50 163 25 c 0
 163 -60 60 -156 51 -156 c 0
 45 -156 40 -146 40 -139 c 0
 40 -135 110 -85 110 -34 c 0
 110 13 45 32 45 47 c 0
EndSplineSet
EndChar

StartChar: quotedblright
Encoding: 8221 8221 64
Width: 394
VWidth: 0
Flags: W
HStem: 435 248
VStem: 129 50<530.776 610.5> 314 50<530.776 610.5>
LayerCount: 3
Fore
SplineSet
81 621 m 0
 81 642 111 683 128 683 c 0
 136 683 179 623 179 598 c 0
 179 526 83 435 76 435 c 0
 70 435 60 446 60 453 c 0
 60 457 129 510 129 543 c 0
 129 569 81 595 81 621 c 0
266 621 m 0
 266 642 296 683 313 683 c 0
 321 683 364 623 364 598 c 0
 364 526 268 435 261 435 c 0
 255 435 245 446 245 453 c 0
 245 457 314 510 314 543 c 0
 314 569 266 595 266 621 c 0
EndSplineSet
EndChar

StartChar: quotedblleft
Encoding: 8220 8220 65
Width: 394
VWidth: 0
Flags: W
HStem: 435 248
VStem: 30 50<507.5 587.224> 215 50<507.5 587.224>
LayerCount: 3
Fore
SplineSet
313 497 m 0
 313 476 283 435 266 435 c 0
 258 435 215 495 215 520 c 0
 215 592 311 683 318 683 c 0
 324 683 334 672 334 665 c 0
 334 661 265 608 265 575 c 0
 265 549 313 523 313 497 c 0
128 497 m 0
 128 476 98 435 81 435 c 0
 73 435 30 495 30 520 c 0
 30 592 126 683 133 683 c 0
 139 683 149 672 149 665 c 0
 149 661 80 608 80 575 c 0
 80 549 128 523 128 497 c 0
EndSplineSet
EndChar

StartChar: quoteright
Encoding: 8217 8217 66
Width: 209
VWidth: 0
Flags: W
HStem: 435 248
VStem: 129 50<530.776 610.5>
LayerCount: 3
Fore
SplineSet
81 621 m 0
 81 642 111 683 128 683 c 0
 136 683 179 623 179 598 c 0
 179 526 83 435 76 435 c 0
 70 435 60 446 60 453 c 0
 60 457 129 510 129 543 c 0
 129 569 81 595 81 621 c 0
EndSplineSet
EndChar

StartChar: quoteleft
Encoding: 8216 8216 67
Width: 209
VWidth: 0
Flags: W
HStem: 435 248
VStem: 30 50<507.5 587.224>
LayerCount: 3
Fore
SplineSet
128 497 m 0
 128 476 98 435 81 435 c 0
 73 435 30 495 30 520 c 0
 30 592 126 683 133 683 c 0
 139 683 149 672 149 665 c 0
 149 661 80 608 80 575 c 0
 80 549 128 523 128 497 c 0
EndSplineSet
EndChar

StartChar: period
Encoding: 46 46 68
Width: 221
VWidth: 0
Flags: W
HStem: -8 105<76 146.723>
VStem: 60 101<7.59372 81.8731>
LayerCount: 3
Fore
SplineSet
60 38 m 0
 60 59 88 97 104 97 c 0
 122 97 161 75 161 50 c 0
 161 19 129 -8 119 -8 c 0
 90.9111328125 -8 60 23 60 38 c 0
EndSplineSet
EndChar

StartChar: colon
Encoding: 58 58 69
Width: 221
VWidth: 0
Flags: W
HStem: -8 105<76 146.723> 267 105<76 146.723>
VStem: 60 101<7.59372 81.8731 282.594 356.873>
LayerCount: 3
Fore
SplineSet
60 313 m 0
 60 334 88 372 104 372 c 0
 122 372 161 350 161 325 c 0
 161 294 129 267 119 267 c 0
 90.9111328125 267 60 298 60 313 c 0
60 38 m 0
 60 59 88 97 104 97 c 0
 122 97 161 75 161 50 c 0
 161 19 129 -8 119 -8 c 0
 90.9111328125 -8 60 23 60 38 c 0
EndSplineSet
EndChar

StartChar: semicolon
Encoding: 59 59 70
Width: 223
VWidth: 0
Flags: W
HStem: 267 105<77 147.723>
VStem: 61 101<282.594 356.873> 120 53<-48.7941 37.5>
LayerCount: 3
Fore
SplineSet
55 47 m 0xa0
 55 68 96 88 102 88 c 0
 118 88 173 50 173 25 c 0xa0
 173 -60 70 -156 61 -156 c 0xc0
 55 -156 50 -146 50 -139 c 0
 50 -135 120 -85 120 -34 c 0
 120 13 55 32 55 47 c 0xa0
61 313 m 0xc0
 61 334 89 372 105 372 c 0
 123 372 162 350 162 325 c 0xc0
 162 294 130 267 120 267 c 0xa0
 91.9111328125 267 61 298 61 313 c 0xc0
EndSplineSet
EndChar

StartChar: hyphen
Encoding: 45 45 71
Width: 258
VWidth: 0
Flags: W
HStem: 198 43<28.3223 225.601> 206 42<43.5371 227.046>
VStem: 25 203<205.258 240.936>
LayerCount: 3
Fore
SplineSet
43 241 m 0xa0
 52 242 220 248 226 248 c 0
 228 248 228 244 228 239 c 0
 228 227 224 206 220 206 c 0x60
 207 205 42 198 29 198 c 0
 26 198 25 199 25 201 c 0
 25 216 34 240 43 241 c 0xa0
EndSplineSet
EndChar

StartChar: exclam
Encoding: 33 33 72
Width: 261
VWidth: 0
Flags: W
HStem: -8 105<96 166.723> 653 20G<125 149.5>
VStem: 80 101<7.59372 81.8731> 97 72<415.308 671.591> 116 27<172.009 368.977>
LayerCount: 3
Fore
SplineSet
116 182 m 0xc8
 110 405 97 594 97 648 c 0
 97 668 112 673 138 673 c 0
 161 673 169 670 169 652 c 0xd0
 169 640 155 446 143 182 c 0
 143 175 136 172 129 172 c 24
 123 172 116 175 116 182 c 0xc8
80 38 m 0xe0
 80 59 108 97 124 97 c 0
 142 97 181 75 181 50 c 0
 181 19 149 -8 139 -8 c 0
 111 -8 80 23 80 38 c 0xe0
EndSplineSet
EndChar

StartChar: question
Encoding: 63 63 73
Width: 364
VWidth: 0
Flags: W
HStem: -8 105<112 182.723> 245 71<172.706 276.945> 647 20G<65.5 75>
VStem: 96 101<7.59372 81.8731> 311 23<352.293 460.366>
LayerCount: 3
Fore
SplineSet
139 298 m 0
 140 315 149 316 167 316 c 2
 224 316 l 2
 305 316 311 371 311 404 c 0
 311 496 239 570 83 590 c 0
 69 592 60 591 60 605 c 2
 60 650 l 2
 60 657 62 667 69 667 c 0
 81 667 78 644 88 642 c 0
 161 630 334 603 334 419 c 0
 334 328 311 246 199 245 c 0
 177 245 174 238 173 228 c 0
 171 196 167 170 165 138 c 0
 165 132 160 129 153 129 c 0
 139 129 137 134 137 151 c 0
 137 164 138 284 139 298 c 0
96 38 m 0
 96 59 124 97 140 97 c 0
 158 97 197 75 197 50 c 0
 197 19 165 -8 155 -8 c 0
 127 -8 96 23 96 38 c 0
EndSplineSet
EndChar

StartChar: parenleft
Encoding: 40 40 74
Width: 274
VWidth: 0
Flags: W
VStem: 40 52<142.232 436.499>
LayerCount: 3
Fore
SplineSet
40 285 m 0
 40 547 216 689 218 689 c 0
 225 689 234 683 234 676 c 0
 234 672 92 546 92 297 c 0
 92 14 230 -111 230 -126 c 0
 230 -133 225 -140 214 -140 c 0
 203 -140 40 55 40 285 c 0
EndSplineSet
EndChar

StartChar: parenright
Encoding: 41 41 75
Width: 274
VWidth: 0
Flags: W
VStem: 182 52<112.501 406.768>
LayerCount: 3
Fore
SplineSet
234 264 m 0
 234 2 58 -140 56 -140 c 0
 49 -140 40 -134 40 -127 c 0
 40 -123 182 3 182 252 c 0
 182 535 44 660 44 675 c 0
 44 682 49 689 60 689 c 0
 71 689 234 494 234 264 c 0
EndSplineSet
EndChar

StartChar: f_i
Encoding: 65536 -1 76
Width: 499
VWidth: 0
Flags: W
HStem: -2 27<35.0015 89.7331 163.062 239.999 284.001 345.046 417 468.999> 347 25<41.0022 89.1846 158.002 341.852> 656 22<219.818 298.593>
VStem: 90 68<25 345.947 372 570.673> 331 59<555.874 634.439> 346 68<25 347>
LayerCount: 3
Fore
SplineSet
168 25 m 2xf4
 227 25 l 2
 239 25 240 21 240 12 c 0
 240 3 240 -2 227 -2 c 0
 208 -2 160 0 131 0 c 0
 106 0 78 -2 48 -2 c 0
 35 -2 35 1 35 12 c 0
 35 21 37 25 47 25 c 2
 87 25 l 2
 90 25 91 55 91 88 c 0
 91 123 90 161 90 172 c 2
 90 252 l 2
 90 291 90 346 88 346 c 2
 55 346 l 2
 44 346 41 347 41 359 c 0
 41 371 43 372 52 372 c 2
 81 372 l 2
 89 372 90 372 90 380 c 0
 90 424 92 466 96 505 c 0
 107 616 174 678 263 678 c 0
 345 678 390 625 390 590 c 0
 390 567 358 545 344 545 c 0
 335 545 332 546 331 554 c 0xf8
 325 644 295 656 258 656 c 0
 165 656 158 517 158 409 c 2
 158 385 l 2
 158 373 159 372 177 372 c 2
 294 372 l 2
 314 372 394 377 407 377 c 0
 413 377 414 376 414 371 c 2
 414 201 l 2
 414 144 414 94 417 37 c 0
 417 28 417 25 427 25 c 2
 458 25 l 2
 468 25 469 21 469 12 c 0
 469 3 469 -2 458 -2 c 0
 439 -2 404 0 379 0 c 0
 354 0 314 -2 295 -2 c 0
 284 -2 284 1 284 12 c 0
 284 21 285 25 298 25 c 2
 334 25 l 2
 345 25 345 27 345 37 c 0
 346 66 346 89 346 119 c 0
 346 189 345 260 342 333 c 0
 341 346 339 347 332 347 c 2
 175 347 l 2
 160 347 158 345 158 335 c 2
 158 169 l 2
 158 97 160 25 168 25 c 2xf4
EndSplineSet
Layer: 2
SplineSet
168 25 m 6xf4
 227 25 l 6
 239 25 240 21 240 12 c 4
 240 3 240 -2 227 -2 c 4
 208 -2 160 0 131 0 c 4
 106 0 78 -2 48 -2 c 4
 35 -2 35 1 35 12 c 4
 35 21 37 25 47 25 c 6
 87 25 l 6
 90 25 91 55 91 88 c 4
 91 123 90 161 90 172 c 6
 90 252 l 6
 90 291 90 346 88 346 c 6
 55 346 l 6
 44 346 41 347 41 359 c 4
 41 371 43 372 52 372 c 6
 81 372 l 6
 89 372 90 372 90 380 c 4
 90 424 92 466 96 505 c 4
 107 616 174 678 263 678 c 4
 345 678 390 625 390 590 c 4
 390 567 358 545 344 545 c 4
 335 545 332 546 331 554 c 4xf8
 325 644 295 656 258 656 c 4
 165 656 158 517 158 409 c 6
 158 385 l 6
 158 373 159 372 177 372 c 6
 294 372 l 6
 314 372 394 377 407 377 c 4
 413 377 414 376 414 371 c 6
 414 201 l 6
 414 144 414 94 417 37 c 4
 417 28 417 25 427 25 c 6
 458 25 l 6
 468 25 469 21 469 12 c 4
 469 3 469 -2 458 -2 c 4
 439 -2 404 0 379 0 c 4
 354 0 314 -2 295 -2 c 4
 284 -2 284 1 284 12 c 4
 284 21 285 25 298 25 c 6
 334 25 l 6
 345 25 345 27 345 37 c 4
 346 66 346 89 346 119 c 4
 346 189 345 260 342 333 c 4
 341 346 339 347 332 347 c 6
 175 347 l 6
 160 347 158 345 158 335 c 6
 158 169 l 6
 158 97 160 25 168 25 c 6xf4
168 25 m 2xad
 227 25 l 2
 239 25 240 21 240 12 c 0
 240 3 240 -2 227 -2 c 0
 208 -2 160 0 131 0 c 0
 106 0 78 -2 48 -2 c 0
 35 -2 35 1 35 12 c 0
 35 21 37 25 47 25 c 2
 87 25 l 2
 90 25 91 55 91 88 c 0
 91 123 90 161 90 172 c 2
 90 232 l 2
 90 271 90 313 88 313 c 2
 55 313 l 2
 44 313 41 314 41 326 c 0
 41 338 43 339 52 339 c 2
 81 339 l 2xcd
 90 339 91 340 91 351 c 2
 91 380 l 2
 91 424 92 466 96 505 c 0
 107 616 174 678 263 678 c 0
 345 678 390 625 390 590 c 0
 390 567 358 545 344 545 c 0
 335 545 332 546 331 554 c 0
 325 644 295 656 258 656 c 0
 165 656 159 517 159 409 c 2
 159 358 l 2x9e
 159 346 160 345 178 345 c 2
 294 345 l 2xae
 298 345 297 346 299 350 c 0
 303 358 302 357 314 358 c 0
 333 359 402 363 407 363 c 0
 413 363 414 362 414 357 c 2
 414 207 l 2
 414 150 414 94 417 37 c 0
 417 28 417 25 427 25 c 2
 458 25 l 2
 468 25 469 21 469 12 c 0
 469 3 469 -2 458 -2 c 0
 439 -2 404 0 379 0 c 0
 354 0 314 -2 295 -2 c 0
 284 -2 284 1 284 12 c 0
 284 21 285 25 298 25 c 2
 334 25 l 2
 345 25 345 27 345 37 c 0
 346 66 346 95 346 125 c 0
 346 195 345 246 342 319 c 0
 341 334 339 335 329 335 c 0x9d
 327 335 316 335 308 334 c 0
 299 333 300 333 298 327 c 0
 297 323 295 320 293 320 c 2
 175 320 l 2
 160 320 158 318 158 308 c 2
 158 169 l 2
 158 97 160 25 168 25 c 2xad
EndSplineSet
LCarets2: 1 0 
EndChar

StartChar: f_l
Encoding: 65537 -1 77
Width: 501
VWidth: 0
Flags: W
HStem: -2 27<33.0015 88.8848 159.546 232.999 277.001 338.61 412.539 474.999> 347 25<39.0022 88.988 157.082 339.699> 656 22<208.022 283.523>
VStem: 90 67<25 345.947 372 585.057> 340 70<58.7572 347 372 592.531>
LayerCount: 3
Fore
SplineSet
165 25 m 2
 220 25 l 2
 232 25 233 21 233 12 c 0
 233 3 233 -2 220 -2 c 0
 201 -2 158 0 129 0 c 0
 104 0 76 -2 46 -2 c 0
 33 -2 33 1 33 12 c 0
 33 21 35 25 45 25 c 2
 85 25 l 2
 89 25 91 55 91 88 c 0
 91 123 90 161 90 172 c 2
 90 232 l 2
 90 271 90 346 88 346 c 2
 53 346 l 2
 42 346 39 347 39 359 c 0
 39 371 41 372 50 372 c 2
 77 372 l 2
 86 372 89 373 89 384 c 0
 89 433 88 428 88 481 c 0
 88 585 144 678 266 678 c 0
 288 678 316 670 340 656 c 0
 350 650 353 649 367 651 c 0
 388 654 404 658 407 658 c 0
 414 658 414 655 414 643 c 0
 410 462 410 389 410 295 c 0
 410 265 410 25 414 25 c 2
 462 25 l 2
 474 25 475 21 475 12 c 0
 475 3 475 -2 462 -2 c 0
 443 -2 407 0 378 0 c 0
 353 0 320 -2 290 -2 c 0
 277 -2 277 1 277 12 c 0
 277 21 279 25 289 25 c 2
 336 25 l 2
 340 25 340 85 340 110 c 2
 340 329 l 2
 340 346 338 347 326 347 c 2
 176 347 l 2
 161 347 157 345 157 335 c 2
 157 109 l 2
 157 62 158 25 165 25 c 2
340 392 m 0
 340 460 339 501 338 549 c 0
 338 567 332 571 325 582 c 0
 304 613 299 656 246 656 c 0
 164 656 155 559 155 467 c 2
 155 389 l 2
 155 374 156 372 176 372 c 2
 324 372 l 2
 337 372 340 374 340 392 c 0
EndSplineSet
Layer: 2
SplineSet
165 25 m 6
 220 25 l 6
 232 25 233 21 233 12 c 4
 233 3 233 -2 220 -2 c 4
 201 -2 158 0 129 0 c 4
 104 0 76 -2 46 -2 c 4
 33 -2 33 1 33 12 c 4
 33 21 35 25 45 25 c 6
 85 25 l 6
 89 25 91 55 91 88 c 4
 91 123 90 161 90 172 c 6
 90 232 l 6
 90 271 90 313 88 313 c 6
 53 313 l 6
 42 313 39 314 39 326 c 4
 39 338 41 339 50 339 c 6
 77 339 l 6
 86 339 89 340 89 351 c 4
 89 400 86 428 86 481 c 4
 86 585 144 678 266 678 c 4
 288 678 316 670 340 656 c 4
 350 650 353 649 367 651 c 4
 388 654 404 658 407 658 c 4
 414 658 414 655 414 643 c 4
 410 462 410 362 410 268 c 4
 410 238 410 25 414 25 c 6
 462 25 l 6
 474 25 475 21 475 12 c 4
 475 3 475 -2 462 -2 c 4
 443 -2 407 0 378 0 c 4
 353 0 320 -2 290 -2 c 4
 277 -2 277 1 277 12 c 4
 277 21 279 25 289 25 c 6
 336 25 l 6
 340 25 340 85 340 110 c 6
 340 302 l 6
 340 319 338 320 326 320 c 6
 176 320 l 6
 161 320 157 318 157 308 c 6
 157 109 l 6
 157 62 158 25 165 25 c 6
340 365 m 4
 340 433 339 501 338 549 c 4
 338 567 332 571 325 582 c 4
 304 613 299 656 246 656 c 4
 164 656 155 559 155 467 c 6
 155 362 l 6
 155 347 156 345 176 345 c 6
 324 345 l 6
 337 345 340 347 340 365 c 4
EndSplineSet
LCarets2: 1 0 
EndChar

StartChar: f_f
Encoding: 65538 -1 78
Width: 558
VWidth: 0
Flags: W
HStem: -2 27<38.0015 89.7331 164.062 237.999 292.001 343.733 418.062 501.999> 347 25<39.0022 88.988 159.25 340.911 413.271 551.745> 641 23<213.724 292.362> 656 22<437.245 495.83>
VStem: 90 69<25 345.947 372 548.348> 344 69<25 347 372 557.789> 517 61<576.457 646.57>
LayerCount: 3
Fore
SplineSet
169 25 m 2xde
 225 25 l 2
 237 25 238 21 238 12 c 0
 238 3 238 -2 225 -2 c 0
 206 -2 158 0 129 0 c 0
 104 0 81 -2 51 -2 c 0
 38 -2 38 1 38 12 c 0
 38 21 40 25 50 25 c 2
 87 25 l 2
 90 25 91 55 91 88 c 0
 91 123 90 161 90 172 c 2
 90 232 l 2
 90 271 90 346 88 346 c 2
 53 346 l 2
 42 346 39 347 39 359 c 0
 39 371 41 372 50 372 c 2
 79 372 l 2
 88 372 89 373 89 384 c 0
 89 462 92 598 195 646 c 0
 220 658 245 664 269 664 c 0xee
 305 664 339 650 367 623 c 0
 371 620 373 617 377 622 c 0
 401 657 432 678 489 678 c 0
 536 678 578 653 578 611 c 0
 578 588 544 564 530 564 c 0
 521 564 518 565 517 573 c 0
 511 618 507 656 470 656 c 0
 412 656 410 591 410 519 c 2
 410 389 l 2
 410 374 410 372 430 372 c 2
 546 372 l 2
 550 372 553 370 553 367 c 0
 553 362 549 347 545 347 c 2
 430 347 l 2
 415 347 413 345 413 335 c 2
 413 169 l 2
 413 97 415 25 423 25 c 2
 489 25 l 2
 501 25 502 21 502 12 c 0
 502 3 502 -2 489 -2 c 0
 470 -2 412 0 383 0 c 0
 358 0 335 -2 305 -2 c 0
 292 -2 292 1 292 12 c 0
 292 21 294 25 304 25 c 2
 341 25 l 2
 344 25 345 55 345 88 c 0
 345 123 344 161 344 172 c 2
 344 232 l 2
 344 277 343 319 343 334 c 0
 343 345 340 347 325 347 c 2
 176 347 l 2
 161 347 159 345 159 335 c 2
 159 169 l 2
 159 97 161 25 169 25 c 2xde
322 592 m 0
 308 616 292 641 257 641 c 0
 157 641 156 500 156 425 c 2
 156 386 l 2
 156 374 158 372 176 372 c 2
 323 372 l 2
 340 372 341 373 341 385 c 0
 341 424 340 424 340 464 c 0
 340 518 349 554 349 558 c 0
 349 561 348 563 346 565 c 0
 336 573 328 581 322 592 c 0
EndSplineSet
Layer: 2
SplineSet
169 25 m 2xde
 225 25 l 2
 237 25 238 21 238 12 c 0
 238 3 238 -2 225 -2 c 0
 206 -2 158 0 129 0 c 0
 104 0 81 -2 51 -2 c 0
 38 -2 38 1 38 12 c 0
 38 21 40 25 50 25 c 2
 87 25 l 2
 90 25 91 55 91 88 c 0
 91 123 90 161 90 172 c 2
 90 232 l 2
 90 271 90 313 88 313 c 2
 53 313 l 2
 42 313 39 314 39 326 c 0
 39 338 41 339 50 339 c 2
 79 339 l 2
 88 339 89 340 89 351 c 0
 89 467 92 598 195 646 c 0
 220 658 245 664 269 664 c 0xee
 305 664 339 650 367 623 c 0
 371 620 373 617 377 622 c 0
 401 657 432 678 489 678 c 0
 536 678 578 653 578 611 c 0
 578 588 544 564 530 564 c 0
 521 564 518 565 517 573 c 0
 511 618 507 656 470 656 c 0
 412 656 410 591 410 519 c 2
 410 362 l 2
 410 347 410 345 430 345 c 2
 546 345 l 2
 550 345 553 343 553 340 c 0
 553 335 549 320 545 320 c 2
 430 320 l 2
 415 320 413 318 413 308 c 2
 413 169 l 2
 413 97 415 25 423 25 c 2
 489 25 l 2
 501 25 502 21 502 12 c 0
 502 3 502 -2 489 -2 c 0
 470 -2 412 0 383 0 c 0
 358 0 335 -2 305 -2 c 0
 292 -2 292 1 292 12 c 0
 292 21 294 25 304 25 c 2
 341 25 l 2
 344 25 345 55 345 88 c 0
 345 123 344 161 344 172 c 2
 344 232 l 2
 344 277 343 292 343 307 c 0
 343 318 340 320 325 320 c 2
 176 320 l 2
 161 320 159 318 159 308 c 2
 159 169 l 2
 159 97 161 25 169 25 c 2xde
322 592 m 0
 308 616 292 641 257 641 c 0
 145 641 158 471 155 362 c 0
 155 347 156 345 176 345 c 2
 323 345 l 2
 340 345 341 346 341 358 c 0
 341 397 340 424 340 464 c 0
 340 518 349 554 349 558 c 0
 349 561 348 563 346 565 c 0
 336 573 328 581 322 592 c 0
EndSplineSet
LCarets2: 1 0 
EndChar

StartChar: f_f_i
Encoding: 65539 -1 79
Width: 750
VWidth: 0
Flags: W
HStem: -2 27<35.0015 86.7331 161.062 234.999 286.001 340.733 414.062 480.999 535.001 596.046 668 719.999> 347 25<36.0022 85.988 156.153 340.185 409.002 592.852> 641 23<208.672 288.937> 656 22<471.028 549.593>
VStem: 87 69<25 345.947 372 553.856> 341 68<25 346.392 372 548.766> 582 59<555.874 634.439> 597 68<25 347>
LayerCount: 3
Fore
SplineSet
266 664 m 0xed
 310 664 354 641 379 605 c 1
 409 652 457 678 514 678 c 0
 596 678 641 625 641 590 c 0
 641 567 609 545 595 545 c 0
 586 545 583 546 582 554 c 0
 576 644 546 656 509 656 c 0xde
 416 656 409 517 409 409 c 2
 409 385 l 2
 409 373 410 372 428 372 c 2
 545 372 l 2
 565 372 645 377 658 377 c 0
 664 377 665 376 665 371 c 2
 665 201 l 2
 665 144 665 94 668 37 c 0
 668 28 668 25 678 25 c 2
 709 25 l 2
 719 25 720 21 720 12 c 0
 720 3 720 -2 709 -2 c 0
 690 -2 655 0 630 0 c 0
 605 0 565 -2 546 -2 c 0
 535 -2 535 1 535 12 c 0
 535 21 536 25 549 25 c 2
 585 25 l 2
 596 25 596 27 596 37 c 0
 597 66 597 89 597 119 c 0
 597 189 596 260 593 333 c 0
 592 346 590 347 583 347 c 2
 426 347 l 2
 411 347 409 345 409 335 c 2
 409 169 l 2
 409 97 411 25 419 25 c 2
 468 25 l 2
 480 25 481 21 481 12 c 0
 481 3 481 -2 468 -2 c 0
 449 -2 411 0 382 0 c 0
 357 0 329 -2 299 -2 c 0
 286 -2 286 1 286 12 c 0
 286 21 288 25 298 25 c 2
 338 25 l 2
 341 25 342 55 342 88 c 0
 342 123 341 161 341 172 c 2
 341 252 l 2
 341 291 341 346 339 346 c 0
 327 346 307 347 297 347 c 2
 173 347 l 2
 158 347 156 345 156 335 c 2
 156 169 l 2
 156 97 158 25 166 25 c 2
 222 25 l 2
 234 25 235 21 235 12 c 0
 235 3 235 -2 222 -2 c 0
 203 -2 155 0 126 0 c 0
 101 0 78 -2 48 -2 c 0
 35 -2 35 1 35 12 c 0
 35 21 37 25 47 25 c 2
 84 25 l 2
 87 25 88 55 88 88 c 0
 88 123 87 161 87 172 c 2
 87 238 l 2
 87 277 87 346 85 346 c 2
 50 346 l 2
 39 346 36 347 36 359 c 0
 36 371 38 372 47 372 c 2
 76 372 l 2
 85 372 86 373 86 384 c 0
 86 477 89 598 192 646 c 0
 217 658 242 664 266 664 c 0xed
346 559 m 0
 329 571 326 580 316 597 c 0
 303 620 286 641 254 641 c 0xec
 142 641 155 498 152 389 c 0
 152 374 153 372 173 372 c 2
 332 372 l 2
 340 372 341 372 341 380 c 0
 341 406 341 485 351 530 c 0
 353 539 355 544 355 549 c 0
 355 553 352 555 346 559 c 0
EndSplineSet
LCarets2: 2 0 0 
EndChar

StartChar: f_f_l
Encoding: 65540 -1 80
Width: 754
VWidth: 0
Flags: W
HStem: -2 27<38.0015 89.7331 164.062 237.999 287.001 342.885 413.546 481.999 531.001 592.61 666.539 728.999> 347 25<39.0022 88.988 159.111 342.969 411.082 593.699> 641 23<215.016 291.775> 656 22<460.254 537.523>
VStem: 90 69<25 345.947 372 547.065> 344 67<25 347 372 558.953> 594 70<32.1261 347 372 592.531>
LayerCount: 3
Fore
SplineSet
594 392 m 0xde
 594 460 593 501 592 549 c 0
 592 567 586 571 579 582 c 0
 558 613 553 656 500 656 c 0
 418 656 409 559 409 467 c 2
 409 389 l 2
 409 374 410 372 430 372 c 2
 578 372 l 2
 591 372 594 374 594 392 c 0xde
269 664 m 0xee
 308 664 350 645 375 614 c 0
 379 609 379 611 382 615 c 0
 412 653 458 678 520 678 c 0
 542 678 570 670 594 656 c 0xde
 604 650 607 649 621 651 c 0
 642 654 658 658 661 658 c 0
 668 658 668 655 668 643 c 0
 664 462 664 362 664 268 c 0
 664 238 664 25 668 25 c 2
 716 25 l 2
 728 25 729 21 729 12 c 0
 729 3 729 -2 716 -2 c 0
 697 -2 661 0 632 0 c 0
 607 0 574 -2 544 -2 c 0
 531 -2 531 1 531 12 c 0
 531 21 533 25 543 25 c 2
 590 25 l 2
 594 25 594 85 594 110 c 2
 594 329 l 2
 594 346 592 347 580 347 c 2
 430 347 l 2
 415 347 411 345 411 335 c 2
 411 109 l 2
 411 62 412 25 419 25 c 2
 469 25 l 2
 481 25 482 21 482 12 c 0
 482 3 482 -2 469 -2 c 0
 450 -2 412 0 383 0 c 0
 358 0 330 -2 300 -2 c 0
 287 -2 287 1 287 12 c 0
 287 21 289 25 299 25 c 2
 339 25 l 2
 343 25 345 55 345 88 c 0
 345 123 344 161 344 172 c 2
 344 337 l 2
 344 347 341 347 330 347 c 2
 176 347 l 2
 161 347 159 345 159 335 c 2
 159 169 l 2
 159 97 161 25 169 25 c 2
 225 25 l 2
 237 25 238 21 238 12 c 0
 238 3 238 -2 225 -2 c 0
 206 -2 158 0 129 0 c 0
 104 0 81 -2 51 -2 c 0
 38 -2 38 1 38 12 c 0
 38 21 40 25 50 25 c 2
 87 25 l 2
 90 25 91 55 91 88 c 0
 91 123 90 161 90 172 c 2
 90 232 l 2
 90 271 90 346 88 346 c 2
 53 346 l 2
 42 346 39 347 39 359 c 0
 39 371 41 372 50 372 c 2
 79 372 l 2
 88 372 89 373 89 384 c 0
 89 455 92 598 195 646 c 0
 220 658 245 664 269 664 c 0xee
346 565 m 0
 336 573 328 581 322 592 c 0
 308 616 292 641 257 641 c 0xee
 161 641 156 510 156 421 c 2
 156 384 l 2
 156 374 159 372 176 372 c 2
 333 372 l 2
 342 372 343 372 343 387 c 0
 343 430 342 431 342 481 c 0
 342 506 343 531 350 554 c 0
 351 557 351 558 351 559 c 0
 351 561 350 562 346 565 c 0
EndSplineSet
Layer: 2
SplineSet
594 365 m 4xde
 594 433 593 501 592 549 c 4
 592 567 586 571 579 582 c 4
 558 613 553 656 500 656 c 4
 418 656 409 559 409 467 c 6
 409 362 l 6
 409 347 410 345 430 345 c 6
 578 345 l 6
 591 345 594 347 594 365 c 4xde
269 664 m 4xee
 308 664 350 645 375 614 c 4
 379 609 379 611 382 615 c 4
 412 653 458 678 520 678 c 4
 542 678 570 670 594 656 c 4xde
 604 650 607 649 621 651 c 4
 642 654 658 658 661 658 c 4
 668 658 668 655 668 643 c 4
 664 462 664 362 664 268 c 4
 664 238 664 25 668 25 c 6
 716 25 l 6
 728 25 729 21 729 12 c 4
 729 3 729 -2 716 -2 c 4
 697 -2 661 0 632 0 c 4
 607 0 574 -2 544 -2 c 4
 531 -2 531 1 531 12 c 4
 531 21 533 25 543 25 c 6
 590 25 l 6
 594 25 594 85 594 110 c 6
 594 302 l 6
 594 319 592 320 580 320 c 6
 430 320 l 6
 415 320 411 318 411 308 c 6
 411 109 l 6
 411 62 412 25 419 25 c 6
 469 25 l 6
 481 25 482 21 482 12 c 4
 482 3 482 -2 469 -2 c 4
 450 -2 412 0 383 0 c 4
 358 0 330 -2 300 -2 c 4
 287 -2 287 1 287 12 c 4
 287 21 289 25 299 25 c 6
 339 25 l 6
 343 25 345 55 345 88 c 4
 345 123 344 161 344 172 c 6
 344 310 l 6
 344 320 341 320 330 320 c 6
 176 320 l 6
 161 320 159 318 159 308 c 6
 159 169 l 6
 159 97 161 25 169 25 c 6
 225 25 l 6
 237 25 238 21 238 12 c 4
 238 3 238 -2 225 -2 c 4
 206 -2 158 0 129 0 c 4
 104 0 81 -2 51 -2 c 4
 38 -2 38 1 38 12 c 4
 38 21 40 25 50 25 c 6
 87 25 l 6
 90 25 91 55 91 88 c 4
 91 123 90 161 90 172 c 6
 90 232 l 6
 90 271 90 313 88 313 c 6
 53 313 l 6
 42 313 39 314 39 326 c 4
 39 338 41 339 50 339 c 6
 79 339 l 6
 88 339 89 340 89 351 c 4
 89 467 92 598 195 646 c 4
 220 658 245 664 269 664 c 4xee
346 565 m 4
 336 573 328 581 322 592 c 4
 308 616 292 641 257 641 c 4xee
 145 641 158 471 155 362 c 4
 155 347 156 345 176 345 c 6
 333 345 l 6
 342 345 343 345 343 360 c 4
 343 403 340 431 340 481 c 4
 340 506 343 531 350 554 c 4
 351 557 351 558 351 559 c 4
 351 561 350 562 346 565 c 4
EndSplineSet
LCarets2: 2 0 0 
EndChar

StartChar: f_j
Encoding: 65541 -1 81
Width: 506
VWidth: 0
Flags: W
HStem: -275 73<231.573 306.476> 0 25<35.006 89.6597 163.062 239.997> 347 25<41.0022 89.1846 158.002 341.952> 656 22<219.818 298.593>
VStem: 90 68<25 345.947 372 570.673> 331 59<555.874 634.439> 344 72<24.8396 347> 353 63<-181 201.017>
LayerCount: 3
Fore
SplineSet
404 378 m 0xfc
 411 378 411 370 411 355 c 0
 412 266 416 155 416 27 c 0xfa
 416 -80 409 -155 362 -216 c 0
 344 -239 267 -275 238 -275 c 0
 225 -275 219 -266 219 -255 c 0
 219 -233 245 -202 260 -202 c 0
 281 -202 305 -206 315 -206 c 0
 343 -206 353 -189 353 -173 c 0xf9
 353 -134 344 -41 344 258 c 0xfa
 344 282 344 307 342 334 c 0
 341 346 338 347 332 347 c 2
 175 347 l 2
 160 347 158 345 158 335 c 2
 158 169 l 2
 158 97 160 25 168 25 c 2
 227 25 l 2
 239 25 240 21 240 12 c 0
 240 3 240 -2 227 -2 c 0
 208 -2 160 0 131 0 c 0
 106 0 78 -2 48 -2 c 0
 35 -2 35 1 35 12 c 0
 35 21 37 25 47 25 c 2
 87 25 l 2
 90 25 91 55 91 88 c 0
 91 123 90 161 90 172 c 2
 90 252 l 2
 90 291 90 346 88 346 c 2
 55 346 l 2
 44 346 41 347 41 359 c 0
 41 371 43 372 52 372 c 2
 81 372 l 2
 89 372 90 372 90 380 c 0
 90 424 92 466 96 505 c 0
 107 616 174 678 263 678 c 0
 345 678 390 625 390 590 c 0xfc
 390 567 358 545 344 545 c 0xfa
 335 545 332 546 331 554 c 0
 325 644 295 656 258 656 c 0
 165 656 158 517 158 409 c 2
 158 385 l 2
 158 373 159 372 177 372 c 2
 294 372 l 2
 314 372 391 378 404 378 c 0xfc
EndSplineSet
LCarets2: 1 0 
EndChar

StartChar: f_f_j
Encoding: 65542 -1 82
Width: 760
VWidth: 0
Flags: W
HStem: -275 73<485.573 560.476> -2 27<38.0015 89.7331 164.062 237.999 289.001 343.733 417.062 483.999> 347 25<39.0022 88.988 159.153 343.185 412.002 595.952> 641 23<211.672 291.937> 656 22<474.028 552.593>
VStem: 90 69<25 345.947 372 553.856> 344 68<25 346.392 372 548.766> 585 59<555.874 634.439> 598 72<24.8396 347> 607 63<-181 201.017>
LayerCount: 3
Fore
SplineSet
586 347 m 2xee80
 429 347 l 2
 414 347 412 345 412 335 c 2
 412 169 l 2
 412 97 414 25 422 25 c 2
 471 25 l 2
 483 25 484 21 484 12 c 0
 484 3 484 -2 471 -2 c 0
 452 -2 414 0 385 0 c 0
 360 0 332 -2 302 -2 c 0
 289 -2 289 1 289 12 c 0
 289 21 291 25 301 25 c 2
 341 25 l 2
 344 25 345 55 345 88 c 0
 345 123 344 161 344 172 c 2
 344 252 l 2
 344 291 344 346 342 346 c 0
 330 346 310 347 300 347 c 2
 176 347 l 2
 161 347 159 345 159 335 c 2
 159 169 l 2
 159 97 161 25 169 25 c 2
 225 25 l 2
 237 25 238 21 238 12 c 0
 238 3 238 -2 225 -2 c 0
 206 -2 158 0 129 0 c 0
 104 0 81 -2 51 -2 c 0
 38 -2 38 1 38 12 c 0
 38 21 40 25 50 25 c 2
 87 25 l 2
 90 25 91 55 91 88 c 0
 91 123 90 161 90 172 c 2
 90 238 l 2
 90 277 90 346 88 346 c 2
 53 346 l 2
 42 346 39 347 39 359 c 0
 39 371 41 372 50 372 c 2
 79 372 l 2
 88 372 89 373 89 384 c 0
 89 477 92 598 195 646 c 0
 220 658 245 664 269 664 c 0xf680
 313 664 357 641 382 605 c 1
 412 652 460 678 517 678 c 0
 599 678 644 625 644 590 c 0xef
 644 567 612 545 598 545 c 0xee80
 589 545 586 546 585 554 c 0xef
 579 644 549 656 512 656 c 0
 419 656 412 517 412 409 c 2
 412 385 l 2
 412 373 413 372 431 372 c 2
 548 372 l 2
 568 372 645 378 658 378 c 0
 665 378 665 370 665 355 c 0
 666 266 670 155 670 27 c 0xee80
 670 -80 663 -155 616 -216 c 0
 598 -239 521 -275 492 -275 c 0
 479 -275 473 -266 473 -255 c 0
 473 -233 499 -202 514 -202 c 0
 535 -202 559 -206 569 -206 c 0
 597 -206 607 -189 607 -173 c 0xee40
 607 -134 598 -41 598 258 c 0
 598 282 598 307 596 334 c 0
 595 346 592 347 586 347 c 2xee80
349 559 m 0
 332 571 329 580 319 597 c 0
 306 620 289 641 257 641 c 0
 145 641 158 498 155 389 c 0
 155 374 156 372 176 372 c 2
 335 372 l 2
 343 372 344 372 344 380 c 0
 344 406 344 485 354 530 c 0
 356 539 358 544 358 549 c 0
 358 553 355 555 349 559 c 0
EndSplineSet
LCarets2: 2 0 0 
EndChar

StartChar: f_b
Encoding: 65543 -1 83
Width: 739
VWidth: 0
Flags: W
HStem: -13 27<428.885 550.386> 0 25<33.006 88.772 159.705 232.997> 347 25<39.0022 88.988 157.082 297.745> 357 29<447.694 538.241> 656 22<208.022 283.523>
VStem: 90 67<25 345.947 372 585.057> 338 69<25.7494 327.242> 341 68<65.6203 346.375 356.011 590.99> 637 72<97.1001 269.39>
LayerCount: 3
Fore
SplineSet
176 372 m 2xad80
 292 372 l 2
 296 372 299 370 299 367 c 0
 299 362 295 347 291 347 c 2
 176 347 l 2
 161 347 157 345 157 335 c 2
 157 109 l 2
 157 62 158 25 165 25 c 2
 220 25 l 2
 232 25 233 21 233 12 c 0
 233 3 233 -2 220 -2 c 0
 201 -2 158 0 129 0 c 0
 104 0 76 -2 46 -2 c 0
 33 -2 33 1 33 12 c 0
 33 21 35 25 45 25 c 2
 85 25 l 2
 89 25 91 55 91 88 c 0
 91 123 90 161 90 172 c 2
 90 232 l 2
 90 271 90 346 88 346 c 2
 53 346 l 2
 42 346 39 347 39 359 c 0
 39 371 41 372 50 372 c 2
 77 372 l 2
 86 372 89 373 89 384 c 0
 89 433 88 428 88 481 c 0
 88 585 144 678 266 678 c 0
 288 678 316 670 340 656 c 0
 350 650 353 649 367 651 c 0
 388 654 404 658 407 658 c 0x6e80
 414 658 414 655 414 643 c 0
 414 630 409 480 409 394 c 0x6d80
 409 371 409 356 410 356 c 0
 413 356 467 386 517 386 c 0
 630 386 709 297 709 188 c 0
 709 59 602 -13 488 -13 c 0
 452 -13 427 6 399 6 c 0
 379 6 361 -12 350 -12 c 0
 342 -12 338 -8 338 1 c 0x9e80
 338 7 341 130 341 197 c 0
 341 231 341 501 340 549 c 0
 340 567 332 571 325 582 c 0
 304 613 299 656 246 656 c 0
 164 656 155 559 155 467 c 2
 155 389 l 2
 155 374 156 372 176 372 c 2xad80
409 332 m 0x9d80
 409 231 407 97 407 64 c 0x9e80
 407 15 463 14 491 14 c 0
 585 14 637 98 637 187 c 0
 637 276 564 357 477 357 c 0
 443 357 409 337 409 332 c 0x9d80
EndSplineSet
Layer: 2
SplineSet
176 345 m 6xbd80
 292 345 l 6
 296 345 299 343 299 340 c 4
 299 335 295 320 291 320 c 6
 176 320 l 6
 161 320 157 318 157 308 c 6
 157 109 l 6
 157 62 158 25 165 25 c 6
 220 25 l 6
 232 25 233 21 233 12 c 4
 233 3 233 -2 220 -2 c 4
 201 -2 158 0 129 0 c 4
 104 0 76 -2 46 -2 c 4
 33 -2 33 1 33 12 c 4
 33 21 35 25 45 25 c 6
 85 25 l 6
 89 25 91 55 91 88 c 4
 91 123 90 161 90 172 c 6
 90 232 l 6
 90 271 90 313 88 313 c 6
 53 313 l 6
 42 313 39 314 39 326 c 4
 39 338 41 339 50 339 c 6
 77 339 l 6
 86 339 89 340 89 351 c 4
 89 400 86 428 86 481 c 4
 86 585 144 678 266 678 c 4
 288 678 316 670 340 656 c 4
 350 650 353 649 367 651 c 4
 388 654 404 658 407 658 c 4x7e80
 414 658 414 655 414 643 c 4
 414 630 409 480 409 394 c 4x7d80
 409 371 409 356 410 356 c 4
 413 356 467 386 517 386 c 4
 630 386 709 297 709 188 c 4
 709 59 602 -13 488 -13 c 4
 452 -13 427 6 399 6 c 4
 379 6 361 -12 350 -12 c 4
 342 -12 338 -8 338 1 c 4xbe80
 338 7 341 130 341 197 c 4
 341 231 341 501 340 549 c 4
 340 567 332 571 325 582 c 4
 304 613 299 656 246 656 c 4
 164 656 155 559 155 467 c 6
 155 362 l 6
 155 347 156 345 176 345 c 6xbd80
409 332 m 4xbd80
 409 231 407 97 407 64 c 4xbe80
 407 15 463 14 491 14 c 4
 585 14 637 98 637 187 c 4
 637 276 564 357 477 357 c 4
 443 357 409 337 409 332 c 4xbd80
EndSplineSet
LCarets2: 1 0 
EndChar

StartChar: f_h
Encoding: 65544 -1 84
Width: 755
VWidth: 0
Flags: W
HStem: -2 27<33.0015 88.8848 159.546 232.999 279.001 339.987 412.264 473.999 546.002 609.094 679 729.997> 344 41<465.011 570.27> 347 25<39.0022 88.988 157.082 297.745> 656 22<208.022 283.523>
VStem: 90 67<25 345.947 372 585.057> 341 69<25 325.829 349.916 590.99> 611 68<25 300.413>
AnchorPoint: "top" 441 780 basechar 0
LayerCount: 3
Fore
SplineSet
340 549 m 0xde
 340 567 332 571 325 582 c 0
 304 613 299 656 246 656 c 0
 164 656 155 559 155 467 c 2
 155 389 l 2
 155 374 156 372 176 372 c 2
 292 372 l 2
 296 372 299 370 299 367 c 0
 299 362 295 347 291 347 c 2
 176 347 l 2
 161 347 157 345 157 335 c 2
 157 109 l 2
 157 62 158 25 165 25 c 2
 220 25 l 2
 232 25 233 21 233 12 c 0
 233 3 233 -2 220 -2 c 0
 201 -2 158 0 129 0 c 0
 104 0 76 -2 46 -2 c 0
 33 -2 33 1 33 12 c 0
 33 21 35 25 45 25 c 2
 85 25 l 2
 89 25 91 55 91 88 c 0
 91 123 90 161 90 172 c 2
 90 232 l 2
 90 271 90 346 88 346 c 2
 53 346 l 2
 42 346 39 347 39 359 c 0
 39 371 41 372 50 372 c 2
 77 372 l 2xbe
 86 372 89 373 89 384 c 0
 89 433 88 428 88 481 c 0
 88 585 144 678 266 678 c 0
 288 678 316 670 340 656 c 0
 350 650 353 649 367 651 c 0
 388 654 404 658 407 658 c 0
 414 658 414 655 414 643 c 0
 410 560 410 442 410 354 c 0
 410 337 411 339 421 345 c 0
 452 362 512 385 554 385 c 0
 666 385 679 288 679 180 c 2
 679 37 l 2
 679 26 680 25 690 25 c 2
 716 25 l 2
 728 25 730 21 730 12 c 0
 730 3 729 -2 716 -2 c 0
 697 -2 674 0 645 0 c 0
 620 0 589 -2 559 -2 c 0
 546 -2 546 1 546 12 c 0
 546 21 549 25 559 25 c 2
 598 25 l 2
 608 25 608 25 609 36 c 0
 610 56 611 106 611 212 c 0
 611 284 583 344 515 344 c 0
 475 344 446 333 426 323 c 0
 412 316 410 312 410 308 c 2
 411 158 l 2
 411 117 411 69 412 43 c 0
 413 25 413 25 423 25 c 2
 461 25 l 2
 473 25 474 21 474 12 c 0
 474 3 474 -2 461 -2 c 0
 442 -2 407 0 378 0 c 0
 353 0 322 -2 292 -2 c 0
 279 -2 279 1 279 12 c 0
 279 21 281 25 291 25 c 2
 330 25 l 2
 340 25 340 28 340 43 c 0
 341 137 341 191 341 263 c 0
 341 381 341 501 340 549 c 0xde
EndSplineSet
LCarets2: 1 0 
EndChar

StartChar: f_k
Encoding: 65545 -1 85
Width: 705
VWidth: 0
Flags: W
HStem: -2 27<33.0015 88.8848 159.546 232.999 278.001 340.987 405.033 451.999 534.001 557 650.003 694.999> 193 16<405.245 444.383> 347 25<39.0022 88.988 157.082 297.745> 360 27<508.003 547.733 591.694 649.994> 656 22<208.022 283.523>
VStem: 90 67<25 345.947 372 585.057> 340 74<314 592.531> 341 64<25 193 209 549>
LayerCount: 3
Fore
SplineSet
340 549 m 0xde
 340 567 332 571 325 582 c 0
 304 613 299 656 246 656 c 0
 164 656 155 559 155 467 c 2
 155 389 l 2
 155 374 156 372 176 372 c 2
 292 372 l 2
 296 372 299 370 299 367 c 0
 299 362 295 347 291 347 c 2
 176 347 l 2
 161 347 157 345 157 335 c 2
 157 109 l 2
 157 62 158 25 165 25 c 2
 220 25 l 2
 232 25 233 21 233 12 c 0
 233 3 233 -2 220 -2 c 0
 201 -2 158 0 129 0 c 0
 104 0 76 -2 46 -2 c 0
 33 -2 33 1 33 12 c 0
 33 21 35 25 45 25 c 2
 85 25 l 2
 89 25 91 55 91 88 c 0
 91 123 90 161 90 172 c 2
 90 232 l 2
 90 271 90 346 88 346 c 2
 53 346 l 2
 42 346 39 347 39 359 c 0
 39 371 41 372 50 372 c 2
 77 372 l 2
 86 372 89 373 89 384 c 0
 89 433 88 428 88 481 c 0
 88 585 144 678 266 678 c 0
 288 678 316 670 340 656 c 0
 350 650 353 649 367 651 c 0
 388 654 404 658 407 658 c 0
 414 658 414 655 414 643 c 2xee
 405 220 l 2
 405 210 406 209 421 209 c 2
 443 209 l 2
 458 209 465 222 472 231 c 0
 500 268 528 306 551 344 c 0
 558 356 561 360 541 360 c 2
 521 360 l 2
 509 360 508 364 508 373 c 0
 508 382 509 387 522 387 c 0
 532 387 559 385 580 385 c 0
 599 385 622 387 637 387 c 0
 647 387 650 384 650 373 c 0
 650 364 648 360 638 360 c 2
 606 360 l 2
 598 360 517 260 499 237 c 0
 487 222 487 227 499 213 c 2
 650 38 l 2
 660 26 663 25 672 25 c 2
 682 25 l 2
 694 25 695 21 695 12 c 0
 695 3 695 -2 682 -2 c 0
 668 -2 640 0 615 0 c 0
 590 0 561 -2 547 -2 c 0
 534 -2 534 1 534 12 c 0
 534 21 536 25 546 25 c 2
 557 25 l 2
 572 25 567 34 562 40 c 2
 452 176 l 2
 440 191 440 193 430 193 c 2
 416 193 l 2
 405 193 405 189 405 177 c 2
 405 43 l 2
 405 25 406 25 416 25 c 2
 439 25 l 2
 451 25 452 21 452 12 c 0
 452 3 452 -2 439 -2 c 0
 420 -2 400 0 371 0 c 0
 338 0 302 -2 291 -2 c 0
 278 -2 278 1 278 12 c 0
 278 21 280 25 290 25 c 2
 331 25 l 2
 341 25 341 28 341 43 c 2
 341 236 l 2xdd
 341 435 341 501 340 549 c 0xde
EndSplineSet
LCarets2: 1 0 
EndChar

StartChar: f_f_b
Encoding: 65546 -1 86
Width: 992
VWidth: 0
Flags: W
HStem: -13 27<681.885 803.386> -2 27<38.0015 89.7331 164.062 237.999 287.001 342.885 413.546 481.999> 347 25<39.0022 88.988 159.25 342.969 411.082 551.745> 357 29<700.694 791.241> 641 23<214.078 291.775> 656 22<460.254 537.523>
VStem: 90 69<25 345.947 372 548.917> 344 67<25 347 372 558.953> 594 68<98.7526 346.375 356.011 592.531> 890 72<97.1001 269.39>
LayerCount: 3
Fore
SplineSet
662 394 m 0x07c0
 662 371 662 356 663 356 c 0
 666 356 720 386 770 386 c 0
 883 386 962 297 962 188 c 0
 962 59 855 -13 741 -13 c 0
 705 -13 680 6 652 6 c 0
 632 6 614 -12 603 -12 c 0
 595 -12 591 -8 591 1 c 0
 591 7 594 130 594 197 c 0
 594 231 593 501 592 549 c 0
 592 567 586 571 579 582 c 0
 558 613 553 656 500 656 c 0x97c0
 418 656 409 559 409 467 c 2
 409 389 l 2
 409 374 410 372 430 372 c 2
 546 372 l 2
 550 372 553 370 553 367 c 0
 553 362 549 347 545 347 c 2
 430 347 l 2
 415 347 411 345 411 335 c 2
 411 109 l 2
 411 62 412 25 419 25 c 2
 469 25 l 2
 481 25 482 21 482 12 c 0
 482 3 482 -2 469 -2 c 0
 450 -2 412 0 383 0 c 0
 358 0 330 -2 300 -2 c 0
 287 -2 287 1 287 12 c 0
 287 21 289 25 299 25 c 2
 339 25 l 2
 343 25 345 55 345 88 c 0
 345 123 344 161 344 172 c 2
 344 337 l 2
 344 347 341 347 330 347 c 2
 176 347 l 2
 161 347 159 345 159 335 c 2
 159 169 l 2
 159 97 161 25 169 25 c 2
 225 25 l 2
 237 25 238 21 238 12 c 0
 238 3 238 -2 225 -2 c 0
 206 -2 158 0 129 0 c 0
 104 0 81 -2 51 -2 c 0
 38 -2 38 1 38 12 c 0
 38 21 40 25 50 25 c 2
 87 25 l 2
 90 25 91 55 91 88 c 0
 91 123 90 161 90 172 c 2
 90 232 l 2
 90 271 90 346 88 346 c 2
 53 346 l 2
 42 346 39 347 39 359 c 0
 39 371 41 372 50 372 c 2
 79 372 l 2
 88 372 89 373 89 384 c 0
 89 461 92 598 195 646 c 0
 220 658 245 664 269 664 c 0x6bc0
 308 664 350 645 375 614 c 0
 379 609 379 611 382 615 c 0
 412 653 458 678 520 678 c 0
 542 678 570 670 594 656 c 0
 604 650 607 649 621 651 c 0
 642 654 658 658 661 658 c 0
 668 658 668 655 668 643 c 0
 668 622 662 468 662 394 c 0x07c0
662 332 m 0
 662 231 660 97 660 64 c 0
 660 15 716 14 744 14 c 0
 838 14 890 98 890 187 c 0
 890 276 817 357 730 357 c 0
 696 357 662 337 662 332 c 0
346 565 m 0
 336 573 328 581 322 592 c 0
 308 616 292 641 257 641 c 0
 159 641 156 506 156 419 c 2
 156 384 l 2
 156 373 158 372 176 372 c 2
 333 372 l 2x2bc0
 342 372 343 372 343 387 c 0
 343 430 342 431 342 481 c 0
 342 506 343 531 350 554 c 0
 351 557 351 558 351 559 c 0
 351 561 350 562 346 565 c 0
EndSplineSet
Layer: 2
SplineSet
662 394 m 4x37c0
 662 371 662 356 663 356 c 4
 666 356 720 386 770 386 c 4
 883 386 962 297 962 188 c 4
 962 59 855 -13 741 -13 c 4
 705 -13 680 6 652 6 c 4
 632 6 614 -12 603 -12 c 4
 595 -12 591 -8 591 1 c 4
 591 7 594 130 594 197 c 4
 594 231 593 501 592 549 c 4
 592 567 586 571 579 582 c 4
 558 613 553 656 500 656 c 4xb7c0
 418 656 409 559 409 467 c 6
 409 362 l 6
 409 347 410 345 430 345 c 6
 546 345 l 6
 550 345 553 343 553 340 c 4
 553 335 549 320 545 320 c 6
 430 320 l 6
 415 320 411 318 411 308 c 6
 411 109 l 6
 411 62 412 25 419 25 c 6
 469 25 l 6
 481 25 482 21 482 12 c 4
 482 3 482 -2 469 -2 c 4
 450 -2 412 0 383 0 c 4
 358 0 330 -2 300 -2 c 4
 287 -2 287 1 287 12 c 4
 287 21 289 25 299 25 c 6
 339 25 l 6
 343 25 345 55 345 88 c 4
 345 123 344 161 344 172 c 6
 344 310 l 6
 344 320 341 320 330 320 c 6
 176 320 l 6
 161 320 159 318 159 308 c 6
 159 169 l 6
 159 97 161 25 169 25 c 6
 225 25 l 6
 237 25 238 21 238 12 c 4
 238 3 238 -2 225 -2 c 4
 206 -2 158 0 129 0 c 4
 104 0 81 -2 51 -2 c 4
 38 -2 38 1 38 12 c 4
 38 21 40 25 50 25 c 6
 87 25 l 6
 90 25 91 55 91 88 c 4
 91 123 90 161 90 172 c 6
 90 232 l 6
 90 271 90 313 88 313 c 6
 53 313 l 6
 42 313 39 314 39 326 c 4
 39 338 41 339 50 339 c 6
 79 339 l 6
 88 339 89 340 89 351 c 4
 89 467 92 598 195 646 c 4
 220 658 245 664 269 664 c 4x7bc0
 308 664 350 645 375 614 c 4
 379 609 379 611 382 615 c 4
 412 653 458 678 520 678 c 4
 542 678 570 670 594 656 c 4
 604 650 607 649 621 651 c 4
 642 654 658 658 661 658 c 4
 668 658 668 655 668 643 c 4
 668 622 662 468 662 394 c 4x37c0
662 332 m 4
 662 231 660 97 660 64 c 4
 660 15 716 14 744 14 c 4
 838 14 890 98 890 187 c 4
 890 276 817 357 730 357 c 4
 696 357 662 337 662 332 c 4
346 565 m 4
 336 573 328 581 322 592 c 4
 308 616 292 641 257 641 c 4x3bc0
 145 641 158 471 155 362 c 4
 155 347 156 345 176 345 c 6
 333 345 l 6
 342 345 343 345 343 360 c 4
 343 403 340 431 340 481 c 4
 340 506 343 531 350 554 c 4
 351 557 351 558 351 559 c 4
 351 561 350 562 346 565 c 4
EndSplineSet
LCarets2: 2 0 0 
EndChar

StartChar: f_f_h
Encoding: 65547 -1 87
Width: 1008
VWidth: 0
Flags: W
HStem: -2 27<38.0015 89.7331 164.062 237.999 287.001 342.885 413.546 481.999 532.001 592.987 665.264 726.999 799.002 862.094 932 982.997> 344 41<718.011 823.27> 347 25<39.0022 88.988 159.25 342.969 411.082 551.745> 641 23<214.431 291.775> 656 22<460.254 537.523>
VStem: 90 69<25 345.947 372 548.3> 344 67<25 347 372 558.953> 594 69<25 325.829 349.916 592.531> 864 68<25 300.413>
AnchorPoint: "top" 694 780 basechar 0
LayerCount: 3
Fore
SplineSet
592 549 m 0xcf80
 592 567 586 571 579 582 c 0
 558 613 553 656 500 656 c 0xcf80
 418 656 409 559 409 467 c 2
 409 389 l 2
 409 374 410 372 430 372 c 2
 546 372 l 2
 550 372 553 370 553 367 c 0
 553 362 549 347 545 347 c 2
 430 347 l 2
 415 347 411 345 411 335 c 2
 411 109 l 2
 411 62 412 25 419 25 c 2
 469 25 l 2
 481 25 482 21 482 12 c 0
 482 3 482 -2 469 -2 c 0
 450 -2 412 0 383 0 c 0
 358 0 330 -2 300 -2 c 0
 287 -2 287 1 287 12 c 0
 287 21 289 25 299 25 c 2
 339 25 l 2
 343 25 345 55 345 88 c 0
 345 123 344 161 344 172 c 2
 344 337 l 2
 344 347 341 347 330 347 c 2
 176 347 l 2
 161 347 159 345 159 335 c 2
 159 169 l 2
 159 97 161 25 169 25 c 2
 225 25 l 2
 237 25 238 21 238 12 c 0
 238 3 238 -2 225 -2 c 0
 206 -2 158 0 129 0 c 0
 104 0 81 -2 51 -2 c 0
 38 -2 38 1 38 12 c 0
 38 21 40 25 50 25 c 2
 87 25 l 2
 90 25 91 55 91 88 c 0
 91 123 90 161 90 172 c 2
 90 232 l 2
 90 271 90 346 88 346 c 2
 53 346 l 2
 42 346 39 347 39 359 c 0
 39 371 41 372 50 372 c 2
 79 372 l 2
 88 372 89 373 89 384 c 0
 89 459 92 598 195 646 c 0
 220 658 245 664 269 664 c 0xb780
 308 664 350 645 375 614 c 0
 379 609 379 611 382 615 c 0
 412 653 458 678 520 678 c 0
 542 678 570 670 594 656 c 0
 604 650 607 649 621 651 c 0
 642 654 658 658 661 658 c 0
 668 658 668 655 668 643 c 0
 664 560 663 442 663 354 c 0
 663 337 664 339 674 345 c 0
 705 362 765 385 807 385 c 0
 919 385 932 288 932 180 c 2
 932 37 l 2
 932 26 933 25 943 25 c 2
 969 25 l 2
 981 25 983 21 983 12 c 0
 983 3 982 -2 969 -2 c 0
 950 -2 927 0 898 0 c 0
 873 0 842 -2 812 -2 c 0
 799 -2 799 1 799 12 c 0
 799 21 802 25 812 25 c 2
 851 25 l 2
 861 25 861 25 862 36 c 0
 863 56 864 106 864 212 c 0
 864 284 836 344 768 344 c 0
 728 344 699 333 679 323 c 0
 665 316 663 312 663 308 c 2
 664 158 l 2
 664 117 664 69 665 43 c 0
 666 25 666 25 676 25 c 2
 714 25 l 2
 726 25 727 21 727 12 c 0
 727 3 727 -2 714 -2 c 0
 695 -2 660 0 631 0 c 0
 606 0 575 -2 545 -2 c 0
 532 -2 532 1 532 12 c 0
 532 21 534 25 544 25 c 2
 583 25 l 2
 593 25 593 28 593 43 c 0
 594 137 594 191 594 263 c 0
 594 381 593 501 592 549 c 0xcf80
346 565 m 0
 336 573 328 581 322 592 c 0
 308 616 292 641 257 641 c 0
 161 641 156 513 156 422 c 2
 156 385 l 2xd780
 156 374 158 372 176 372 c 2
 333 372 l 2xa780
 342 372 343 372 343 387 c 0
 343 430 342 431 342 481 c 0
 342 506 343 531 350 554 c 0
 351 557 351 558 351 559 c 0
 351 561 350 562 346 565 c 0
EndSplineSet
Layer: 2
SplineSet
592 549 m 4xa780
 592 567 586 571 579 582 c 4
 558 613 553 656 500 656 c 4xaf80
 418 656 409 559 409 467 c 6
 409 362 l 6
 409 347 410 345 430 345 c 6
 546 345 l 6
 550 345 553 343 553 340 c 4
 553 335 549 320 545 320 c 6
 430 320 l 6
 415 320 411 318 411 308 c 6
 411 109 l 6
 411 62 412 25 419 25 c 6
 469 25 l 6
 481 25 482 21 482 12 c 4
 482 3 482 -2 469 -2 c 4
 450 -2 412 0 383 0 c 4
 358 0 330 -2 300 -2 c 4
 287 -2 287 1 287 12 c 4
 287 21 289 25 299 25 c 6
 339 25 l 6
 343 25 345 55 345 88 c 4
 345 123 344 161 344 172 c 6
 344 310 l 6
 344 320 341 320 330 320 c 6
 176 320 l 6
 161 320 159 318 159 308 c 6
 159 169 l 6
 159 97 161 25 169 25 c 6
 225 25 l 6
 237 25 238 21 238 12 c 4
 238 3 238 -2 225 -2 c 4
 206 -2 158 0 129 0 c 4
 104 0 81 -2 51 -2 c 4
 38 -2 38 1 38 12 c 4
 38 21 40 25 50 25 c 6
 87 25 l 6
 90 25 91 55 91 88 c 4
 91 123 90 161 90 172 c 6
 90 232 l 6
 90 271 90 313 88 313 c 6
 53 313 l 6
 42 313 39 314 39 326 c 4
 39 338 41 339 50 339 c 6
 79 339 l 6
 88 339 89 340 89 351 c 4
 89 467 92 598 195 646 c 4
 220 658 245 664 269 664 c 4xd780
 308 664 350 645 375 614 c 4
 379 609 379 611 382 615 c 4
 412 653 458 678 520 678 c 4
 542 678 570 670 594 656 c 4
 604 650 607 649 621 651 c 4
 642 654 658 658 661 658 c 4
 668 658 668 655 668 643 c 4
 664 560 663 442 663 354 c 4
 663 337 664 339 674 345 c 4xcf80
 705 362 765 385 807 385 c 4
 919 385 932 288 932 180 c 6
 932 37 l 6
 932 26 933 25 943 25 c 6
 969 25 l 6
 981 25 983 21 983 12 c 4
 983 3 982 -2 969 -2 c 4
 950 -2 927 0 898 0 c 4
 873 0 842 -2 812 -2 c 4
 799 -2 799 1 799 12 c 4
 799 21 802 25 812 25 c 6
 851 25 l 6
 861 25 861 25 862 36 c 4
 863 56 864 106 864 212 c 4
 864 284 836 344 768 344 c 4
 728 344 699 333 679 323 c 4
 665 316 663 312 663 308 c 6
 664 158 l 6
 664 117 664 69 665 43 c 4
 666 25 666 25 676 25 c 6
 714 25 l 6
 726 25 727 21 727 12 c 4
 727 3 727 -2 714 -2 c 4
 695 -2 660 0 631 0 c 4
 606 0 575 -2 545 -2 c 4
 532 -2 532 1 532 12 c 4
 532 21 534 25 544 25 c 6
 583 25 l 6
 593 25 593 28 593 43 c 4
 594 137 594 191 594 263 c 4
 594 381 593 501 592 549 c 4xa780
346 565 m 4
 336 573 328 581 322 592 c 4
 308 616 292 641 257 641 c 4
 145 641 158 471 155 362 c 4
 155 347 156 345 176 345 c 6
 333 345 l 6xd780
 342 345 343 345 343 360 c 4
 343 403 340 431 340 481 c 4
 340 506 343 531 350 554 c 4
 351 557 351 558 351 559 c 4
 351 561 350 562 346 565 c 4
EndSplineSet
LCarets2: 2 0 0 
EndChar

StartChar: f_f_k
Encoding: 65548 -1 88
Width: 957
VWidth: 0
Flags: W
HStem: -2 27<38.0015 89.7331 164.062 237.999 287.001 342.885 413.546 481.999 530.001 592.987 657.033 703.999 786.001 809 902.003 946.999> 193 16<657.245 696.383> 347 25<39.0022 88.988 159.128 342.969 411.082 551.745> 360 27<760.003 799.733 843.694 901.994> 641 23<215.786 291.775> 656 22<460.254 537.523>
VStem: 90 69<25 345.947 372 548.609> 344 67<25 347 372 558.953> 592 76<404.344 597.2> 593 64<25 193 209 442.968>
LayerCount: 3
Fore
SplineSet
592 549 m 0xd780
 592 567 586 571 579 582 c 0
 558 613 553 656 500 656 c 0xd780
 418 656 409 559 409 467 c 2
 409 389 l 2
 409 374 410 372 430 372 c 2
 546 372 l 2
 550 372 553 370 553 367 c 0
 553 362 549 347 545 347 c 2
 430 347 l 2
 415 347 411 345 411 335 c 2
 411 109 l 2
 411 62 412 25 419 25 c 2
 469 25 l 2
 481 25 482 21 482 12 c 0
 482 3 482 -2 469 -2 c 0
 450 -2 412 0 383 0 c 0
 358 0 330 -2 300 -2 c 0
 287 -2 287 1 287 12 c 0
 287 21 289 25 299 25 c 2
 339 25 l 2
 343 25 345 55 345 88 c 0
 345 123 344 161 344 172 c 2
 344 337 l 2
 344 347 341 347 330 347 c 2
 176 347 l 2
 161 347 159 345 159 335 c 2
 159 169 l 2
 159 97 161 25 169 25 c 2
 225 25 l 2
 237 25 238 21 238 12 c 0
 238 3 238 -2 225 -2 c 0
 206 -2 158 0 129 0 c 0
 104 0 81 -2 51 -2 c 0
 38 -2 38 1 38 12 c 0
 38 21 40 25 50 25 c 2
 87 25 l 2
 90 25 91 55 91 88 c 0
 91 123 90 161 90 172 c 2
 90 232 l 2
 90 271 90 346 88 346 c 2
 53 346 l 2
 42 346 39 347 39 359 c 0
 39 371 41 372 50 372 c 2
 79 372 l 2
 88 372 89 373 89 384 c 0
 89 460 92 598 195 646 c 0
 220 658 245 664 269 664 c 0xeb80
 308 664 350 645 375 614 c 0
 379 609 379 611 382 615 c 0
 412 653 458 678 520 678 c 0
 542 678 570 670 594 656 c 0
 604 650 607 649 621 651 c 0
 642 654 658 658 661 658 c 0
 668 658 668 655 668 643 c 0xc780
 668 622 657 220 657 220 c 2xc740
 657 210 658 209 673 209 c 2
 695 209 l 2
 710 209 717 222 724 231 c 0
 752 268 780 306 803 344 c 0
 810 356 813 360 793 360 c 2
 773 360 l 2
 761 360 760 364 760 373 c 0
 760 382 761 387 774 387 c 0
 784 387 811 385 832 385 c 0
 851 385 874 387 889 387 c 0
 899 387 902 384 902 373 c 0
 902 364 900 360 890 360 c 2
 858 360 l 2
 850 360 769 260 751 237 c 0
 739 222 739 227 751 213 c 2
 902 38 l 2
 912 26 915 25 924 25 c 2
 934 25 l 2
 946 25 947 21 947 12 c 0
 947 3 947 -2 934 -2 c 0
 920 -2 892 0 867 0 c 0
 842 0 813 -2 799 -2 c 0
 786 -2 786 1 786 12 c 0
 786 21 788 25 798 25 c 2
 809 25 l 2
 824 25 819 34 814 40 c 2
 704 176 l 2
 692 191 692 193 682 193 c 2
 668 193 l 2xd780
 657 193 657 189 657 177 c 2
 657 43 l 2xd740
 657 25 658 25 668 25 c 2xd780
 691 25 l 2
 703 25 704 21 704 12 c 0
 704 3 704 -2 691 -2 c 0
 672 -2 652 0 623 0 c 0
 590 0 554 -2 543 -2 c 0
 530 -2 530 1 530 12 c 0
 530 21 532 25 542 25 c 2
 583 25 l 2
 593 25 593 28 593 43 c 2
 593 236 l 2xd740
 593 435 593 501 592 549 c 0xd780
346 565 m 0
 336 573 328 581 322 592 c 0
 308 616 292 641 257 641 c 0
 156 641 156 496 156 416 c 2
 156 387 l 2xdb
 156 374 157 372 176 372 c 2
 333 372 l 2xe3
 342 372 343 372 343 387 c 0
 343 430 340 431 340 481 c 0
 340 506 343 531 350 554 c 0
 351 557 351 558 351 559 c 0
 351 561 350 562 346 565 c 0
EndSplineSet
Layer: 2
SplineSet
592 549 m 4xf780
 592 567 586 571 579 582 c 4
 558 613 553 656 500 656 c 4xf780
 418 656 409 559 409 467 c 6
 409 362 l 6
 409 347 410 345 430 345 c 6
 546 345 l 6
 550 345 553 343 553 340 c 4
 553 335 549 320 545 320 c 6
 430 320 l 6
 415 320 411 318 411 308 c 6
 411 109 l 6
 411 62 412 25 419 25 c 6
 469 25 l 6
 481 25 482 21 482 12 c 4
 482 3 482 -2 469 -2 c 4
 450 -2 412 0 383 0 c 4
 358 0 330 -2 300 -2 c 4
 287 -2 287 1 287 12 c 4
 287 21 289 25 299 25 c 6
 339 25 l 6
 343 25 345 55 345 88 c 4
 345 123 344 161 344 172 c 6
 344 310 l 6
 344 320 341 320 330 320 c 6
 176 320 l 6
 161 320 159 318 159 308 c 6
 159 169 l 6
 159 97 161 25 169 25 c 6
 225 25 l 6
 237 25 238 21 238 12 c 4
 238 3 238 -2 225 -2 c 4
 206 -2 158 0 129 0 c 4
 104 0 81 -2 51 -2 c 4
 38 -2 38 1 38 12 c 4
 38 21 40 25 50 25 c 6
 87 25 l 6
 90 25 91 55 91 88 c 4
 91 123 90 161 90 172 c 6
 90 232 l 6
 90 271 90 313 88 313 c 6
 53 313 l 6
 42 313 39 314 39 326 c 4
 39 338 41 339 50 339 c 6
 79 339 l 6
 88 339 89 340 89 351 c 4
 89 467 92 598 195 646 c 4
 220 658 245 664 269 664 c 4xfb80
 308 664 350 645 375 614 c 4
 379 609 379 611 382 615 c 4
 412 653 458 678 520 678 c 4
 542 678 570 670 594 656 c 4
 604 650 607 649 621 651 c 4
 642 654 658 658 661 658 c 4
 668 658 668 655 668 643 c 4xf780
 668 622 657 220 657 220 c 6xf740
 657 210 658 209 673 209 c 6
 695 209 l 6
 710 209 717 222 724 231 c 4
 752 268 780 306 803 344 c 4
 810 356 813 360 793 360 c 6
 773 360 l 6
 761 360 760 364 760 373 c 4
 760 382 761 387 774 387 c 4
 784 387 811 385 832 385 c 4
 851 385 874 387 889 387 c 4
 899 387 902 384 902 373 c 4
 902 364 900 360 890 360 c 6
 858 360 l 6
 850 360 769 260 751 237 c 4
 739 222 739 227 751 213 c 6
 902 38 l 6
 912 26 915 25 924 25 c 6
 934 25 l 6
 946 25 947 21 947 12 c 4
 947 3 947 -2 934 -2 c 4
 920 -2 892 0 867 0 c 4
 842 0 813 -2 799 -2 c 4
 786 -2 786 1 786 12 c 4
 786 21 788 25 798 25 c 6
 809 25 l 6
 824 25 819 34 814 40 c 6
 704 176 l 6
 692 191 692 193 682 193 c 6
 668 193 l 6xf780
 657 193 657 189 657 177 c 6
 657 43 l 6xf740
 657 25 658 25 668 25 c 6xf780
 691 25 l 6
 703 25 704 21 704 12 c 4
 704 3 704 -2 691 -2 c 4
 672 -2 652 0 623 0 c 4
 590 0 554 -2 543 -2 c 4
 530 -2 530 1 530 12 c 4
 530 21 532 25 542 25 c 6
 583 25 l 6
 593 25 593 28 593 43 c 6
 593 236 l 6xf740
 593 435 593 501 592 549 c 4xf780
346 565 m 4
 336 573 328 581 322 592 c 4
 308 616 292 641 257 641 c 4xfb
 145 641 158 471 155 362 c 4
 155 347 156 345 176 345 c 6
 333 345 l 6
 342 345 343 345 343 360 c 4
 343 403 340 431 340 481 c 4
 340 506 343 531 350 554 c 4
 351 557 351 558 351 559 c 4
 351 561 350 562 346 565 c 4
EndSplineSet
LCarets2: 2 0 0 
EndChar

StartChar: bracketleft
Encoding: 91 91 89
Width: 296
VWidth: 0
Flags: W
HStem: -141 36<125 256> 654 36<125 256>
VStem: 80 45<-105 654>
LayerCount: 3
Fore
SplineSet
93 -141 m 2
 81 -141 80 -140 80 -126 c 2
 80 675 l 2
 80 686 81 690 92 690 c 2
 243 690 l 2
 255 690 256 689 256 681 c 2
 256 667 l 2
 256 654 254 654 243 654 c 2
 138 654 l 2
 125 654 125 652 125 642 c 2
 125 -93 l 2
 125 -103 125 -105 138 -105 c 2
 243 -105 l 2
 254 -105 256 -105 256 -118 c 2
 256 -130 l 2
 256 -138 255 -141 243 -141 c 2
 93 -141 l 2
EndSplineSet
EndChar

StartChar: dagger
Encoding: 8224 8224 90
Width: 463
VWidth: 0
Flags: W
HStem: 390 66<27.5708 181.122 302.519 435.57> 414 23<149.708 210.387 259.263 331.625> 656 20G<218 245.5>
VStem: 191 81<509.182 670.748> 199 69<120.244 397.157> 211 47<353.474 413.839> 218 40<-227 -24.2897> 223 26<439.947 517.939>
LayerCount: 3
Fore
SplineSet
241 -227 m 2xa2
 235 -227 l 2
 226 -227 218 -225 218 -217 c 0xa2
 218 251 199 339 199 353 c 0xa8
 199 358 211 388 211 398 c 0
 211 407 205 414 196 414 c 0x64
 176 414 127 390 77 390 c 0
 51 390 25 397 25 423 c 0
 25 448 54 456 77 456 c 0xa4
 130 456 154 437 199 437 c 0x68
 211 437 223 447 223 459 c 0x61
 223 470 191 594 191 627 c 0
 191 650 205 676 231 676 c 0
 260 676 272 648 272 628 c 0x70
 272 585 249 473 249 454 c 0x61
 249 443 263 434 274 434 c 0
 313 434 361 456 388 456 c 0
 421 456 438 442 438 423 c 0
 438 398 414 390 390 390 c 0
 358 390 303 416 280 416 c 0
 270 416 258 408 258 398 c 0xa4
 258 380 268 363 268 353 c 0xa8
 268 337 258 253 258 -217 c 0
 258 -225 250 -227 241 -227 c 2xa2
EndSplineSet
EndChar

StartChar: daggerdbl
Encoding: 8225 8225 91
Width: 401
VWidth: 0
Flags: W
HStem: -62 52<25.3675 161.13 229.774 375.575> -47 18<117.389 177.872 217.594 268.927> 466 52<25.4251 171.226 239.87 375.633> 485 18<132.073 183.406 223.128 283.611> 651 20G<189.5 211.5>
VStem: 170 61<-218.495 -76.8191 -15.351 205.982 305.206 471.351 532.358 669.495> 179 38<-28.9375 9.62788 446.372 484.938> 186 21<-109.768 -49.1606 87.0175 211.471> 194 21<109.837 211.156 253.041 380.629 505.161 563.616>
LayerCount: 3
Fore
SplineSet
209 206 m 0x8a
 209 147 225 21 225 10 c 0
 225 6 217 -8 217 -16 c 0
 217 -23 222 -29 229 -29 c 0x4a
 245 -29 294 -10 334 -10 c 0
 355 -10 376 -15 376 -36 c 0
 376 -56 352 -62 334 -62 c 0x8a
 292 -62 262 -47 226 -47 c 0
 216 -47 207 -55 207 -65 c 0x49
 207 -74 231 -155 231 -181 c 0
 231 -199 222 -220 201 -220 c 0
 178 -220 170 -198 170 -182 c 0x4c
 170 -148 186 -76 186 -61 c 0x49
 186 -52 175 -45 166 -45 c 0
 135 -45 87 -62 65 -62 c 0
 39 -62 25 -51 25 -36 c 0
 25 -16 45 -10 64 -10 c 0
 90 -10 144 -30 162 -30 c 0
 170 -30 179 -24 179 -16 c 0
 179 -2 172 2 172 10 c 0
 172 23 191 147 191 206 c 0
 191 210 196 212 200 212 c 0
 204 212 209 210 209 206 c 0x8a
194 260 m 0x2880
 194 319 176 435 176 446 c 0
 176 450 184 464 184 472 c 0
 184 479 179 485 172 485 c 0x1880
 156 485 107 466 67 466 c 0
 46 466 25 471 25 492 c 0
 25 512 49 518 67 518 c 0x2880
 109 518 139 503 175 503 c 0
 185 503 194 511 194 521 c 0x1880
 194 530 170 606 170 632 c 0
 170 650 179 671 200 671 c 0
 223 671 231 649 231 633 c 0x1c
 231 599 215 532 215 517 c 0
 215 508 226 501 235 501 c 0
 266 501 314 518 336 518 c 0
 362 518 376 507 376 492 c 0
 376 472 356 466 337 466 c 0
 311 466 257 486 239 486 c 0
 231 486 222 480 222 472 c 0
 222 458 229 454 229 446 c 0
 229 433 213 319 213 260 c 0
 213 254 208 253 203 253 c 0
 198 253 194 254 194 260 c 0x2880
EndSplineSet
EndChar

StartChar: section
Encoding: 167 167 92
Width: 381
VWidth: 0
Flags: W
HStem: -226 42<113.958 255.366> 636 41<114.562 219.641>
VStem: 40 38<292.644 372.874> 63 35<544.908 620.143> 280 34<-165.717 -85.9242> 302 39<84.2439 167.896>
LayerCount: 3
Fore
SplineSet
113 413 m 0xe4
 100 403 78 383 78 357 c 0
 78 283 209 100 245 52 c 0
 250 45 252 42 255 42 c 0
 258 42 261 45 269 52 c 0
 283 65 302 85 302 102 c 0
 302 189 164 365 131 411 c 0
 124 420 126 423 113 413 c 0xe4
188 677 m 0
 232 677 302 666 302 632 c 0
 302 611 285 605 265 605 c 0
 221 605 200 636 156 636 c 0
 131 636 98 633 98 594 c 0
 98 506 341 314 341 132 c 0xd4
 341 93 297 55 275 38 c 0
 268 32 265 29 265 26 c 0
 265 23 268 19 272 12 c 0
 287 -15 314 -69 314 -102 c 0
 314 -175 260 -226 168 -226 c 0
 124 -226 65 -221 65 -182 c 0
 65 -169 78 -159 93 -159 c 0
 109 -159 122 -167 136 -172 c 0
 150 -177 180 -184 208 -184 c 0
 247 -184 280 -169 280 -132 c 0
 280 -54 40 153 40 310 c 0xe8
 40 371 90 414 109 428 c 0
 116 433 112 439 107 446 c 0
 89 474 63 514 63 556 c 0xd0
 63 624 111 677 188 677 c 0
EndSplineSet
EndChar

StartChar: paragraph
Encoding: 182 182 93
Width: 492
VWidth: 0
Flags: W
HStem: -231 34<280 359> 620 34<386 452>
VStem: 40 245<306.245 516.982> 359 27<-197 620>
LayerCount: 3
Fore
SplineSet
452 643 m 2
 452 629 l 2
 452 622 451 620 440 620 c 2
 394 620 l 2
 387 620 386 619 386 610 c 2
 386 -222 l 2
 386 -230 385 -231 372 -231 c 2
 290 -231 l 2
 281 -231 280 -228 280 -223 c 2
 280 -205 l 2
 280 -200 281 -197 290 -197 c 2
 348 -197 l 2
 358 -197 359 -196 359 -189 c 2
 359 642 l 2
 359 653 362 654 370 654 c 2
 440 654 l 2
 451 654 452 652 452 643 c 2
40 417 m 0
 40 583 186 644 273 644 c 0
 284 644 285 640 285 630 c 2
 285 162 l 2
 285 156 284 154 280 154 c 0
 210 154 40 221 40 417 c 0
EndSplineSet
EndChar

StartChar: asterisk
Encoding: 42 42 94
Width: 391
VWidth: 0
Flags: W
HStem: 420 58<31.8102 102.307> 513 24<176.765 182.999> 514 10<198.586 213.828> 655 20G<262 276>
VStem: 164 63<350.136 468.829> 173 25<524.603 537.225> 183 12<484.812 512.939> 236 59<606.75 673.025>
LayerCount: 3
Fore
SplineSet
227 387 m 0xb9
 227 369 218 348 197 348 c 0
 174 348 164 370 164 386 c 0xb9
 164 406 178 461 182 492 c 0
 183 496 183 499 183 502 c 0xb3
 183 510 182 513 179 513 c 0
 175 513 169 509 162 502 c 0
 139 481 104 438 85 427 c 0
 78 423 69 420 60 420 c 0
 43 420 30 430 30 447 c 0
 30 461 42 473 53 478 c 0
 73 487 126 503 154 515 c 0
 167 520 173 524 173 528 c 0xd5
 173 532 168 536 158 543 c 0
 133 561 85 587 70 603 c 0
 63 611 57 622 57 632 c 0
 57 646 66 659 85 659 c 0
 97 659 109 652 116 644 c 0
 132 627 160 575 176 550 c 0
 181 542 184 537 187 537 c 0
 189 537 191 541 195 550 c 0xd3
 206 577 224 639 236 656 c 0
 243 666 256 675 268 675 c 0
 284 675 295 660 295 647 c 0
 295 637 291 628 286 621 c 0
 271 599 228 568 208 546 c 0
 202 539 198 534 198 531 c 0xd5
 198 527 203 525 216 524 c 0
 247 521 311 524 332 517 c 0
 347 512 361 502 361 486 c 0
 361 467 346 457 329 457 c 0
 324 457 319 458 314 460 c 0
 299 465 245 495 216 508 c 0
 208 512 203 514 200 514 c 0
 198 514 195 513 195 510 c 0xb3
 195 507 196 503 198 496 c 0xb5
 205 464 227 411 227 387 c 0xb9
EndSplineSet
EndChar

StartChar: percent
Encoding: 37 37 95
Width: 657
VWidth: 250
Flags: W
HStem: -9 16<412.097 472.44> 250 15<126.937 185.742> 273 33<481.582 561.333> 491 17<321 403.936> 531 32<197.018 276.815>
VStem: 50 49<288.644 422.666> 292 29<384.391 493.991> 336 49<29.3229 164.146> 578 29<123.35 254.73>
LayerCount: 3
Fore
SplineSet
436 -9 m 0
 371 -9 336 41 336 103 c 0
 336 195 422 306 517 306 c 0
 573 306 607 264 607 197 c 0
 607 92 522 -9 436 -9 c 0
240 531 m 0
 180 531 99 427 99 336 c 0
 99 301 114 265 153 265 c 0
 218 265 292 352 292 461 c 0
 292 502 277 531 240 531 c 0
525 273 m 0
 466 273 385 169 385 78 c 0
 385 42 399 7 439 7 c 0
 504 7 578 94 578 202 c 0
 578 243 562 273 525 273 c 0
320 439 m 0
 312 344 233 250 150 250 c 0
 85 250 50 300 50 362 c 0
 50 434 122 563 227 563 c 0
 261 563 279 551 298 532 c 0
 312 518 331 508 356 508 c 0
 390 508 427 523 449 536 c 0
 486 558 514 591 538 614 c 0
 540 616 552 631 553 631 c 0
 561 631 571 625 571 619 c 0
 571 617 570 614 566 608 c 0
 510 526 155 1 132 -35 c 0
 129 -40 120 -41 113 -41 c 0
 105 -41 97 -38 97 -31 c 0
 97 -29 98 -27 99 -25 c 0
 101 -21 410 416 461 505 c 0
 465 512 477 527 461 519 c 0
 456 516 409 491 356 491 c 0
 346 491 334 492 321 494 c 0
 319 494 321 481 321 478 c 2
 321 464 l 2
 321 456 321 447 320 439 c 0
EndSplineSet
EndChar

StartChar: dollar
Encoding: 36 36 96
Width: 500
VWidth: 0
Flags: W
HStem: 662 20G<243.5 258>
VStem: 62 55<419.826 544.161> 239 23<-147.999 -0.22274 22.0073 276.82 365.271 607.999 628 679.686> 385 57<82.6892 210.915>
LayerCount: 3
Fore
SplineSet
246 682 m 2
 255 682 l 2
 261 682 262 681 262 673 c 2
 262 637 l 2
 262 628 262 629 270 628 c 0
 365 621 418 562 418 532 c 0
 418 517 390 505 383 505 c 0
 353 505 386 596 273 608 c 0
 266 609 262 609 262 602 c 2
 262 365 l 2
 262 348 263 347 274 342 c 0
 352 306 442 263 442 169 c 0
 442 74 383 10 276 0 c 0
 263 -1 262 0 262 -14 c 2
 262 -136 l 2
 262 -148 262 -148 250 -148 c 0
 239 -148 239 -147 239 -136 c 2
 239 -14 l 2
 239 -1 239 -1 226 0 c 0
 135 6 58 53 58 92 c 0
 58 102 82 110 93 110 c 0
 105 110 112 93 129 73 c 0
 153 44 182 25 226 21 c 0
 235 20 239 20 239 30 c 2
 239 270 l 2
 239 285 237 289 225 294 c 0
 147 329 62 372 62 470 c 0
 62 557 140 619 231 627 c 0
 239 628 239 628 239 637 c 2
 239 673 l 2
 239 681 241 682 246 682 c 2
239 368 m 2
 239 602 l 2
 239 607 237 608 234 608 c 0
 215 608 195 600 176 589 c 0
 144 570 117 536 117 480 c 0
 117 413 173 385 226 362 c 0
 236 358 239 352 239 368 c 2
262 265 m 2
 262 38 l 2
 262 26 262 22 268 22 c 0
 270 22 272 22 276 23 c 0
 340 36 385 92 385 147 c 0
 385 215 332 248 274 274 c 0
 270 276 267 277 265 277 c 0
 262 277 262 274 262 265 c 2
EndSplineSet
EndChar

StartChar: bullet
Encoding: 8226 8226 97
Width: 356
VWidth: 0
Flags: W
HStem: 209 236<109.765 246.235>
VStem: 60 236<258.765 395.235>
LayerCount: 3
Fore
SplineSet
60 327 m 0
 60 392 113 445 178 445 c 0
 243 445 296 392 296 327 c 0
 296 262 243 209 178 209 c 0
 113 209 60 262 60 327 c 0
EndSplineSet
EndChar

StartChar: sterling
Encoding: 163 163 98
Width: 510
VWidth: 0
Flags: W
HStem: -8 44<198.149 435.146> 6 24<143 166.862> 248 24<47.006 120.922 182.294 329.999> 642 23<229.976 309.416>
VStem: 40 81<-65.2599 -26.5043> 114 68<281.487 583.024> 121 61<85.8818 248 272 494.806> 340 56<550.605 622.075> 451 34<47.0149 116.5>
LayerCount: 3
Fore
SplineSet
396 587 m 0x7580
 396 565 379 546 356 546 c 0
 349 546 340 548 340 554 c 0
 340 588 328 642 274 642 c 0
 187 642 182 554 182 460 c 2
 182 290 l 2x7580
 182 273 184 272 200 272 c 2
 321 272 l 2
 328 272 330 271 330 260 c 0
 330 249 329 248 321 248 c 2
 200 248 l 2
 184 248 183 248 182 232 c 0
 178 144 157 70 147 42 c 0
 144 35 143 31 143 30 c 1x7380
 144 30 147 33 154 36 c 0
 169 43 197 53 230 53 c 0
 282 53 355 36 399 36 c 0
 428 36 451 43 451 73 c 0
 451 93 408 114 408 124 c 0
 408 132 424 156 440 156 c 0
 457 156 485 132 485 101 c 0
 485 42 427 -8 373 -8 c 0xb380
 318 -8 159 6 140 6 c 0
 129 6 127 -2 121 -18 c 0x7380
 112 -44 103 -80 68 -80 c 0
 55 -80 40 -73 40 -56 c 0x7980
 40 -33 78 -18 108 4 c 0
 121 13 121 12 122 23 c 0
 124 58 126 90 126 128 c 0
 126 162 125 196 123 232 c 0
 122 248 122 248 107 248 c 2
 56 248 l 2
 49 248 47 249 47 261 c 0
 47 271 49 272 55 272 c 2
 105 272 l 2
 119 272 121 273 121 281 c 0x7380
 121 290 114 389 114 500 c 0
 114 601 194 665 281 665 c 0
 341 665 396 637 396 587 c 0x7580
EndSplineSet
EndChar

StartChar: bracketright
Encoding: 93 93 99
Width: 296
VWidth: 0
Flags: W
HStem: -141 36<40 171> 654 36<40 171>
VStem: 171 45<-105 654>
LayerCount: 3
Fore
SplineSet
203 690 m 2
 215 690 216 689 216 675 c 2
 216 -126 l 2
 216 -137 215 -141 204 -141 c 2
 53 -141 l 2
 41 -141 40 -140 40 -132 c 2
 40 -118 l 2
 40 -105 42 -105 53 -105 c 2
 158 -105 l 2
 171 -105 171 -103 171 -93 c 2
 171 642 l 2
 171 652 171 654 158 654 c 2
 53 654 l 2
 42 654 40 654 40 667 c 2
 40 679 l 2
 40 687 41 690 53 690 c 2
 203 690 l 2
EndSplineSet
EndChar

StartChar: ampersand
Encoding: 38 38 100
Width: 657
VWidth: 0
Flags: W
HStem: -10 62<175.818 299.527> 0 27<551.505 620.992> 332 30<427.001 518.997 566.175 631.986> 612 30<208.008 300.584>
VStem: 40 62<124.823 231.939> 106 65<452.307 563.759> 337 68<480.265 583.958> 402 65<139.038 158.288>
LayerCount: 3
Fore
SplineSet
564 314 m 0xbe
 543 284 467 177 467 170 c 0
 467 166 471 162 477 154 c 0
 499 127 524 87 541 56 c 0
 553 35 556 27 612 27 c 0
 621 27 621 26 621 15 c 0
 621 0 620 0 605 0 c 0x7d
 538 -1 504 -10 490 -10 c 0xbd
 479 -10 477 -8 475 0 c 0x7d
 462 45 439 81 427 98 c 0
 417 112 417 110 407 99 c 0
 376 65 303 -10 219 -10 c 0
 109 -10 40 60 40 155 c 0
 40 244 127 314 164 340 c 0
 174 347 178 350 178 352 c 0
 178 355 172 359 162 370 c 0
 140 395 106 440 106 486 c 0
 106 574 181 642 266 642 c 0
 332 642 405 610 405 542 c 0
 405 474 318 408 280 382 c 0
 271 376 266 374 266 371 c 0
 266 368 271 364 279 357 c 0
 340 306 383 259 435 203 c 0
 442 195 445 191 448 191 c 0
 451 191 453 196 458 205 c 0
 479 243 519 305 519 327 c 0
 519 332 515 332 500 332 c 2
 440 332 l 2
 428 332 427 332 427 347 c 0
 427 362 427 362 440 362 c 0
 456 362 518 359 548 359 c 0
 575 359 608 362 618 362 c 0
 631 362 632 361 632 344 c 0
 632 332 630 332 614 332 c 2
 584 332 l 2
 577 332 572 326 564 314 c 0xbe
175 318 m 0
 145 296 102 259 102 197 c 0
 102 117 175 52 251 52 c 0xbd
 324 52 375 99 395 119 c 0
 400 125 402 128 402 130 c 0
 402 133 398 136 393 143 c 0
 356 195 276 274 219 321 c 0
 210 329 205 333 201 333 c 0
 197 333 190 329 175 318 c 0
266 405 m 0
 294 426 337 467 337 526 c 0x3e
 337 570 303 612 257 612 c 0
 198 612 171 566 171 518 c 0
 171 480 201 436 222 411 c 0
 232 399 242 392 244 392 c 0
 247 392 255 397 266 405 c 0
EndSplineSet
EndChar

StartChar: ae
Encoding: 230 230 101
Width: 649
VWidth: 0
Flags: W
HStem: -15 44<123.625 222.111 398.829 532.055> 230 17<330.003 538.998> 374 22<139.886 225.622 403.713 486.908>
VStem: 35 70<47.0664 128.068> 49 68<280.193 330.887> 267 63<98.0435 201.997 218.051 229.984 247.001 314.258> 539 69<233 323.805>
LayerCount: 3
Fore
SplineSet
105 98 m 0xf6
 105 66 128 29 170 29 c 0
 198 29 230 38 249 46 c 0
 265 53 267 56 267 66 c 2
 267 191 l 2
 267 198 266 202 261 202 c 0
 258 202 228 196 199 187 c 0
 152 172 105 145 105 98 c 0xf6
447 374 m 0
 381 374 334 305 330 255 c 0
 330 249 334 247 342 247 c 0
 347 247 449 249 499 251 c 0
 536 252 539 253 539 255 c 0
 539 353 479 374 447 374 c 0
133 -15 m 0
 71 -15 35 19 35 70 c 0xf6
 35 159 160 201 259 218 c 0
 267 219 267 226 267 234 c 0
 267 304 266 373 180 373 c 0
 170 373 159 372 149 368 c 0
 121 356 118 341 117 301 c 0
 117 295 116 284 110 280 c 0
 94 268 61 252 57 252 c 0
 52 252 49 256 49 267 c 0xee
 49 349 136 398 201 398 c 0
 258 398 293 381 312 353 c 0
 321 340 319 341 331 351 c 0
 365 379 409 396 459 396 c 0
 558 396 608 321 608 237 c 0
 608 229 566 225 554 225 c 0
 543 225 338 230 330 230 c 0
 325 230 325 208 325 194 c 0
 325 87 399 29 474 29 c 0
 554 29 600 94 603 94 c 0
 606 94 619 82 619 79 c 0
 619 73 547 -15 446 -15 c 0
 385 -15 337 5 305 39 c 0
 297 48 297 46 286 39 c 0
 244 13 179 -15 133 -15 c 0
EndSplineSet
Layer: 2
SplineSet
447 374 m 4
 381 374 334 305 330 255 c 4
 330 249 334 247 342 247 c 4
 347 247 449 249 499 251 c 4
 536 252 539 253 539 255 c 4
 539 353 479 374 447 374 c 4
261 202 m 4
 258 202 228 195 199 187 c 4
 151 174 105 145 105 98 c 4
 105 66 128 29 170 29 c 4
 198 29 230 38 249 46 c 4
 265 53 267 56 267 66 c 6
 267 191 l 6
 267 198 266 202 261 202 c 4
133 -15 m 4
 71 -15 35 19 35 70 c 4
 35 159 160 201 259 218 c 4
 267 219 267 226 267 234 c 4
 267 304 266 373 180 373 c 4
 170 373 159 372 149 368 c 4
 121 356 118 341 117 301 c 4
 117 295 116 284 110 280 c 4
 94 268 61 252 57 252 c 4
 52 252 49 256 49 267 c 4
 49 349 136 398 201 398 c 4
 266 398 302 377 319 341 c 5
 355 375 403 396 459 396 c 4
 558 396 608 321 608 237 c 4
 608 229 566 225 554 225 c 4
 543 225 338 230 330 230 c 4
 325 230 325 208 325 194 c 4
 325 87 399 29 474 29 c 4
 554 29 600 94 603 94 c 4
 606 94 619 82 619 79 c 4
 619 73 547 -15 446 -15 c 4
 380 -15 330 8 298 47 c 5
 258 20 184 -15 133 -15 c 4
EndSplineSet
EndChar

StartChar: oe
Encoding: 339 339 102
Width: 733
VWidth: 0
Flags: W
HStem: -15 44<482.803 616.055> -15 26<170.668 271.508> 230 17<414.003 622.998> 370 26<170.398 272.363 478.206 581.782>
VStem: 30 71<92.766 280.533> 343 66<107.316 229.984 247.001 302.252> 623 69<233 323.805>
LayerCount: 3
Fore
SplineSet
223 370 m 0x7e
 129 370 101 279 101 169 c 0
 101 94 141 11 219 11 c 0
 319 11 343 114 343 204 c 0
 343 282 307 370 223 370 c 0x7e
531 374 m 0
 465 374 418 305 414 255 c 0
 414 249 418 247 426 247 c 0
 431 247 533 249 583 251 c 0
 620 252 623 253 623 255 c 0
 623 353 563 374 531 374 c 0
394 332 m 0
 430 372 482 396 543 396 c 0
 642 396 692 321 692 237 c 0
 692 229 650 225 638 225 c 0
 627 225 422 230 414 230 c 0
 409 230 409 208 409 194 c 0
 409 87 483 29 558 29 c 0
 638 29 684 94 687 94 c 0
 690 94 703 82 703 79 c 0
 703 73 631 -15 530 -15 c 0xbe
 448 -15 405 23 386 47 c 0
 378 57 376 62 374 62 c 0
 372 62 370 58 364 50 c 0
 347 26 304 -15 219 -15 c 0
 112 -15 30 74 30 183 c 0
 30 301 112 396 235 396 c 0
 292 396 339 371 371 332 c 0
 377 325 379 321 382 321 c 0
 385 321 387 325 394 332 c 0
EndSplineSet
EndChar

StartChar: emdash
Encoding: 8212 8212 103
Width: 750
VWidth: 0
Flags: W
HStem: 175 37<10.0015 740>
LayerCount: 3
Fore
SplineSet
740 188 m 2
 740 176 739 175 724 175 c 2
 30 175 l 2
 10 175 10 175 10 195 c 0
 10 211 12 212 23 212 c 2
 724 212 l 2
 739 212 740 211 740 200 c 2
 740 188 l 2
EndSplineSet
EndChar

StartChar: endash
Encoding: 8211 8211 104
Width: 500
VWidth: 0
Flags: W
HStem: 175 37<10.0015 490>
LayerCount: 3
Fore
SplineSet
490 188 m 2
 490 176 489 175 474 175 c 2
 30 175 l 2
 10 175 10 175 10 195 c 0
 10 211 12 212 23 212 c 2
 474 212 l 2
 489 212 490 211 490 200 c 2
 490 188 l 2
EndSplineSet
EndChar

StartChar: OE
Encoding: 338 338 105
Width: 996
VWidth: 0
Flags: W
HStem: -11 27<308.192 499.097> 0 34<598.332 926.075> 325 27<595.006 828.071> 407 20G<842 849.5> 638 24<596.035 787.604> 647 28<309.036 501.491>
VStem: 45 94<200.428 449.584> 517 78<65.9475 325 352 636.234> 829 31<250.108 321.59 355.349 426.965> 872 28<539.027 632.964 666.054 689.986> 930 31<37.1168 154.976>
LayerCount: 3
Fore
SplineSet
370 -11 m 0xb3e0
 210 -11 45 104 45 318 c 0
 45 534 201 675 385 675 c 0xb7e0
 448 675 510 662 558 662 c 0
 611 662 764 665 807 665 c 0
 874 665 872 666 874 678 c 0
 875 688 879 690 887 690 c 0
 901 690 904 689 904 679 c 0
 904 660 900 627 900 549 c 0
 900 541 898 539 884 539 c 0
 872 539 869 543 869 553 c 0
 869 558 872 625 872 631 c 0
 872 635 711 638 600 638 c 0
 594 638 593 588 593 510 c 0
 593 467 594 418 595 368 c 0
 595 355 595 352 607 352 c 2
 774 352 l 2
 792 352 829 352 829 368 c 2
 829 418 l 2
 829 424 838 427 846 427 c 0
 853 427 860 424 860 419 c 0
 860 410 858 377 858 341 c 0
 858 305 860 271 860 258 c 0
 860 253 854 250 847 250 c 0
 839 250 829 253 829 259 c 2
 829 305 l 2
 829 315 828 325 774 325 c 2
 611 325 l 2
 595 325 595 325 595 310 c 0
 598 167 595 34 601 34 c 0
 699 34 904 37 908 37 c 0
 924 37 925 37 927 60 c 0
 929 85 929 108 930 147 c 0
 930 153 936 155 944 155 c 0
 953 155 961 153 961 146 c 0
 961 96 958 38 958 8 c 0
 958 -1 946 -3 936 -3 c 0
 913 -3 596 0 566 0 c 0x7be0
 478 0 453 -11 370 -11 c 0xb3e0
139 345 m 0
 139 201 195 79 292 35 c 0
 329 18 375 16 425 16 c 0
 488 16 517 35 517 45 c 0
 517 87 516 152 516 198 c 0
 516 309 512 486 512 492 c 2
 512 585 l 2
 512 644 502 636 452 644 c 0
 434 647 410 647 378 647 c 0
 235 647 139 500 139 345 c 0
EndSplineSet
EndChar

StartChar: AE
Encoding: 198 198 106
Width: 973
VWidth: 0
Flags: W
HStem: -3 30<20.0144 81.3962 128 202.991 408.003 491.554> 0 34<580.69 903.075> 275 24<279.003 492.545> 325 27<572.006 805.071> 407 20G<819 826.5> 636 29<374.003 433.094 467.001 485.934 572.567 769.46>
VStem: 493 79<65.9475 274.924 299.09 325 352 635.699> 806 31<250.108 321.59 355.349 426.965> 849 28<539.027 632.964 666.054 689.986> 907 31<37.1168 154.976>
LayerCount: 3
Fore
SplineSet
493 411 m 2x3fc0
 493 614 486 636 479 636 c 2
 478 636 l 2
 473 636 470 631 467 626 c 2
 285 320 l 2
 282 314 279 309 279 306 c 0
 279 302 283 299 295 299 c 2
 464 299 l 2
 490 299 493 301 493 319 c 2
 493 411 l 2x3fc0
835 341 m 0
 835 305 837 271 837 258 c 0
 837 253 831 250 824 250 c 0
 816 250 806 253 806 259 c 2
 806 305 l 2
 806 315 805 325 751 325 c 2
 588 325 l 2
 572 325 572 325 572 310 c 0
 575 167 578 34 584 34 c 0x7fc0
 682 34 881 37 885 37 c 0
 901 37 902 37 904 60 c 0
 906 85 906 108 907 147 c 0
 907 153 913 155 921 155 c 0
 930 155 938 153 938 146 c 0
 938 96 935 38 935 8 c 0
 935 -1 923 -3 913 -3 c 0xbfc0
 890 -3 573 0 543 0 c 0x7fc0
 513 0 444 -3 421 -3 c 0
 408 -3 408 -2 408 15 c 0
 408 27 409 27 425 27 c 2
 486 27 l 2
 492 27 493 47 493 102 c 2
 493 260 l 2
 493 275 480 275 463 275 c 2
 262 275 l 2
 256 275 141 71 123 33 c 0
 119 25 121 27 128 27 c 2
 192 27 l 2
 203 27 203 26 203 14 c 0
 203 -1 202 -3 192 -3 c 0xbfc0
 169 -3 135 0 105 0 c 0x7fc0
 75 0 57 -3 34 -3 c 0
 21 -3 20 -2 20 15 c 0
 20 27 22 27 38 27 c 2
 66 27 l 2xbfc0
 80 27 139 136 219 266 c 2
 440 626 l 2
 446 636 447 636 431 636 c 2
 386 636 l 2
 377 636 374 638 374 651 c 0
 374 663 378 665 386 665 c 0
 393 665 438 662 535 662 c 0
 588 662 741 665 784 665 c 0
 851 665 849 666 851 678 c 0
 852 688 856 690 864 690 c 0
 878 690 881 689 881 679 c 0
 881 660 877 627 877 549 c 0
 877 541 875 539 861 539 c 0
 849 539 846 543 846 553 c 0
 846 558 849 625 849 631 c 0
 849 635 688 638 577 638 c 0
 571 638 570 588 570 510 c 0
 570 467 571 418 572 368 c 0
 572 355 572 352 584 352 c 2
 751 352 l 2
 769 352 806 352 806 368 c 2
 806 418 l 2
 806 424 815 427 823 427 c 0
 830 427 837 424 837 419 c 0
 837 410 835 377 835 341 c 0
EndSplineSet
EndChar

StartChar: at
Encoding: 64 64 107
Width: 795
VWidth: 20
Flags: W
HStem: -113 29<266.254 471.752> 54 47<250.217 320.739> 54 30<400 510.506> 374 21<400.101 469.573> 400 20G<520 533.5> 560 28<369.652 569.688>
VStem: 50 34<88.0413 288.965> 204 67<107.185 210.19> 374 65<68 153.12> 460 92<336.5 412> 715 30<261.146 426.612>
LayerCount: 3
Fore
SplineSet
715 337 m 0xbfe0
 715 492 611 560 471 560 c 0
 266 560 84 401 84 181 c 0
 84 17 214 -84 356 -84 c 0
 493 -84 582 -34 666 44 c 0
 667 45 676 52 679 52 c 0
 688 52 693 41 693 38 c 0
 693 34 692 30 689 27 c 0
 606 -63 483 -113 353 -113 c 0
 196 -113 50 -8 50 187 c 0
 50 415 260 588 468 588 c 0
 610 588 745 524 745 344 c 0
 745 152 556 54 409 54 c 0
 391 54 374 60 374 76 c 0
 374 90 380 123 380 123 c 1
 380 123 319 56 262 56 c 0
 223 56 204 96 204 139 c 0
 204 205 311 395 454 395 c 0
 468 395 482 389 485 389 c 0
 487 389 489 392 499 404 c 0
 509 416 513 420 527 420 c 0
 540 420 552 417 552 407 c 0
 552 403 551 397 549 393 c 0
 523 337 439 149 439 115 c 0
 439 99 439 84 459 84 c 0
 514 84 587 118 647 178 c 0
 689 220 715 278 715 337 c 0xbfe0
271 147 m 0
 271 124 287 101 313 101 c 0xdfe0
 382 101 460 323 460 350 c 0
 460 365 443 374 428 374 c 0
 378 374 271 256 271 147 c 0
EndSplineSet
EndChar

StartChar: quotesingle
Encoding: 39 39 108
Width: 193
VWidth: 250
Flags: W
HStem: 497 191<77.7188 115.195>
VStem: 60 73<504.086 685.561> 77 39<497.009 642.421>
LayerCount: 3
Fore
SplineSet
133 643 m 0xc0
 133 632 116 534 116 525 c 0
 116 509 111 497 97 497 c 0
 80 497 77 510 77 525 c 0xa0
 77 534 60 636 60 643 c 0
 60 664 65 688 97 688 c 0
 129 688 133 663 133 643 c 0xc0
EndSplineSet
EndChar

StartChar: quotedbl
Encoding: 34 34 109
Width: 323
VWidth: 250
Flags: W
HStem: 497 191<77.7188 115.195 207.719 245.195>
VStem: 60 73<504.086 685.561> 77 39<497.009 642.421> 190 73<504.086 685.561> 207 39<497.009 642.421>
LayerCount: 3
Fore
SplineSet
263 643 m 0x90
 263 632 246 534 246 525 c 0
 246 509 241 497 227 497 c 0
 210 497 207 510 207 525 c 0x88
 207 534 190 636 190 643 c 0
 190 664 195 688 227 688 c 0
 259 688 263 663 263 643 c 0x90
133 643 m 0xc0
 133 632 116 534 116 525 c 0
 116 509 111 497 97 497 c 0
 80 497 77 510 77 525 c 0xa0
 77 534 60 636 60 643 c 0
 60 664 65 688 97 688 c 0
 129 688 133 663 133 643 c 0xc0
EndSplineSet
EndChar

StartChar: numbersign
Encoding: 35 35 110
Width: 476
VWidth: 488
Flags: W
HStem: -25 21G<112.5 124 267 288> 162 42<30.0001 121.999 172.451 277.913 327.028 445.98> 346 42<30.0175 147.998 199.001 303 354.001 445.89>
VStem: 99 41<-24.9639 123.933> 148 24<256.244 296.045> 157 42<388 538.532> 183 42<435.244 590.997> 255 65<-2.875 145.716> 303 24<210 341> 340 39<458.054 590.992>
LayerCount: 3
Fore
SplineSet
30 180 m 0xf140
 30 181 30 182 30 183 c 0
 30 197 30 204 44 204 c 2
 126 204 l 2
 128 204 129 204 129 206 c 0
 135 251 148 336 148 341 c 0
 148 345 145 346 141 346 c 2
 46 346 l 2
 36 346 30 348 30 366 c 0
 30 380 33 388 46 388 c 2
 148 388 l 2xf940
 154 388 157 390 157 395 c 0xf440
 183 581 180 579 183 584 c 0
 187 590 191 591 205 591 c 0
 212 591 225 590 225 579 c 0xf240
 225 573 199 399 199 393 c 0
 199 389 200 388 205 388 c 2
 303 388 l 2
 307 388 311 389 312 395 c 0
 338 581 337 581 340 585 c 0
 344 591 351 591 363 591 c 0
 371 591 379 591 379 581 c 0
 379 572 354 402 354 393 c 0
 354 390 355 388 359 388 c 2
 428 388 l 2
 442 388 446 380 446 363 c 0
 446 348 440 346 431 346 c 2
 350 346 l 2
 346 346 346 343 345 340 c 1
 339 297 327 214 327 210 c 0xf4c0
 327 206 329 204 334 204 c 2
 429 204 l 2
 439 204 446 202 446 184 c 0
 446 169 442 162 429 162 c 2
 331 162 l 2
 322 162 321 158 320 152 c 0
 295 -25 302 -25 274 -25 c 0
 260 -25 255 -19 255 -12 c 0
 255 -6 278 151 278 156 c 0
 278 161 275 162 271 162 c 2
 205 162 l 2
 166 162 165 160 164 154 c 0
 141 -17 141 -14 140 -17 c 0
 136 -23 131 -25 117 -25 c 0
 108 -25 99 -22 99 -12 c 0
 99 -6 122 150 122 155 c 0
 122 160 120 162 114 162 c 2
 44 162 l 2
 31 162 30 170 30 180 c 0xf140
172 209 m 0
 172 205 175 204 180 204 c 2
 275 204 l 2
 279 204 284 204 285 211 c 0
 298 306 303 333 303 341 c 0
 303 344 303 346 297 346 c 2
 199 346 l 2xf4c0
 193 346 191 343 190 339 c 0
 184 296 172 214 172 209 c 0
EndSplineSet
EndChar

StartChar: plus
Encoding: 43 43 111
Width: 527
VWidth: 488
Flags: W
HStem: -22 21G<256 271.5> 188 44<31.0019 241 286.086 495.999>
VStem: 241 45<-21.9956 187.996 232 441.995>
LayerCount: 3
Fore
SplineSet
31 212 m 0
 31 225 31 232 49 232 c 2
 219 232 l 2
 238 232 241 240 241 251 c 2
 241 427 l 2
 241 442 248 442 262 442 c 0
 276 442 286 442 286 422 c 2
 286 259 l 2
 286 245 287 232 303 232 c 2
 480 232 l 2
 496 232 496 225 496 211 c 0
 496 194 496 188 475 188 c 2
 303 188 l 2
 286 188 286 182 286 170 c 2
 286 -5 l 2
 286 -22 277 -22 266 -22 c 0
 246 -22 241 -22 241 -4 c 2
 241 170 l 2
 241 188 234 188 217 188 c 2
 48 188 l 2
 31 188 31 195 31 212 c 0
EndSplineSet
EndChar

StartChar: slash
Encoding: 47 47 112
Width: 406
VWidth: 488
Flags: W
VStem: 10 58<-232.419 -202>
LayerCount: 3
Fore
SplineSet
10 -220 m 0
 10 -211 21 -186 29 -163 c 2
 29 -163 344 680 346 687 c 0
 351 702 357 705 375 705 c 0
 384 705 396 703 396 693 c 0
 396 684 387 662 382 649 c 2
 68 -202 l 2
 57 -233 51 -233 36 -233 c 0
 24 -233 10 -233 10 -220 c 0
EndSplineSet
EndChar

StartChar: less
Encoding: 60 60 113
Width: 527
VWidth: 488
Flags: W
HStem: 41 37<476 486.207> 340 41<471 486.796>
VStem: 41 73<196.818 221.005>
LayerCount: 3
Fore
SplineSet
41 211 m 0
 41 221 41 225 56 231 c 0
 463 379 462 381 468 381 c 0
 477 381 487 377 487 356 c 0
 487 347 479 343 471 340 c 2
 156 229 l 2
 137 222 114 213 114 208 c 0
 114 203 136 197 156 190 c 2
 476 78 l 2
 482 76 487 72 487 65 c 0
 487 57 481 41 463 41 c 0
 457 41 460 41 55 188 c 0
 41 193 41 197 41 211 c 0
EndSplineSet
EndChar

StartChar: equal
Encoding: 61 61 114
Width: 527
VWidth: 488
Flags: W
HStem: 110 45<31.0031 495.998> 266 44<31.0031 495.999>
LayerCount: 3
Fore
SplineSet
31 134 m 0
 31 147 31 155 49 155 c 2
 480 155 l 2
 496 155 496 148 496 134 c 0
 496 117 496 110 475 110 c 2
 48 110 l 2
 30 110 31 117 31 134 c 0
31 290 m 0
 31 303 31 310 49 310 c 2
 480 310 l 2
 496 310 496 303 496 289 c 0
 496 272 496 266 475 266 c 2
 48 266 l 2
 30 266 31 273 31 290 c 0
EndSplineSet
EndChar

StartChar: greater
Encoding: 62 62 115
Width: 527
VWidth: 488
Flags: W
HStem: 41 37<41.7188 51> 340 41<41.1796 56>
VStem: 414 73<196.818 221.005>
LayerCount: 3
Fore
SplineSet
41 65 m 0
 41 72 45 76 51 78 c 2
 372 190 l 2
 392 197 414 203 414 208 c 0
 414 213 391 222 372 229 c 2
 56 340 l 2
 48 343 41 347 41 356 c 0
 41 377 50 381 59 381 c 0
 65 381 64 379 471 231 c 0
 486 225 487 221 487 211 c 0
 487 197 486 193 472 188 c 0
 67 41 70 41 64 41 c 0
 46 41 41 57 41 65 c 0
EndSplineSet
EndChar

StartChar: backslash
Encoding: 92 92 116
Width: 406
VWidth: 488
Flags: W
VStem: 338 58<-232.419 -202>
LayerCount: 3
Fore
SplineSet
396 -220 m 0
 396 -233 382 -233 370 -233 c 0
 355 -233 349 -233 338 -202 c 2
 24 649 l 2
 19 662 10 684 10 693 c 0
 10 703 22 705 31 705 c 0
 49 705 55 702 60 687 c 0
 62 680 377 -163 377 -163 c 2
 385 -186 396 -211 396 -220 c 0
EndSplineSet
EndChar

StartChar: guillemotleft
Encoding: 171 171 117
Width: 408
VWidth: 488
Flags: W
HStem: 62 262<183 186 333 336>
VStem: 50 86<169.727 216.273> 200 86<169.727 216.273>
LayerCount: 3
Fore
SplineSet
286 193 m 0
 286 181 348 82 348 74 c 0
 348 72 336 62 334 62 c 0
 333 62 293 103 255 138 c 0
 226 165 200 188 200 193 c 0
 200 198 226 221 255 248 c 0
 293 283 333 324 334 324 c 0
 336 324 348 314 348 312 c 0
 348 304 286 205 286 193 c 0
136 193 m 0
 136 181 198 82 198 74 c 0
 198 72 186 62 184 62 c 0
 183 62 143 103 105 138 c 0
 76 165 50 188 50 193 c 0
 50 198 76 221 105 248 c 0
 143 283 183 324 184 324 c 0
 186 324 198 314 198 312 c 0
 198 304 136 205 136 193 c 0
EndSplineSet
EndChar

StartChar: guillemotright
Encoding: 187 187 118
Width: 408
VWidth: 488
Flags: W
HStem: 62 262<72 75 222 225>
VStem: 122 86<169.727 216.273> 272 86<169.727 216.273>
LayerCount: 3
Fore
SplineSet
122 193 m 0
 122 205 60 304 60 312 c 0
 60 314 72 324 74 324 c 0
 75 324 115 283 153 248 c 0
 182 221 208 198 208 193 c 0
 208 188 182 165 153 138 c 0
 115 103 75 62 74 62 c 0
 72 62 60 72 60 74 c 0
 60 82 122 181 122 193 c 0
272 193 m 0
 272 205 210 304 210 312 c 0
 210 314 222 324 224 324 c 0
 225 324 265 283 303 248 c 0
 332 221 358 198 358 193 c 0
 358 188 332 165 303 138 c 0
 265 103 225 62 224 62 c 0
 222 62 210 72 210 74 c 0
 210 82 272 181 272 193 c 0
EndSplineSet
EndChar

StartChar: multiply
Encoding: 215 215 119
Width: 527
VWidth: 488
Flags: W
HStem: 173 76<237.625 289.453> 364 20G<111.5 118 411.5 416>
VStem: 226 74<185.547 236.234>
LayerCount: 3
Fore
SplineSet
429 344 m 2
 308 223 l 2
 303 218 300 213 300 210 c 0
 300 206 304 202 308 198 c 2
 432 74 l 2
 437 69 438 65 438 62 c 0
 438 54 419 35 412 35 c 0
 409 35 404 37 399 42 c 2
 276 166 l 2
 271 171 267 173 263 173 c 0
 258 173 254 169 247 162 c 2
 127 42 l 2
 122 37 118 35 115 35 c 0
 108 35 89 53 89 61 c 0
 89 65 92 69 97 74 c 2
 217 195 l 2
 223 201 226 206 226 210 c 0
 226 215 223 219 219 223 c 2
 95 347 l 2
 91 351 88 355 88 358 c 0
 88 365 107 384 116 384 c 0
 120 384 125 381 130 376 c 2
 246 261 l 2
 252 255 258 249 265 249 c 0
 268 249 272 250 276 254 c 2
 401 379 l 2
 405 383 410 385 413 385 c 0
 419 385 438 368 438 358 c 0
 438 355 435 350 429 344 c 2
EndSplineSet
EndChar

StartChar: divide
Encoding: 247 247 120
Width: 527
VWidth: 488
Flags: W
HStem: 60 81<222.31 293.681> 188 44<31.0031 495.999> 280 81<217.572 288.681>
VStem: 217 82<65.3547 135.681 288.56 353.256>
LayerCount: 3
Fore
SplineSet
31 212 m 0
 31 225 31 232 49 232 c 2
 480 232 l 2
 496 232 496 225 496 211 c 0
 496 194 496 188 475 188 c 2
 48 188 l 2
 30 188 31 195 31 212 c 0
212 320 m 0
 212 342 232 361 254 361 c 0
 276 361 294 343 294 321 c 0
 294 299 275 280 253 280 c 0
 231 280 212 298 212 320 c 0
217 101 m 0
 217 123 236 141 258 141 c 0
 280 141 299 122 299 100 c 0
 299 78 281 60 259 60 c 0
 237 60 217 78 217 101 c 0
EndSplineSet
EndChar

StartChar: guilsinglleft
Encoding: 8249 8249 121
Width: 258
VWidth: 488
Flags: W
HStem: 62 262<183 186>
VStem: 50 86<169.727 216.273>
LayerCount: 3
Fore
SplineSet
136 193 m 0
 136 181 198 82 198 74 c 0
 198 72 186 62 184 62 c 0
 183 62 143 103 105 138 c 0
 76 165 50 188 50 193 c 0
 50 198 76 221 105 248 c 0
 143 283 183 324 184 324 c 0
 186 324 198 314 198 312 c 0
 198 304 136 205 136 193 c 0
EndSplineSet
EndChar

StartChar: guilsinglright
Encoding: 8250 8250 122
Width: 258
VWidth: 488
Flags: W
HStem: 62 262<72 75>
VStem: 122 86<169.727 216.273>
LayerCount: 3
Fore
SplineSet
122 193 m 0
 122 205 60 304 60 312 c 0
 60 314 72 324 74 324 c 0
 75 324 115 283 153 248 c 0
 182 221 208 198 208 193 c 0
 208 188 182 165 153 138 c 0
 115 103 75 62 74 62 c 0
 72 62 60 72 60 74 c 0
 60 82 122 181 122 193 c 0
EndSplineSet
EndChar

StartChar: minus
Encoding: 8722 8722 123
Width: 527
VWidth: 488
Flags: W
HStem: 188 44<31.0031 495.999>
LayerCount: 3
Fore
SplineSet
31 212 m 0
 31 225 31 232 49 232 c 2
 480 232 l 2
 496 232 496 225 496 211 c 0
 496 194 496 188 475 188 c 2
 48 188 l 2
 30 188 31 195 31 212 c 0
EndSplineSet
EndChar

StartChar: zero.u
Encoding: 65549 -1 124
Width: 500
VWidth: 0
Flags: W
HStem: -25 36<191.696 303.192> 591 37<198.902 306.566>
VStem: 38 70<148.941 452.216> 398 64<161.569 458.972>
LayerCount: 3
Fore
SplineSet
248 -25 m 0
 123 -25 38 111 38 305 c 0
 38 516 149 628 252 628 c 0
 373 628 462 510 462 312 c 0
 462 139 384 -25 248 -25 c 0
250 11 m 0
 360 11 398 192 398 316 c 0
 398 430 355 591 251 591 c 0
 165 591 108 458 108 288 c 0
 108 90 170 11 250 11 c 0
EndSplineSet
EndChar

StartChar: one.u
Encoding: 65550 -1 125
Width: 500
VWidth: 0
Flags: W
HStem: -3 30<153.064 237.75 309.65 374.041> 583 27<150.061 223.776> 588 31<150.08 234.743>
VStem: 239.05 70<27 587.998>
LayerCount: 3
Fore
SplineSet
235.049804688 27 m 2xb0
 239.049804688 27 239.049804688 85 239.049804688 110 c 2
 239.049804688 228 l 2
 239.049804688 345 237.049804688 511 235.049804688 568 c 0
 234.049804688 585 234.049804688 588 224.049804688 588 c 0xb0
 219.049804688 588 160.049804688 583 156.049804688 583 c 0
 149.049804688 583 150.049804688 586 150.049804688 589 c 2
 150.049804688 602 l 2
 150.049804688 610 151.049804688 609 160.049804688 610 c 0xd0
 200.049804688 613 297.049804688 619 303.049804688 619 c 0
 310.049804688 619 310.049804688 616 310.049804688 604 c 0
 310.049804688 406 309.049804688 250 309.049804688 66 c 0
 309.049804688 43 309.049804688 27 317.049804688 27 c 2
 363.049804688 27 l 2
 374.049804688 27 374.049804688 26 374.049804688 14 c 0
 374.049804688 -1 373.049804688 -3 363.049804688 -3 c 0
 347.049804688 -3 306.049804688 0 276.049804688 0 c 0
 246.049804688 0 190.049804688 -3 167.049804688 -3 c 0
 154.049804688 -3 153.049804688 -2 153.049804688 15 c 0
 153.049804688 27 155.049804688 27 171.049804688 27 c 2
 235.049804688 27 l 2xb0
EndSplineSet
EndChar

StartChar: two.u
Encoding: 65551 -1 126
Width: 500
VWidth: 0
Flags: W
HStem: 0 58<120.001 424.452> 574 48<154.525 281.52>
VStem: 338 75<363.244 512.242>
LayerCount: 3
Fore
SplineSet
219 574 m 0
 121 574 66 478 61 478 c 0
 55 478 40 486 40 493 c 0
 40 508 126 622 238 622 c 0
 360 622 413 518 413 447 c 0
 413 300 211 156 153 110 c 0
 136 96 120 61 120 59 c 0
 120 58 122 58 127 58 c 2
 419 58 l 2
 423 58 433 142 437 142 c 0
 442 142 458 142 458 139 c 0
 458 132 445 45 437 6 c 0
 436 1 433 0 426 0 c 2
 80 0 l 2
 69 0 66 5 66 11 c 0
 66 17 122 113 127 117 c 0
 181 166 338 280 338 428 c 0
 338 496 300 574 219 574 c 0
EndSplineSet
EndChar

StartChar: three.u
Encoding: 65552 -1 127
Width: 500
VWidth: 0
Flags: W
HStem: -18 26<191.831 294.241> 286 40<139.347 227.868 236.011 322.73> 599 34<168.495 278.674>
VStem: 325 69<427.087 556.478> 373 64<90.8066 239.203>
LayerCount: 3
Fore
SplineSet
373 158 m 0xe8
 373 242 331 286 240 286 c 0
 214 286 163 281 154 281 c 0
 142 281 144 289 141 298 c 0
 140 301 139 307 139 310 c 0
 139 322 149 321 160 324 c 0
 269 350 325 392 325 492 c 0
 325 546 282 599 228 599 c 0
 157 599 117 538 111 538 c 0
 103 538 92 548 92 556 c 0
 92 569 161 633 244 633 c 0
 330 633 394 577 394 502 c 0xf0
 394 431 341 376 286 351 c 0
 259 339 236 331 236 329 c 0
 236 326 251 328 280 326 c 0
 366 320 437 288 437 175 c 0
 437 59 330 -18 226 -18 c 0
 175 -18 90 -12 90 17 c 0
 90 27 109 47 130 47 c 0
 148 47 151 43 167 34 c 0
 188 21 217 8 237 8 c 0
 324 8 373 76 373 158 c 0xe8
EndSplineSet
EndChar

StartChar: four.u
Encoding: 65553 -1 128
Width: 500
VWidth: 0
Flags: W
HStem: -11 21G<292.5 302.5> 201 54<87.0037 292.999 356.275 444>
VStem: 40 47<205.5 272.602> 293 61<-6.9531 201 255 543.995>
LayerCount: 3
Fore
SplineSet
354 599 m 2
 354 273 l 2
 354 255 355 255 369 255 c 2
 437 255 l 2
 443 255 444 255 444 245 c 2
 444 211 l 2
 444 201 444 201 432 201 c 2
 370 201 l 2
 356 201 355 201 356 187 c 0
 359 126 360 7 360 2 c 0
 360 -5 359 -6 356 -7 c 0
 350 -9 310 -11 295 -11 c 0
 290 -11 290 -6 290 2 c 2
 293 186 l 2
 293 201 292 201 277 201 c 2
 58 201 l 2
 50 201 40 202 40 209 c 0
 40 220 41 238 56 264 c 0
 98 337 193 472 260 559 c 0
 274 577 288 580 299 590 c 0
 320 610 335 628 343 628 c 0
 351 628 354 618 354 599 c 2
107 255 m 2
 274 255 l 2
 292 255 293 256 293 275 c 2
 293 518 l 2
 293 537 293 544 290 544 c 0
 282 544 145 346 100 281 c 0
 95 274 87 264 87 259 c 0
 87 255 92 255 107 255 c 2
EndSplineSet
EndChar

StartChar: five.u
Encoding: 65554 -1 129
Width: 500
VWidth: 0
Flags: W
HStem: -34 30<100.006 199.255> 338 53<138.002 264.157> 546 61<149.348 379.163> 558 60<150.624 366.298>
VStem: 102 36<342.5 532.586> 342 66<106.746 273.33> 380 29<607.013 639.948>
LayerCount: 3
Fore
SplineSet
408 198 m 0xdc
 408 -11 143 -34 108 -34 c 0
 102 -34 100 -29 100 -18 c 0
 100 -10 102 -5 108 -4 c 0
 183 7 342 8 342 194 c 0
 342 312 241 338 145 338 c 0
 135 338 126 337 116 337 c 0
 106 337 102 338 102 347 c 0
 102 361 119 532 129 612 c 0
 130 618 139 618 145 618 c 0xdc
 150 618 208 607 374 607 c 0
 379 607 379 625 380 635 c 0
 380 640 385 640 391 640 c 2
 399 640 l 2
 409 640 409 639 409 631 c 0
 409 627 407 588 406 563 c 0
 405 548 398 546 372 546 c 0xea
 294 546 233 551 162 558 c 0
 152 559 153 560 152 551 c 0
 150 534 138 409 138 402 c 0
 138 394 141 391 149 391 c 0
 160 392 171 392 183 392 c 0
 304 392 408 353 408 198 c 0xdc
EndSplineSet
EndChar

StartChar: six.u
Encoding: 65555 -1 130
Width: 500
VWidth: 0
Flags: W
HStem: -22 26<198.852 302.989> 322 30<156.945 300.326>
VStem: 45 71<96.4005 296.37> 371 69<78.5557 259.277>
LayerCount: 3
Fore
SplineSet
249 -22 m 0
 137 -22 45 48 45 218 c 0
 45 514 344 637 360 637 c 0
 364 637 374 620 374 616 c 0
 374 608 366 606 354 599 c 0
 230 527 174 453 141 367 c 0
 139 361 131 339 131 332 c 0
 131 327 134 330 143 333 c 0
 172 342 210 352 252 352 c 0
 363 352 440 284 440 171 c 0
 440 54 357 -22 249 -22 c 0
116 222 m 0
 116 110 146 4 258 4 c 0
 331 4 371 81 371 158 c 0
 371 278 314 322 228 322 c 0
 205 322 179 320 153 313 c 0
 131 307 126 305 124 297 c 0
 119 276 116 248 116 222 c 0
EndSplineSet
EndChar

StartChar: seven.u
Encoding: 65556 -1 131
Width: 500
VWidth: 0
Flags: W
HStem: -25 21G<185 201> 560 58<115.933 412.997>
VStem: 80 33<485 556.568 619.907 649.973> 150 64<-21.0347 71.75>
LayerCount: 3
Fore
SplineSet
282 618 m 2
 448 618 l 2
 460 618 465 613 465 606 c 0
 465 602 463 597 461 592 c 2
 398 455 l 2
 321 288 258 173 214 14 c 0
 204 -24 205 -25 197 -25 c 0
 173 -25 150 -15 150 -1 c 0
 150 27 194 136 251 254 c 0
 298 351 355 453 404 539 c 0
 409 548 413 554 413 557 c 0
 413 560 409 560 395 560 c 2
 196 560 l 2
 166 560 113 558 113 551 c 2
 113 493 l 2
 113 485 107 485 97 485 c 0
 91 485 80 485 80 491 c 0
 80 501 81 569 81 631 c 0
 81 649 83 650 100 650 c 0
 115 650 116 648 116 630 c 2
 116 622 l 2
 116 618 215 618 282 618 c 2
EndSplineSet
EndChar

StartChar: eight.u
Encoding: 65557 -1 132
Width: 500
VWidth: 0
Flags: W
HStem: -25 30<187.926 308.025> 610 32<188.709 301.983>
VStem: 67 53<65.5668 216.929> 79 55<424.627 559.503> 362 53<409.786 561.618> 370 64<66.9127 207.317>
LayerCount: 3
Fore
SplineSet
316 315 m 0xd8
 349 295 434 261 434 145 c 0
 434 50 350 -25 240 -25 c 0
 140 -25 67 45 67 140 c 0xe4
 67 226 142 280 178 298 c 0
 190 304 196 308 196 309 c 0
 196 310 188 313 175 322 c 0
 140 346 79 392 79 481 c 0
 79 572 155 642 246 642 c 0
 333 642 415 584 415 494 c 0
 415 398 350 357 316 332 c 0
 304 323 305 322 316 315 c 0xd8
247 5 m 0
 333 5 370 69 370 132 c 0
 370 225 301 256 240 289 c 0
 231 294 218 300 215 300 c 0
 211 300 193 287 180 278 c 0
 157 261 120 225 120 150 c 0
 120 66 170 5 247 5 c 0
295 342 m 0
 326 369 362 422 362 486 c 0
 362 574 298 610 243 610 c 0
 187 610 134 562 134 493 c 0xd8
 134 444 162 407 203 375 c 0
 227 356 274 330 280 330 c 0
 283 330 287 335 295 342 c 0
EndSplineSet
EndChar

StartChar: nine.u
Encoding: 65558 -1 133
Width: 500
VWidth: 0
Flags: W
HStem: -21 36<99.2637 188.576> 252 39<191.075 316.383> 600 36<190.109 307.424>
VStem: 55 68<359.844 525.177> 386 72<280.156 496.207>
LayerCount: 3
Fore
SplineSet
106 -21 m 0
 101 -21 99 -5 99 2 c 0
 99 12 104 11 129 15 c 0
 211 28 323 80 363 207 c 0
 371 233 377 259 379 291 c 0
 379 297 379 305 377 305 c 0
 375 305 359 295 350 289 c 0
 324 272 281 252 223 252 c 0
 123 252 55 340 55 439 c 0
 55 559 164 636 246 636 c 0
 357 636 458 542 458 375 c 0
 458 3 124 -21 106 -21 c 0
123 440 m 0
 123 365 174 291 262 291 c 0
 319 291 363 316 378 335 c 0
 385 344 386 370 386 391 c 0
 386 495 345 600 250 600 c 0
 176 600 123 534 123 440 c 0
EndSplineSet
EndChar

StartChar: quotesinglbase
Encoding: 8218 8218 138
Width: 209
VWidth: 0
Flags: W
HStem: -136 248
VStem: 129 50<-40.2241 39.5>
LayerCount: 3
Fore
SplineSet
81 50 m 0
 81 71 111 112 128 112 c 0
 136 112 179 52 179 27 c 0
 179 -45 83 -136 76 -136 c 0
 70 -136 60 -125 60 -118 c 0
 60 -114 129 -61 129 -28 c 0
 129 -2 81 24 81 50 c 0
EndSplineSet
EndChar

StartChar: quotereversed
Encoding: 8219 8219 139
Width: 209
VWidth: 0
Flags: W
HStem: 435 248
VStem: 30 50<530.776 610.5>
LayerCount: 3
Fore
SplineSet
128 621 m 0
 128 595 80 569 80 543 c 0
 80 510 149 457 149 453 c 0
 149 446 139 435 133 435 c 0
 126 435 30 526 30 598 c 0
 30 623 73 683 81 683 c 0
 98 683 128 642 128 621 c 0
EndSplineSet
EndChar

StartChar: quotedblbase
Encoding: 8222 8222 140
Width: 394
VWidth: 0
Flags: W
HStem: -136 248
VStem: 129 50<-40.2241 39.5> 314 50<-40.2241 39.5>
LayerCount: 3
Fore
SplineSet
81 50 m 0
 81 71 111 112 128 112 c 0
 136 112 179 52 179 27 c 0
 179 -45 83 -136 76 -136 c 0
 70 -136 60 -125 60 -118 c 0
 60 -114 129 -61 129 -28 c 0
 129 -2 81 24 81 50 c 0
266 50 m 0
 266 71 296 112 313 112 c 0
 321 112 364 52 364 27 c 0
 364 -45 268 -136 261 -136 c 0
 255 -136 245 -125 245 -118 c 0
 245 -114 314 -61 314 -28 c 0
 314 -2 266 24 266 50 c 0
EndSplineSet
EndChar

StartChar: uni201F
Encoding: 8223 8223 141
Width: 394
VWidth: 0
Flags: W
HStem: 435 248
VStem: 30 50<530.776 610.5> 215 50<530.776 610.5>
LayerCount: 3
Fore
SplineSet
313 621 m 0
 313 595 265 569 265 543 c 0
 265 510 334 457 334 453 c 0
 334 446 324 435 318 435 c 0
 311 435 215 526 215 598 c 0
 215 623 258 683 266 683 c 0
 283 683 313 642 313 621 c 0
128 621 m 0
 128 595 80 569 80 543 c 0
 80 510 149 457 149 453 c 0
 149 446 139 435 133 435 c 0
 126 435 30 526 30 598 c 0
 30 623 73 683 81 683 c 0
 98 683 128 642 128 621 c 0
EndSplineSet
EndChar

StartChar: acutecomb
Encoding: 769 769 142
Width: 0
VWidth: 0
Flags: W
HStem: 449 163
VStem: -164 66<587 609.847>
AnchorPoint: "top" -200 500 mark 0
LayerCount: 3
Fore
SplineSet
-213 457 m 2
 -164 587 l 2
 -158 603 -148 612 -134 612 c 0
 -111 612 -98 598 -98 582 c 4
 -98 575 -100 569 -105 562 c 2
 -187 455 l 2
 -190 451 -192 449 -195 449 c 2
 -211 449 l 2
 -214 449 -215 450 -215 451 c 0
 -215 452 -214 455 -213 457 c 2
EndSplineSet
EndChar

StartChar: uni0302
Encoding: 770 770 144
Width: 0
VWidth: 0
Flags: W
HStem: 459 140
VStem: -310 220<460 462>
AnchorPoint: "top" -200 500 mark 0
LayerCount: 3
Fore
SplineSet
-307 467 m 2
 -228 586 l 2
 -220 598 -220 599 -210 599 c 2
 -190 599 l 2
 -180 599 -180 598 -172 586 c 2
 -93 467 l 2
 -91 464 -90 462 -90 461 c 0
 -90 460 -91 459 -95 459 c 2
 -107 459 l 2
 -108 459 -110 461 -115 465 c 2
 -196 535 l 2
 -200 538 -200 538 -204 535 c 2
 -285 465 l 2
 -289 461 -292 459 -293 459 c 2
 -305 459 l 2
 -308 459 -310 460 -310 461 c 0
 -310 462 -309 464 -307 467 c 2
EndSplineSet
EndChar

StartChar: gravecomb
Encoding: 768 768 145
Width: 0
VWidth: 0
Flags: W
HStem: 449 163
VStem: -302 66<587 609.847>
AnchorPoint: "top" -200 500 mark 0
LayerCount: 3
Fore
SplineSet
-187 457 m 2
 -186 455 -185 452 -185 451 c 0
 -185 450 -186 449 -189 449 c 2
 -205 449 l 2
 -208 449 -210 451 -213 455 c 2
 -295 562 l 2
 -300 569 -302 575 -302 582 c 0
 -302 598 -289 612 -266 612 c 0
 -252 612 -242 603 -236 587 c 2
 -187 457 l 2
EndSplineSet
Layer: 2
SplineSet
-187 457 m 6
 -186 455 -185 452 -185 451 c 4
 -185 450 -186 449 -189 449 c 6
 -200 449 l 6
 -203 449 -205 451 -208 455 c 6
 -291 570 l 6
 -296 577 -299 583 -299 589 c 4
 -299 603 -285 612 -271 612 c 4
 -261 612 -250 607 -244 594 c 6
 -187 457 l 6
EndSplineSet
EndChar

StartChar: dotlessi
Encoding: 305 305 185
Width: 249
VWidth: 0
Flags: W
HStem: -2 27<29.0008 95.0461 167 223.999> 353 30<28.1338 91.9997>
VStem: 96 68<25 354.999>
AnchorPoint: "top" 115 500 basechar 0
LayerCount: 3
Fore
SplineSet
95 37 m 0
 96 66 96 95 96 125 c 0
 96 195 95 266 92 339 c 0
 91 354 89 355 79 355 c 0
 76 355 33 353 29 353 c 0
 26 353 25 354 25 357 c 0
 25 360 25 362 29 370 c 0
 33 378 32 377 44 378 c 0
 63 379 152 383 157 383 c 0
 163 383 164 382 164 377 c 2
 164 207 l 2
 164 150 164 94 167 37 c 0
 167 28 167 25 177 25 c 2
 213 25 l 2
 223 25 224 21 224 12 c 0
 224 3 224 -2 213 -2 c 0
 194 -2 154 0 129 0 c 0
 104 0 59 -2 40 -2 c 0
 29 -2 29 1 29 12 c 0
 29 21 30 25 43 25 c 2
 84 25 l 2
 95 25 95 27 95 37 c 0
EndSplineSet
EndChar

StartChar: uni0237
Encoding: 567 567 192
Width: 292
VWidth: 0
Flags: W
HStem: -275 73<17.5728 92.476> 348 25<48.798 127.852>
VStem: 130 72<24.8396 347.999> 139 63<-181 201.017>
AnchorPoint: "top" 137 500 basechar 0
LayerCount: 3
Fore
SplineSet
46 -202 m 0xe0
 67 -202 91 -206 101 -206 c 0
 129 -206 139 -189 139 -173 c 0xd0
 139 -134 130 -41 130 258 c 0
 130 282 130 307 128 334 c 0
 127 346 125 348 119 348 c 0
 112 348 58 345 49 345 c 0
 46 345 46 346 46 349 c 0
 46 352 48 359 50 364 c 0
 53 372 51 373 65 373 c 0
 116 374 185 378 190 378 c 0
 197 378 197 370 197 355 c 0
 198 266 202 155 202 27 c 0
 202 -80 195 -155 148 -216 c 0
 130 -239 53 -275 24 -275 c 0
 11 -275 5 -266 5 -255 c 0
 5 -233 31 -202 46 -202 c 0xe0
EndSplineSet
EndChar

StartChar: tildecomb
Encoding: 771 771 204
Width: 0
VWidth: 0
Flags: W
HStem: 496 45<-199.556 -125.363> 533 46<-277.352 -204.981>
VStem: -117 19<556.919 582.991>
AnchorPoint: "top" -200 500 mark 0
LayerCount: 3
Fore
SplineSet
-105 583 m 0xa0
 -101 583 -98 583 -98 581 c 0
 -98 574 -102 562 -105 554 c 0
 -118 520 -139 496 -165 496 c 0xa0
 -200 496 -221 533 -253 533 c 0x60
 -275 533 -282 516 -287 502 c 0
 -289 496 -290 496 -298 496 c 0xa0
 -302 496 -305 496 -305 498 c 0
 -305 503 -300 517 -297 524 c 0
 -281 562 -257 579 -241 579 c 0x60
 -210 579 -179 541 -153 541 c 0
 -131 541 -123 561 -117 576 c 0
 -115 583 -114 583 -105 583 c 0xa0
EndSplineSet
EndChar

StartChar: uni0304
Encoding: 772 772 205
Width: 0
VWidth: 0
Flags: W
HStem: 509 40<-302 -98>
VStem: -302 204<509 549>
AnchorPoint: "top" -200 500 mark 0
LayerCount: 3
Fore
SplineSet
-293 549 m 2
 -106 549 l 2
 -99 549 -98 549 -98 542 c 2
 -98 517 l 2
 -98 509 -98 509 -106 509 c 2
 -293 509 l 2
 -302 509 -302 509 -302 518 c 2
 -302 541 l 2
 -302 549 -301 549 -293 549 c 2
EndSplineSet
EndChar

StartChar: uni0306
Encoding: 774 774 206
Width: 0
VWidth: 0
Flags: W
HStem: 459 53<-260.959 -139.263>
VStem: -303 28<534.031 569.567> -125 28<534.427 569.567>
AnchorPoint: "top" -200 500 mark 0
LayerCount: 3
Fore
SplineSet
-302 586 m 2
 -285 586 l 2
 -284 586 -283 570 -275 553 c 0
 -263 530 -245 512 -200 512 c 0
 -155 512 -137 530 -125 553 c 0
 -117 570 -116 586 -115 586 c 2
 -98 586 l 2
 -97 586 -97 583 -97 580 c 0
 -97 523 -128 459 -200 459 c 0
 -273 459 -303 523 -303 579 c 0
 -303 583 -303 586 -302 586 c 2
EndSplineSet
EndChar

StartChar: uni0307
Encoding: 775 775 207
Width: 0
VWidth: 0
Flags: W
HStem: 492 96<-238.344 -162.791>
VStem: -251 102<506.348 574>
AnchorPoint: "top" -200 500 mark 0
LayerCount: 3
Fore
SplineSet
-149 548 m 0
 -149 514 -182 492 -210 492 c 0
 -231 492 -251 505 -251 533 c 0
 -251 569 -215 588 -191 588 c 0
 -170 588 -149 577 -149 548 c 0
EndSplineSet
EndChar

StartChar: uni0308
Encoding: 776 776 208
Width: 0
VWidth: 0
Flags: W
HStem: 492 96<-318.344 -242.791 -158.344 -82.7911>
VStem: -331 102<506.348 574> -171 102<506.348 574>
AnchorPoint: "top" -200 500 mark 0
LayerCount: 3
Fore
SplineSet
-69 548 m 0
 -69 514 -102 492 -130 492 c 0
 -151 492 -171 505 -171 533 c 0
 -171 569 -135 588 -111 588 c 0
 -90 588 -69 577 -69 548 c 0
-229 548 m 0
 -229 514 -262 492 -290 492 c 0
 -311 492 -331 505 -331 533 c 0
 -331 569 -295 588 -271 588 c 0
 -250 588 -229 577 -229 548 c 0
EndSplineSet
EndChar

StartChar: uni030A
Encoding: 778 778 209
Width: 0
VWidth: 0
Flags: W
HStem: 464 28<-231.303 -168.697> 578 28<-231.303 -168.697>
VStem: -271 28<503.697 566.303> -157 28<503.697 566.303>
AnchorPoint: "top" -200 500 mark 0
LayerCount: 3
Fore
SplineSet
-243 535 m 0
 -243 511 -224 492 -200 492 c 0
 -176 492 -157 511 -157 535 c 0
 -157 559 -176 578 -200 578 c 0
 -224 578 -243 559 -243 535 c 0
-271 535 m 0
 -271 574 -239 606 -200 606 c 0
 -161 606 -129 574 -129 535 c 0
 -129 496 -161 464 -200 464 c 0
 -239 464 -271 496 -271 535 c 0
EndSplineSet
EndChar

StartChar: uni030B
Encoding: 779 779 210
Width: 0
VWidth: 0
Flags: W
HStem: 449 163
VStem: -229 66<587 609.847> -119 66<587 609.847>
AnchorPoint: "top" -200 500 mark 0
LayerCount: 3
Fore
SplineSet
-278 457 m 2
 -229 587 l 2
 -223 603 -213 612 -199 612 c 0
 -176 612 -163 598 -163 582 c 0
 -163 575 -165 569 -170 562 c 2
 -252 455 l 2
 -255 451 -257 449 -260 449 c 2
 -276 449 l 2
 -279 449 -280 450 -280 451 c 0
 -280 452 -279 455 -278 457 c 2
-168 457 m 2
 -119 587 l 2
 -113 603 -103 612 -89 612 c 0
 -66 612 -53 598 -53 582 c 0
 -53 575 -55 569 -60 562 c 2
 -142 455 l 2
 -145 451 -147 449 -150 449 c 2
 -166 449 l 2
 -169 449 -170 450 -170 451 c 0
 -170 452 -169 455 -168 457 c 2
EndSplineSet
EndChar

StartChar: uni030C
Encoding: 780 780 211
Width: 0
VWidth: 0
Flags: W
HStem: 449 140
VStem: -310 220<586 588>
AnchorPoint: "top" -200 500 mark 0
LayerCount: 3
Fore
SplineSet
-93 581 m 2
 -172 462 l 2
 -180 450 -180 449 -190 449 c 2
 -210 449 l 2
 -220 449 -220 450 -228 462 c 2
 -307 581 l 2
 -309 584 -310 586 -310 587 c 0
 -310 588 -309 589 -305 589 c 2
 -293 589 l 2
 -292 589 -290 587 -285 583 c 2
 -204 513 l 2
 -200 510 -200 510 -196 513 c 2
 -115 583 l 2
 -111 587 -108 589 -107 589 c 2
 -95 589 l 2
 -92 589 -90 588 -90 587 c 0
 -90 586 -91 584 -93 581 c 2
EndSplineSet
EndChar

StartChar: gravecomb.cap
Encoding: 65560 -1 239
Width: 0
VWidth: 0
Flags: W
HStem: 449 118
VStem: -309 119
AnchorPoint: "top" -200 500 mark 0
LayerCount: 3
Fore
SplineSet
-192 457 m 2
 -191 455 -190 453 -190 451 c 0
 -190 450 -191 449 -194 449 c 2
 -215 449 l 2
 -218 449 -219 452 -223 455 c 2
 -295 515 l 2
 -304 522 -309 532 -309 542 c 0
 -309 555 -300 567 -279 567 c 0
 -264 567 -254 556 -245 542 c 2
 -192 457 l 2
EndSplineSet
EndChar

StartChar: acutecomb.cap
Encoding: 65561 -1 245
Width: 0
VWidth: 0
Flags: W
HStem: 449 118
VStem: -210 119
AnchorPoint: "top" -200 500 mark 0
LayerCount: 3
Fore
SplineSet
-208 457 m 2
 -155 542 l 2
 -146 556 -136 567 -121 567 c 0
 -100 567 -91 555 -91 542 c 0
 -91 532 -96 522 -105 515 c 2
 -177 455 l 2
 -181 452 -182 449 -185 449 c 2
 -206 449 l 2
 -209 449 -210 450 -210 451 c 0
 -210 453 -209 455 -208 457 c 2
EndSplineSet
EndChar

StartChar: uni0302.cap
Encoding: 65562 -1 259
Width: 0
VWidth: 0
Flags: W
HStem: 449 110
VStem: -311 222<450 452>
AnchorPoint: "top" -200 500 mark 0
LayerCount: 3
Fore
SplineSet
-307 457 m 2
 -228 546 l 2
 -218 557 -217 559 -212 559 c 2
 -188 559 l 2
 -183 559 -182 557 -172 546 c 2
 -93 457 l 2
 -91 455 -89 452 -89 451 c 0
 -89 450 -91 449 -95 449 c 2
 -104 449 l 2
 -105 449 -110 452 -115 455 c 2
 -196 500 l 2
 -198 501 -202 501 -204 500 c 2
 -285 455 l 2
 -290 452 -295 449 -296 449 c 2
 -305 449 l 2
 -309 449 -311 450 -311 451 c 0
 -311 452 -309 454 -307 457 c 2
EndSplineSet
EndChar

StartChar: uni030C.cap
Encoding: 65563 -1 273
Width: 0
VWidth: 0
Flags: W
HStem: 449 110
VStem: -311 222<556 558>
AnchorPoint: "top" -200 500 mark 0
LayerCount: 3
Fore
SplineSet
-93 551 m 2
 -172 462 l 2
 -182 451 -183 449 -188 449 c 2
 -212 449 l 2
 -217 449 -218 451 -228 462 c 2
 -307 551 l 2
 -309 553 -311 556 -311 557 c 0
 -311 558 -309 559 -305 559 c 2
 -296 559 l 2
 -295 559 -290 556 -285 553 c 2
 -204 508 l 2
 -202 507 -198 507 -196 508 c 2
 -115 553 l 2
 -110 556 -105 559 -104 559 c 2
 -95 559 l 2
 -91 559 -89 558 -89 557 c 0
 -89 556 -91 554 -93 551 c 2
EndSplineSet
EndChar

StartChar: uni0304.cap
Encoding: 65564 -1 282
Width: 0
VWidth: 0
Flags: W
HStem: 499 40<-302 -98>
VStem: -302 204<499 539>
AnchorPoint: "top" -200 500 mark 0
LayerCount: 3
Fore
SplineSet
-293 539 m 2
 -106 539 l 2
 -99 539 -98 539 -98 532 c 2
 -98 507 l 2
 -98 499 -98 499 -106 499 c 2
 -293 499 l 2
 -302 499 -302 499 -302 508 c 2
 -302 531 l 2
 -302 539 -301 539 -293 539 c 2
EndSplineSet
EndChar

StartChar: uni0306.cap
Encoding: 65565 -1 288
Width: 0
VWidth: 0
Flags: W
HStem: 449 50<-268.071 -131.929>
VStem: -303 206<495 555>
AnchorPoint: "top" -200 500 mark 0
LayerCount: 3
Fore
SplineSet
-115 558 m 2
 -98 558 l 2
 -97 558 -97 555 -97 552 c 0
 -97 495 -129 449 -200 449 c 0
 -271 449 -303 495 -303 552 c 0
 -303 555 -303 558 -302 558 c 2
 -285 558 l 2
 -279 558 -292 499 -200 499 c 0
 -108 499 -121 558 -115 558 c 2
EndSplineSet
EndChar

StartChar: uni030B.cap
Encoding: 65566 -1 289
Width: 0
VWidth: 0
Flags: W
HStem: 449 118
VStem: -275 237
AnchorPoint: "top" -200 500 mark 0
LayerCount: 3
Fore
SplineSet
-275 457 m 2
 -222 542 l 2
 -213 556 -203 567 -188 567 c 0
 -167 567 -158 555 -158 542 c 0
 -158 532 -163 522 -172 515 c 2
 -244 455 l 2
 -248 452 -249 449 -252 449 c 2
 -273 449 l 2
 -276 449 -277 450 -277 451 c 0
 -277 453 -276 455 -275 457 c 2
-155 457 m 2
 -102 542 l 2
 -93 556 -83 567 -68 567 c 0
 -47 567 -38 555 -38 542 c 0
 -38 532 -43 522 -52 515 c 2
 -124 455 l 2
 -128 452 -129 449 -132 449 c 2
 -153 449 l 2
 -156 449 -157 450 -157 451 c 0
 -157 453 -156 455 -155 457 c 2
EndSplineSet
EndChar

StartChar: uni0307.cap
Encoding: 65567 -1 301
Width: 0
VWidth: 0
Flags: W
HStem: 462 96<-238.344 -162.791>
VStem: -251 102<476.348 544>
AnchorPoint: "top" -200 500 mark 0
LayerCount: 3
Fore
SplineSet
-149 518 m 0
 -149 484 -182 462 -210 462 c 0
 -231 462 -251 475 -251 503 c 0
 -251 539 -215 558 -191 558 c 0
 -170 558 -149 547 -149 518 c 0
EndSplineSet
EndChar

StartChar: uni0308.cap
Encoding: 65568 -1 312
Width: 0
VWidth: 0
Flags: W
HStem: 462 96<-318.344 -242.791 -158.344 -82.7911>
VStem: -331 102<476.348 544> -171 102<476.348 544>
AnchorPoint: "top" -200 500 mark 0
LayerCount: 3
Fore
SplineSet
-69 518 m 0
 -69 484 -102 462 -130 462 c 0
 -151 462 -171 475 -171 503 c 0
 -171 539 -135 558 -111 558 c 0
 -90 558 -69 547 -69 518 c 0
-229 518 m 0
 -229 484 -262 462 -290 462 c 0
 -311 462 -331 475 -331 503 c 0
 -331 539 -295 558 -271 558 c 0
 -250 558 -229 547 -229 518 c 0
EndSplineSet
EndChar

StartChar: uni0312
Encoding: 786 786 319
Width: 0
VWidth: 0
Flags: W
HStem: 449 180
VStem: -257 53<492 560.313>
AnchorPoint: "top" -200 500 mark 0
LayerCount: 3
Fore
SplineSet
-151 484 m 0
 -151 467 -189 449 -194 449 c 0
 -208 449 -257 482 -257 502 c 0
 -257 571 -163 629 -155 629 c 0
 -150 629 -145 619 -145 613 c 0
 -145 610 -204 580 -204 548 c 0
 -204 510 -151 496 -151 484 c 0
EndSplineSet
EndChar

StartChar: uni0308.narrow
Encoding: 65569 -1 320
Width: 0
VWidth: 0
Flags: W
HStem: 492 96<-308.344 -232.791 -168.344 -92.7911>
VStem: -321 102<506.348 574> -181 102<506.348 574>
AnchorPoint: "top" -200 500 mark 0
LayerCount: 3
Fore
SplineSet
-79 548 m 0
 -79 514 -112 492 -140 492 c 0
 -161 492 -181 505 -181 533 c 0
 -181 569 -145 588 -121 588 c 0
 -100 588 -79 577 -79 548 c 0
-219 548 m 0
 -219 514 -252 492 -280 492 c 0
 -301 492 -321 505 -321 533 c 0
 -321 569 -285 588 -261 588 c 0
 -240 588 -219 577 -219 548 c 0
EndSplineSet
EndChar

StartChar: uni030A.cap
Encoding: 65570 -1 325
Width: 0
VWidth: 0
Flags: W
HStem: 434 28<-231.303 -168.697> 548 28<-231.303 -168.697>
VStem: -271 28<473.697 536.303> -157 28<473.697 536.303>
AnchorPoint: "top" -200 500 mark 0
LayerCount: 3
Fore
SplineSet
-243 505 m 0
 -243 481 -224 462 -200 462 c 0
 -176 462 -157 481 -157 505 c 0
 -157 529 -176 548 -200 548 c 0
 -224 548 -243 529 -243 505 c 0
-271 505 m 0
 -271 544 -239 576 -200 576 c 0
 -161 576 -129 544 -129 505 c 0
 -129 466 -161 434 -200 434 c 0
 -239 434 -271 466 -271 505 c 0
EndSplineSet
EndChar

StartChar: tildecomb.cap
Encoding: 65571 -1 333
Width: 0
VWidth: 0
Flags: W
HStem: 466 45<-199.556 -125.363> 503 46<-277.352 -204.981>
VStem: -117 19<526.919 552.991>
AnchorPoint: "top" -200 500 mark 0
LayerCount: 3
Fore
SplineSet
-105 553 m 0xa0
 -101 553 -98 553 -98 551 c 0
 -98 544 -102 532 -105 524 c 0
 -118 490 -139 466 -165 466 c 0xa0
 -200 466 -221 503 -253 503 c 0x60
 -275 503 -282 486 -287 472 c 0
 -289 466 -290 466 -298 466 c 0xa0
 -302 466 -305 466 -305 468 c 0
 -305 473 -300 487 -297 494 c 0
 -281 532 -257 549 -241 549 c 0x60
 -210 549 -179 511 -153 511 c 0
 -131 511 -123 531 -117 546 c 0
 -115 553 -114 553 -105 553 c 0xa0
EndSplineSet
EndChar

StartChar: uni0326
Encoding: 806 806 339
Width: 0
VWidth: 0
Flags: W
HStem: -241 180
VStem: -195 53<-172.313 -104>
AnchorPoint: "cedilla" -200 -100 mark 0
LayerCount: 3
Fore
SplineSet
-248 -96 m 0
 -248 -79 -210 -61 -205 -61 c 0
 -191 -61 -142 -94 -142 -114 c 0
 -142 -183 -236 -241 -244 -241 c 0
 -249 -241 -254 -231 -254 -225 c 0
 -254 -222 -195 -192 -195 -160 c 0
 -195 -122 -248 -108 -248 -96 c 0
EndSplineSet
EndChar

StartChar: uni0163
Encoding: 355 355 353
Width: 289
VWidth: 0
Flags: W
HStem: -228 24<96.0123 187.411> -103 35<127.126 196.938> 338 34<142.244 256.01>
VStem: 76 66<43.3281 336.954> 206 55<-191.372 -109.429>
LayerCount: 3
Fore
SplineSet
155 -228 m 0
 105 -228 72 -204 72 -200 c 0
 72 -197 72 -189 80 -189 c 0
 83 -189 107 -204 140 -204 c 0
 186 -204 206 -187 206 -148 c 0
 206 -123 193 -103 151 -103 c 0
 132 -103 117 -112 114 -112 c 0
 112 -112 106 -109 106 -107 c 0
 106 -105 131 -40 143 -9 c 1
 90 -7 76 31 76 60 c 0
 77 132 78 247 78 276 c 0
 78 313 77 337 66 337 c 2
 41 337 l 2
 37 337 35 340 35 344 c 0
 35 347 36 350 38 352 c 2
 129 479 l 2
 131 482 134 484 138 484 c 0
 143 484 148 481 148 474 c 0
 148 471 142 398 142 382 c 0
 142 373 144 372 153 372 c 2
 248 372 l 2
 260 372 261 372 257 354 c 0
 254 341 251 338 244 338 c 2
 145 338 l 2
 142 338 142 320 142 292 c 2
 142 100 l 2
 142 69 144 38 190 38 c 0
 229 38 262 54 270 54 c 0
 273 54 274 45 274 38 c 0
 274 33 205 -1 161 -8 c 1
 140 -65 l 2
 139 -69 137 -74 140 -74 c 0
 142 -74 157 -68 176 -68 c 0
 233 -68 261 -105 261 -136 c 0
 261 -179 221 -228 155 -228 c 0
EndSplineSet
EndChar

StartChar: uni0327
Encoding: 807 807 354
Width: 0
Flags: W
HStem: -228 24<-258.988 -167.589> -103 35<-227.874 -158.062> -20 20G<-213 -191>
VStem: -149 55<-191.372 -109.429>
AnchorPoint: "cedilla" -200 -100 mark 0
LayerCount: 3
Fore
SplineSet
-200 -228 m 0
 -250 -228 -283 -204 -283 -200 c 0
 -283 -197 -283 -189 -275 -189 c 0
 -272 -189 -248 -204 -215 -204 c 0
 -169 -204 -149 -187 -149 -148 c 0
 -149 -123 -162 -103 -204 -103 c 0
 -223 -103 -238 -112 -241 -112 c 0
 -243 -112 -249 -109 -249 -107 c 0
 -249 -105 -218 -25 -208 0 c 1
 -191 0 l 1
 -215 -65 l 2
 -216 -69 -218 -74 -215 -74 c 0
 -213 -74 -198 -68 -179 -68 c 0
 -122 -68 -94 -105 -94 -136 c 0
 -94 -179 -134 -228 -200 -228 c 0
EndSplineSet
EndChar

StartChar: Ccedilla
Encoding: 199 199 355
Width: 731
VWidth: 0
Flags: W
HStem: -228 24<337.012 428.411> -103 35<368.126 437.938> -16 39<332.554 382 399 517.894> 429 21G<632 647.5> 650 30<319.07 481.625>
VStem: 45 102<214.562 459.954> 447 55<-191.372 -109.429> 626 35<429.075 555.5 611 650.986>
LayerCount: 3
Fore
SplineSet
396 -228 m 0
 346 -228 313 -204 313 -200 c 0
 313 -197 313 -189 321 -189 c 0
 324 -189 348 -204 381 -204 c 0
 427 -204 447 -187 447 -148 c 0
 447 -123 434 -103 392 -103 c 0
 373 -103 358 -112 355 -112 c 0
 353 -112 347 -109 347 -107 c 0
 347 -105 369 -49 382 -16 c 1
 204 -10 45 100 45 335 c 0
 45 544 200 680 402 680 c 0
 520 680 589 622 609 608 c 0
 618 601 626 594 626 611 c 2
 626 638 l 2
 626 649 626 651 641 651 c 0
 656 651 661 650 661 638 c 0
 661 620 657 496 657 445 c 0
 657 433 654 429 641 429 c 0
 623 429 622 432 622 441 c 0
 622 445 626 522 626 531 c 0
 626 545 528 650 395 650 c 0
 250 650 147 514 147 333 c 0
 147 164 270 23 424 23 c 0
 537 23 618 80 619 91 c 2
 632 204 l 2
 634 218 638 220 654 218 c 0
 664 217 666 212 666 205 c 0
 666 195 662 162 650 72 c 0
 648 54 525 -15 399 -16 c 1
 381 -65 l 2
 380 -69 378 -74 381 -74 c 0
 383 -74 398 -68 417 -68 c 0
 474 -68 502 -105 502 -136 c 0
 502 -179 462 -228 396 -228 c 0
EndSplineSet
EndChar

StartChar: ccedilla
Encoding: 231 231 356
Width: 412
VWidth: 0
Flags: W
HStem: -228 24<172.012 263.411> -103 35<203.126 272.938> -10 44<175.988 219> 372 27<185.185 280.3>
VStem: 35 65<113.081 279.638> 282 55<-191.372 -109.429> 317 57<275.553 339.516>
LayerCount: 3
Fore
SplineSet
231 -228 m 0xfc
 181 -228 148 -204 148 -200 c 0
 148 -197 148 -189 156 -189 c 0
 159 -189 183 -204 216 -204 c 0
 262 -204 282 -187 282 -148 c 0xfc
 282 -123 269 -103 227 -103 c 0
 208 -103 193 -112 190 -112 c 0
 188 -112 182 -109 182 -107 c 0
 182 -105 207 -42 219 -10 c 1
 105 -8 35 66 35 177 c 0
 35 325 144 399 241 399 c 0
 306 399 374 354 374 303 c 0
 374 295 372 289 364 283 c 0
 355 276 343 270 334 270 c 0
 326 270 320 272 317 281 c 0xfa
 301 326 298 372 235 372 c 0
 150 372 100 281 100 202 c 0
 100 118 151 34 254 34 c 0
 323 34 367 64 375 64 c 0
 379 64 382 62 382 56 c 0
 382 50 327 -5 236 -10 c 1
 216 -65 l 2
 215 -69 213 -74 216 -74 c 0
 218 -74 233 -68 252 -68 c 0
 309 -68 337 -105 337 -136 c 0
 337 -179 297 -228 231 -228 c 0xfc
EndSplineSet
EndChar

StartChar: Scedilla
Encoding: 350 350 357
Width: 528
VWidth: 0
Flags: W
HStem: -228 24<219.012 310.411> -103 35<250.126 319.938> -15 33<183.694 264 282 341.205> 642 20G<435.5 450.5> 649 28<209.238 330.36>
VStem: 55 83<456.399 570.215> 61 33<81 188.692> 329 55<-191.372 -109.429> 411 82<92.5011 200.329> 425 32<475.003 578.814 637 661.975>
LayerCount: 3
Fore
SplineSet
278 -228 m 0xed80
 228 -228 195 -204 195 -200 c 0
 195 -197 195 -189 203 -189 c 0
 206 -189 230 -204 263 -204 c 0
 309 -204 329 -187 329 -148 c 0
 329 -123 316 -103 274 -103 c 0
 255 -103 240 -112 237 -112 c 0
 235 -112 229 -109 229 -107 c 0
 229 -105 251 -48 264 -15 c 1
 155 -14 72 21 71 31 c 0
 69 67 61 161 61 175 c 0
 61 183 63 189 73 189 c 2
 78 189 l 2
 90 189 93 185 94 173 c 2xeb80
 100 81 l 2
 102 51 220 18 278 18 c 0
 349 18 411 70 411 139 c 0
 411 318 55 256 55 488 c 0
 55 600 161 677 269 677 c 0xed80
 305 677 348 673 404 635 c 0
 409 631 415 627 420 627 c 0
 424 627 426 629 427 637 c 2
 428 648 l 2
 428 659 428 662 443 662 c 0
 458 662 462 660 462 648 c 0
 462 637 457 542 457 491 c 0
 457 479 454 475 441 475 c 0
 423 475 422 478 422 487 c 0
 422 491 425 542 425 551 c 0xf540
 425 576 345 649 271 649 c 0
 195 649 138 594 138 520 c 0
 138 334 493 411 493 178 c 0
 493 59 389 -10 282 -15 c 1
 263 -65 l 2
 262 -69 260 -74 263 -74 c 0
 265 -74 280 -68 299 -68 c 0
 356 -68 384 -105 384 -136 c 0
 384 -179 344 -228 278 -228 c 0xed80
EndSplineSet
EndChar

StartChar: scedilla
Encoding: 351 351 358
Width: 337
VWidth: 0
Flags: W
HStem: -228 24<116.012 207.411> -103 35<147.126 216.938> -12 23<129.543 162> 372 21<129.007 205.23>
VStem: 38 58<257.663 338.225> 226 55<-191.372 -109.429> 243 59<41.1835 124.789>
LayerCount: 3
Fore
SplineSet
175 -228 m 0xfc
 125 -228 92 -204 92 -200 c 0
 92 -197 92 -189 100 -189 c 0
 103 -189 127 -204 160 -204 c 0
 206 -204 226 -187 226 -148 c 0xfc
 226 -123 213 -103 171 -103 c 0
 152 -103 137 -112 134 -112 c 0
 132 -112 126 -109 126 -107 c 0
 126 -105 149 -44 162 -12 c 1
 161 -12 l 0
 100 -12 35 19 35 50 c 0
 35 66 57 88 65 88 c 0
 71 88 72 75 84 61 c 0
 104 37 129 11 177 11 c 0
 211 11 243 31 243 76 c 0
 243 123 201 145 154 165 c 0
 99 189 38 209 38 280 c 0
 38 347 111 393 182 393 c 0
 258 393 286 349 286 326 c 0
 286 315 257 307 246 307 c 0
 223 307 234 372 169 372 c 0
 136 372 96 354 96 302 c 0
 96 259 136 242 178 222 c 0
 236 194 302 165 302 106 c 0xfa
 302 39 246 -4 180 -11 c 1
 160 -65 l 2
 159 -69 157 -74 160 -74 c 0
 162 -74 177 -68 196 -68 c 0
 253 -68 281 -105 281 -136 c 0
 281 -179 241 -228 175 -228 c 0xfc
EndSplineSet
EndChar

StartChar: uni0162
Encoding: 354 354 359
Width: 690
VWidth: 0
Flags: W
HStem: -228 24<291.012 382.411> -103 35<322.126 391.938> -3 30<214.014 297.069 393.327 479.991> 635 28<66.4627 305.578 403.881 637.959> 666 20G<45.5 57 649 660>
VStem: 20 46<664.358 685.1> 20 33<535.027 622> 308 85<300.101 635> 401 55<-191.372 -109.429> 638 28<535.027 631.338 666.781 685.986>
LayerCount: 3
Fore
SplineSet
350 -228 m 0xfdc0
 300 -228 267 -204 267 -200 c 0
 267 -197 267 -189 275 -189 c 0
 278 -189 302 -204 335 -204 c 0
 381 -204 401 -187 401 -148 c 0
 401 -123 388 -103 346 -103 c 0
 327 -103 312 -112 309 -112 c 0
 307 -112 301 -109 301 -107 c 0
 301 -105 332 -25 342 0 c 1
 309 0 249 -3 228 -3 c 0
 215 -3 214 -2 214 15 c 0
 214 27 216 27 232 27 c 2
 294 27 l 2
 304 27 308 436 308 545 c 0
 308 594 307 635 301 635 c 2
 157 635 l 2
 105 635 61 633 60 622 c 2
 53 552 l 2
 52 539 49 535 40 535 c 0
 30 535 20 535 20 544 c 0
 20 546 33 622 37 672 c 0
 38 685 38 686 53 686 c 0xfbc0
 61 686 66 686 66 680 c 2
 66 669 l 2
 66 663 121 663 174 663 c 2
 531 663 l 2
 589 663 639 664 640 674 c 0
 641 684 645 686 653 686 c 0
 667 686 670 685 670 675 c 0
 670 656 666 623 666 545 c 0
 666 537 664 535 650 535 c 0
 638 535 635 539 635 549 c 0
 635 554 638 621 638 627 c 0
 638 633 582 635 525 635 c 2
 409 635 l 2
 399 635 400 534 399 477 c 0
 399 474 393 217 393 92 c 0
 393 53 393 27 395 27 c 2
 469 27 l 2
 480 27 480 26 480 14 c 0
 480 -1 479 -3 469 -3 c 0
 448 -3 392 0 359 0 c 1
 335 -65 l 2
 334 -69 332 -74 335 -74 c 0
 337 -74 352 -68 371 -68 c 0
 428 -68 456 -105 456 -136 c 0
 456 -179 416 -228 350 -228 c 0xfdc0
EndSplineSet
EndChar

StartChar: exclamdown
Encoding: 161 161 362
Width: 261
VWidth: 0
Flags: W
HStem: -8 21G<111.5 136> 568 105<94.2765 165>
VStem: 80 101<583.127 657.406> 92 72<-6.591 249.692> 118 27<296.023 492.991>
LayerCount: 3
Fore
SplineSet
145 483 m 0xc8
 151 260 164 71 164 17 c 0
 164 -3 149 -8 123 -8 c 0
 100 -8 92 -5 92 13 c 0xd0
 92 25 106 219 118 483 c 0
 118 490 125 493 132 493 c 24
 138 493 145 490 145 483 c 0xc8
181 627 m 0xe0
 181 606 153 568 137 568 c 0
 119 568 80 590 80 615 c 0
 80 646 112 673 122 673 c 0
 150 673 181 642 181 627 c 0xe0
EndSplineSet
EndChar

StartChar: questiondown
Encoding: 191 191 363
Width: 364
VWidth: 0
Flags: W
HStem: -8 21G<289 298.5> 343 71<87.0551 191.294> 562 105<181.277 252>
VStem: 30 23<198.634 306.707> 167 101<577.127 651.406>
LayerCount: 3
Fore
SplineSet
225 361 m 0
 224 344 215 343 197 343 c 2
 140 343 l 2
 59 343 53 288 53 255 c 0
 53 163 125 89 281 69 c 0
 295 67 304 68 304 54 c 2
 304 9 l 2
 304 2 302 -8 295 -8 c 0
 283 -8 286 15 276 17 c 0
 203 29 30 56 30 240 c 0
 30 331 53 413 165 414 c 0
 187 414 190 421 191 431 c 0
 193 463 197 489 199 521 c 0
 199 527 204 530 211 530 c 0
 225 530 227 525 227 508 c 0
 227 495 226 375 225 361 c 0
268 621 m 0
 268 600 240 562 224 562 c 0
 206 562 167 584 167 609 c 0
 167 640 199 667 209 667 c 0
 237 667 268 636 268 621 c 0
EndSplineSet
EndChar

StartChar: germandbls
Encoding: 223 223 364
Width: 482
VWidth: 0
Flags: W
HStem: -10 18<283.646 337.535> -2 27<30.0015 82.8951> 363 20<213.672 258.965> 656 22<202.9 292.642>
VStem: 86 71<25 592.952> 207 53<18.787 103.983> 338 63<455.603 620.361> 378 74<68.6409 257.08>
LayerCount: 3
Fore
SplineSet
207 68 m 0xbd
 207 93 217 101 242 109 c 0
 255 113 259 108 260 101 c 0
 263 66 257 8 315 8 c 0
 359 8 378 86 378 154 c 0xbd
 378 345 277 356 220 363 c 0
 211 364 211 383 220 383 c 0
 273 385 338 428 338 542 c 0
 338 602 323 656 241 656 c 0
 159 656 157 553 157 492 c 2
 157 17 l 2
 157 2 156 -1 149 -1 c 0
 144 -1 130 0 121 0 c 0
 96 0 73 -2 43 -2 c 0
 30 -2 30 1 30 12 c 0
 30 21 32 25 42 25 c 2
 80 25 l 2
 85 25 86 108 86 203 c 0
 86 320 84 457 84 481 c 0
 84 585 131 678 256 678 c 0
 347 678 401 626 401 539 c 0x7e
 401 442 331 396 290 380 c 0
 275 374 266 374 266 373 c 0
 266 372 272 372 286 368 c 0
 334 354 452 307 452 164 c 0
 452 71 399 -10 313 -10 c 0
 253 -10 207 19 207 68 c 0xbd
EndSplineSet
EndChar

StartChar: Thorn
Encoding: 222 222 365
Width: 591
VWidth: 0
Flags: W
HStem: 0 27<30.0062 119.342 216.898 302.999> 147 22<212.034 332.92> 498 23<211.219 331.107> 639 27<34.0523 120.516 216.771 302.994>
VStem: 126 85<172.514 497.897 521.147 639> 460 86<253.879 415.372>
LayerCount: 3
Fore
SplineSet
116 639 m 2
 54 639 l 2
 42 639 34 639 34 654 c 0
 34 669 41 669 54 669 c 0
 70 669 144 666 174 666 c 0
 204 666 266 669 289 669 c 0
 302 669 303 668 303 651 c 0
 303 639 301 639 285 639 c 2
 222 639 l 2
 215 639 212 587 211 537 c 0
 211 520 211 520 228 521 c 0
 259 522 293 524 306 524 c 0
 442 524 546 463 546 328 c 0
 546 200 448 147 307 147 c 0
 275 147 254 149 230 150 c 0
 216 150 212 152 212 137 c 0
 213 74 216 27 221 27 c 2
 292 27 l 2
 303 27 303 26 303 14 c 0
 303 -1 302 -3 292 -3 c 0
 269 -3 202 0 172 0 c 0
 142 0 67 -3 44 -3 c 0
 31 -3 30 -2 30 15 c 0
 30 27 32 27 48 27 c 2
 116 27 l 2
 125 27 126 255 126 394 c 2
 126 492 l 2
 126 564 123 639 116 639 c 2
460 343 m 0
 460 440 368 498 249 498 c 0
 238 498 225 498 214 497 c 0
 211 497 211 486 211 470 c 2
 211 188 l 2
 211 179 213 173 225 171 c 0
 232 169 241 169 249 169 c 0
 363 169 460 214 460 343 c 0
EndSplineSet
EndChar

StartChar: thorn
Encoding: 254 254 366
Width: 498
VWidth: 0
Flags: W
HStem: -279 25<27.006 95.6536 168.637 255.997> -9 19<202.549 296.938> 348 35<218.588 321.972> 642 27<21.2721 75.741> 646 32<22.3926 86.6567>
VStem: 87 75<395.583 645.998> 96 68<-254 2.78003 27.3368 328.445 332.002 343.017> 391 72<104.791 280.881>
LayerCount: 3
Fore
SplineSet
261 348 m 0xe3
 233 348 212 342 197 335 c 0
 165 319 164 306 164 302 c 2
 164 52 l 2
 164 28 220 10 251 10 c 0
 345 10 391 107 391 187 c 0
 391 285 335 348 261 348 c 0xe3
96 110 m 2
 96 159 95 538 87 627 c 0
 85 644 86 646 76 646 c 0xed
 71 646 32 642 28 642 c 0
 21 642 20 642 20 645 c 0
 20 648 21 654 22 661 c 0
 24 669 23 668 32 669 c 0xf5
 72 672 149 678 155 678 c 0
 162 678 162 675 162 663 c 0xed
 163 533 163 365 163 342 c 0
 163 335 163 332 165 332 c 0
 168 332 175 339 184 346 c 0
 207 363 250 383 292 383 c 0
 407 383 463 300 463 194 c 0
 463 93 385 -9 254 -9 c 0
 233 -9 207 -4 188 2 c 0
 175 6 164 13 164 2 c 2
 167 -187 l 2
 168 -225 167 -254 173 -254 c 2
 243 -254 l 2
 255 -254 256 -258 256 -267 c 0
 256 -276 256 -281 243 -281 c 0
 224 -281 166 -279 137 -279 c 0
 112 -279 70 -281 40 -281 c 0
 27 -281 27 -278 27 -267 c 0
 27 -258 29 -254 39 -254 c 2
 94 -254 l 2
 97 -254 97 -173 97 -94 c 2
 96 110 l 2
EndSplineSet
EndChar

StartChar: Eth
Encoding: 208 208 367
Width: 758
VWidth: 0
Flags: W
HStem: -4 29<35.0029 120.057 213.419 406.435> 331 24<40.7371 128.999 213.001 434.707> 639 28<46.0032 126.409> 641 25<59.2072 130.072 218.219 309.77> 652 26<221.888 391.899>
VStem: 129 84<75.3182 331 355 640.133> 612 101<210.397 454.961>
LayerCount: 3
Fore
SplineSet
215 26 m 0xce
 221 22 252 22 272 22 c 0
 608 22 612 261 612 348 c 0
 612 490 496 652 311 652 c 0
 285 652 244 652 221 646 c 0
 217 645 214 545 214 500 c 0
 214 455 213 410 213 365 c 0
 213 355 214 355 224 355 c 2
 432 355 l 2
 436 355 436 331 432 331 c 2
 220 331 l 2
 215 331 213 330 213 323 c 0
 213 244 213 165 213 86 c 0
 213 54 213 27 215 26 c 0xce
332 678 m 0
 548 678 713 549 713 335 c 0
 713 116 547 -2 368 -4 c 0
 303 -4 238 0 173 0 c 0
 145 0 57 -4 46 -4 c 0
 35 -4 35 -2 35 10 c 0
 35 25 39 25 52 25 c 2
 118 25 l 2
 122 25 126 172 129 323 c 0
 129 330 127 331 122 331 c 2
 43 331 l 2
 40 331 39 355 43 355 c 2
 119 355 l 2
 129 355 129 355 129 365 c 0
 130 439 131 511 131 563 c 0
 131 610 130 641 129 641 c 2xd6
 59 639 l 2
 50 639 46 639 46 651 c 0
 46 663 46 667 59 667 c 0xe6
 63 667 94 666 128 666 c 0xd6
 202 666 292 678 332 678 c 0
EndSplineSet
EndChar

StartChar: dcroat
Encoding: 273 273 369
Width: 499
VWidth: 0
Flags: W
HStem: -23 21G<344 461> -13 37<176.095 286.487 438 473.944> 359 20<196.033 290.985> 493 24<177.737 338.998 407.071 473.999> 643 37<299.753 404.5>
VStem: 30 73<93.3406 271.722> 342 64<15.027 23.0682 38.6484 332.455 353.007 493 517 642.961>
LayerCount: 3
Fore
SplineSet
342 57 m 2x7e
 342 307 l 2
 342 320 297 359 245 359 c 0
 157 359 103 277 103 188 c 0
 103 95 147 24 255 24 c 0
 281 24 342 39 342 57 c 2x7e
30 181 m 0
 30 294 118 379 233 379 c 0
 293 379 334 353 336 353 c 0
 342 353 342 363 342 371 c 0
 342 405 341 447 340 487 c 0
 340 492 338 493 331 493 c 2
 180 493 l 2
 177 493 176 517 180 517 c 2
 332 517 l 2
 339 517 339 518 339 526 c 0
 337 590 334 643 332 643 c 0
 329 643 272 634 265 634 c 0
 259 634 259 635 261 649 c 0
 262 656 263 661 269 662 c 0
 326 669 395 680 400 680 c 0
 409 680 410 678 410 657 c 0
 410 640 408 600 407 526 c 0
 407 519 407 517 413 517 c 2
 471 517 l 2
 473 517 474 511 474 505 c 0
 474 499 473 493 471 493 c 2
 413 493 l 2
 407 493 406 493 406 487 c 0
 405 414 404 315 404 184 c 0
 404 152 405 100 406 64 c 0
 407 24 413 15 429 15 c 0
 437 15 448 17 463 19 c 0
 471 20 474 21 474 11 c 0
 474 -3 474 -6 461 -8 c 2
 346 -23 l 2xbe
 342 -23 340 -19 340 -14 c 0
 340 -12 341 18 341 22 c 0
 341 32 340 35 326 26 c 0
 292 5 249 -13 206 -13 c 0
 117 -13 30 37 30 181 c 0
EndSplineSet
EndChar

StartChar: CROSSBAR.DONT_KEEP
Encoding: 65572 -1 370
Width: 494
VWidth: 0
Flags: W
HStem: 531 24<102.737 398.707>
VStem: 105 291
LayerCount: 3
Fore
SplineSet
105 555 m 6
 396 555 l 6
 400 555 400 531 396 531 c 6
 105 531 l 6
 102 531 101 555 105 555 c 6
EndSplineSet
EndChar

StartChar: hbar
Encoding: 295 295 371
Width: 503
VWidth: 0
Flags: W
HStem: -2 27<27.0015 87.9869 160.264 221.999 294.002 357.094 427 477.997> 344 41<213.011 318.27> 488 24<12.7371 84.9505 161 313.707> 655 20G<158 164>
VStem: 81 85<523.778 635.997> 85 76<25 327.245 351.6 488 512 635.076> 359 68<25 300.413>
LayerCount: 3
Fore
SplineSet
88 43 m 0xf6
 89 137 89 191 89 263 c 0
 89 329 88 409 86 480 c 0
 86 487 86 488 79 488 c 2
 15 488 l 2
 12 488 11 512 15 512 c 2
 79 512 l 2
 85 512 85 515 85 522 c 0xf6
 84 560 82 594 81 619 c 0xfa
 80 632 81 636 75 636 c 0
 72 636 18 629 14 629 c 0
 10 629 10 635 10 640 c 0
 10 648 11 656 15 657 c 0
 61 663 155 675 161 675 c 0xf6
 167 675 166 665 166 655 c 0xfa
 164 618 162 571 161 522 c 0
 161 514 161 512 168 512 c 2
 311 512 l 2
 315 512 315 488 311 488 c 2
 168 488 l 2
 160 488 160 488 160 480 c 0
 159 435 158 355 158 354 c 0
 158 337 159 339 169 345 c 0
 200 362 260 385 302 385 c 0
 414 385 427 288 427 180 c 2
 427 37 l 2
 427 26 428 25 438 25 c 2
 464 25 l 2
 476 25 478 21 478 12 c 0
 478 3 477 -2 464 -2 c 0
 445 -2 422 0 393 0 c 0
 368 0 337 -2 307 -2 c 0
 294 -2 294 1 294 12 c 0
 294 21 297 25 307 25 c 2
 346 25 l 2
 356 25 356 25 357 36 c 0
 358 56 359 106 359 212 c 0
 359 284 331 344 263 344 c 0
 223 344 194 333 174 323 c 0
 160 316 158 312 158 308 c 2
 159 158 l 2
 159 117 159 69 160 43 c 0
 161 25 161 25 171 25 c 2
 209 25 l 2
 221 25 222 21 222 12 c 0
 222 3 222 -2 209 -2 c 0
 190 -2 155 0 126 0 c 0
 101 0 70 -2 40 -2 c 0
 27 -2 27 1 27 12 c 0
 27 21 29 25 39 25 c 2
 78 25 l 2
 88 25 88 28 88 43 c 0xf6
EndSplineSet
EndChar

StartChar: Hbar
Encoding: 294 294 372
Width: 791
VWidth: 0
Flags: W
HStem: -3 30<40.0144 117.874 211.954 291.991 521.014 597.194 683.736 750.991> 331 24<205.093 599.993> 488 24<50.7371 121.999 205.072 599.998 681.001 751.999> 639 30<53.0058 118.63 206.718 282.986 518.002 594.777 682.051 746.986>
VStem: 122 82<67.1794 331 355 488 512 639> 600 81<154.605 331 355 488 512 639>
LayerCount: 3
Fore
SplineSet
116 639 m 2
 73 639 l 2
 61 639 53 639 53 654 c 0
 53 669 60 669 73 669 c 0
 89 669 133 666 163 666 c 0
 193 666 246 669 269 669 c 0
 282 669 283 668 283 651 c 0
 283 639 281 639 265 639 c 2
 211 639 l 2
 205 639 204 584 204 522 c 0
 204 513 204 512 213 512 c 2
 588 512 l 2
 600 512 600 513 600 525 c 0
 599 585 596 639 590 639 c 2
 533 639 l 2
 521 639 518 639 518 654 c 0
 518 669 520 669 533 669 c 0
 549 669 608 666 638 666 c 0
 668 666 723 669 733 669 c 0
 746 669 747 668 747 651 c 0
 747 639 745 639 729 639 c 2
 683 639 l 2
 682 639 681 592 681 525 c 0
 681 514 681 512 691 512 c 2
 749 512 l 2
 751 512 752 506 752 500 c 0
 752 494 751 488 749 488 c 2
 691 488 l 2
 682 488 681 486 681 480 c 2
 681 397 l 2
 681 226 682 27 685 27 c 2
 740 27 l 2
 751 27 751 26 751 14 c 0
 751 -1 750 -3 740 -3 c 0
 717 -3 676 0 646 0 c 0
 616 0 558 -3 535 -3 c 0
 522 -3 521 -2 521 15 c 0
 521 27 523 27 539 27 c 2
 594 27 l 2
 599 27 600 102 600 192 c 2
 600 316 l 2
 600 330 600 331 591 331 c 2
 217 331 l 2
 206 331 205 330 205 314 c 0
 205 183 207 27 216 27 c 2
 281 27 l 2
 292 27 292 26 292 14 c 0
 292 -1 291 -3 281 -3 c 0
 258 -3 201 0 171 0 c 0
 141 0 77 -3 54 -3 c 0
 41 -3 40 -2 40 15 c 0
 40 27 42 27 58 27 c 2
 115 27 l 2
 121 27 122 171 122 285 c 2
 122 482 l 2
 122 488 120 488 113 488 c 2
 53 488 l 2
 50 488 49 512 53 512 c 2
 113 512 l 2
 121 512 122 513 122 522 c 0
 121 589 119 639 116 639 c 2
588 488 m 2
 209 488 l 2
 205 488 204 487 204 482 c 0
 204 440 205 399 205 373 c 0
 205 356 206 355 220 355 c 2
 585 355 l 2
 600 355 600 356 600 370 c 2
 600 480 l 2
 600 488 597 488 588 488 c 2
EndSplineSet
EndChar

StartChar: tbar
Encoding: 359 359 373
Width: 289
VWidth: 0
Flags: W
HStem: -9 47<119.322 226.078> 191 24<35.7371 76.9685 142 254.707> 338 34<142.244 256.01>
VStem: 76 66<43.9774 191 215 336.954>
LayerCount: 3
Fore
SplineSet
274 38 m 0
 274 33 189 -9 148 -9 c 0
 91 -9 76 30 76 60 c 0
 76 96 77 143 77 184 c 0
 77 190 75 191 67 191 c 2
 38 191 l 2
 35 191 34 215 38 215 c 2
 67 215 l 2
 77 215 78 215 78 224 c 2
 78 276 l 2
 78 313 77 337 66 337 c 2
 41 337 l 2
 37 337 35 340 35 344 c 0
 35 347 36 350 38 352 c 2
 129 479 l 2
 131 482 134 484 138 484 c 0
 143 484 148 481 148 474 c 0
 148 471 142 398 142 382 c 0
 142 373 144 372 153 372 c 2
 248 372 l 2
 260 372 261 372 257 354 c 0
 254 341 251 338 244 338 c 2
 145 338 l 2
 142 338 142 320 142 292 c 2
 142 224 l 2
 142 215 142 215 151 215 c 2
 252 215 l 2
 256 215 256 191 252 191 c 2
 151 191 l 2
 143 191 142 190 142 184 c 2
 142 100 l 2
 142 69 144 38 190 38 c 0
 229 38 262 54 270 54 c 0
 273 54 274 45 274 38 c 0
EndSplineSet
EndChar

StartChar: Tbar
Encoding: 358 358 374
Width: 690
VWidth: 0
Flags: W
HStem: 0 27<214.006 296.917 393.386 479.999> 331 24<140.737 305.929 397.06 564.707> 635 28<66.4627 305.578 403.881 637.959> 666 20G<45.5 57 649 660>
VStem: 20 46<664.358 685.1> 20 33<535.027 622> 306 87<69.9032 331 355 635> 638 28<535.027 631.338 666.781 685.986>
LayerCount: 3
Fore
SplineSet
666 545 m 0xfb
 666 537 664 535 650 535 c 0
 638 535 635 539 635 549 c 0
 635 554 638 621 638 627 c 0
 638 633 582 635 525 635 c 2
 409 635 l 2
 399 635 400 534 399 477 c 0
 399 476 398 428 397 364 c 0
 397 355 397 355 406 355 c 2
 562 355 l 2
 566 355 566 331 562 331 c 2
 406 331 l 2
 397 331 396 330 396 320 c 0
 395 242 393 152 393 92 c 0
 393 53 393 27 395 27 c 2
 469 27 l 2
 480 27 480 26 480 14 c 0
 480 -1 479 -3 469 -3 c 0
 446 -3 379 0 349 0 c 0
 319 0 251 -3 228 -3 c 0
 215 -3 214 -2 214 15 c 0
 214 27 216 27 232 27 c 2
 294 27 l 2
 300 27 304 177 306 320 c 0
 306 330 305 331 296 331 c 2
 143 331 l 2
 140 331 139 355 143 355 c 2
 300 355 l 2
 306 355 307 356 307 364 c 0
 308 440 308 509 308 545 c 0
 308 594 307 635 301 635 c 2
 157 635 l 2
 105 635 61 633 60 622 c 2
 53 552 l 2
 52 539 49 535 40 535 c 0
 30 535 20 535 20 544 c 0
 20 546 33 622 37 672 c 0
 38 685 38 686 53 686 c 0xf7
 61 686 66 686 66 680 c 2
 66 669 l 2
 66 663 121 663 174 663 c 2
 531 663 l 2
 589 663 639 664 640 674 c 0
 641 684 645 686 653 686 c 0
 667 686 670 685 670 675 c 0
 670 656 666 623 666 545 c 0xfb
EndSplineSet
EndChar

StartChar: oslash
Encoding: 248 248 375
Width: 446
VWidth: 0
Flags: W
HStem: -15 26<170.316 269.596> 370 26<170.398 272.253>
VStem: 30 71<89.4481 280.533> 343 73<92.5947 295.177>
LayerCount: 3
Fore
SplineSet
223 370 m 0
 129 370 101 279 101 169 c 0
 101 135 110 99 126 70 c 0
 129 63 130 65 134 72 c 2
 288 339 l 2
 291 344 290 346 284 350 c 0
 267 362 247 370 223 370 c 0
123 5 m 2
 85 -61 l 2
 84 -62 83 -63 82 -63 c 0
 76 -63 64 -54 64 -51 c 0
 64 -50 65 -48 65 -48 c 1
 103 18 l 2
 106 23 104 25 99 29 c 0
 56 65 30 121 30 183 c 0
 30 301 112 396 235 396 c 0
 259 396 282 391 302 383 c 0
 311 380 310 379 315 387 c 2
 353 452 l 1
 353 452 354 454 357 454 c 0
 363 454 377 445 375 442 c 2
 336 375 l 2
 333 370 331 369 336 365 c 0
 386 330 416 268 416 197 c 0
 416 74 343 -15 219 -15 c 0
 187 -15 157 -7 131 7 c 0
 126 10 126 10 123 5 c 2
305 320 m 2
 149 50 l 2
 147 47 146 45 146 44 c 0
 146 43 147 42 149 40 c 0
 167 22 191 11 219 11 c 0
 319 11 343 114 343 204 c 0
 343 245 333 288 312 320 c 0
 310 322 310 324 309 324 c 0
 308 324 307 322 305 320 c 2
EndSplineSet
EndChar

StartChar: Oslash
Encoding: 216 216 376
Width: 752
VWidth: 0
Flags: W
HStem: -11 28<299.611 448.995> 647 28<307.654 452.61>
VStem: 45 94<199.854 449.172> 615 92<200.495 456.422>
LayerCount: 3
Fore
SplineSet
371 17 m 0
 536 17 615 179 615 333 c 0
 615 425 587 521 529 582 c 1
 238 79 l 2
 235 74 235 73 240 68 c 0
 276 36 320 17 371 17 c 0
555 628 m 1
 651 567 707 454 707 324 c 0
 707 124 567 -11 370 -11 c 0
 318 -11 265 1 218 25 c 0
 211 29 210 29 206 23 c 2
 162 -53 l 2
 161 -54 160 -55 159 -55 c 0
 151 -55 139 -45 140 -43 c 2
 186 36 l 2
 189 41 188 42 182 46 c 0
 102 100 45 192 45 318 c 0
 45 534 201 675 385 675 c 0
 441 675 492 663 535 640 c 1
 582 722 l 1
 582 722 583 723 585 723 c 0
 591 723 605 713 603 710 c 2
 555 628 l 1
221 98 m 2
 511 599 l 1
 475 629 430 647 375 647 c 0
 232 647 139 498 139 345 c 0
 139 247 165 158 212 98 c 0
 215 95 216 93 217 93 c 0
 218 93 219 94 221 98 c 2
EndSplineSet
EndChar

StartChar: lslash
Encoding: 322 322 377
Width: 257
VWidth: 0
Flags: W
HStem: -2 27<30.0015 96.6095 168.744 227.999> 393 20G<223.5 225> 642 27<21.2721 75.741> 646 32<22.3926 86.6567>
VStem: 87 75<389.482 645.998> 96 131<365 433> 96 69<25 299.526 326.721 363.031 391.234 584.195>
LayerCount: 3
Fore
SplineSet
88 334 m 0xd2
 95 338 96 339 96 350 c 0xd2
 94 463 91 582 87 627 c 0
 85 644 86 646 76 646 c 0xd8
 71 646 32 642 28 642 c 0
 21 642 20 642 20 645 c 0
 20 648 21 654 22 661 c 0
 24 669 23 668 32 669 c 0xe8
 72 672 149 678 155 678 c 0
 162 678 162 675 162 663 c 0xd8
 162 546 163 460 164 388 c 0
 164 378 166 380 172 383 c 0
 184 390 223 413 224 413 c 0
 226 413 227 403 227 395 c 0xd4
 227 391 227 387 226 386 c 2
 174 356 l 2
 169 353 165 353 165 344 c 0
 166 249 168 172 168 64 c 0
 168 41 168 25 176 25 c 2
 215 25 l 2
 227 25 228 21 228 12 c 0
 228 3 228 -2 215 -2 c 0
 196 -2 165 0 136 0 c 0
 111 0 73 -2 43 -2 c 0
 30 -2 30 1 30 12 c 0
 30 21 32 25 42 25 c 2
 94 25 l 2
 98 25 98 85 98 110 c 0
 98 131 97 211 96 303 c 0
 96 310 92 309 88 307 c 0
 75 300 32 274 31 274 c 0
 30 274 29 278 29 284 c 0
 29 285 29 300 32 302 c 0
 33 303 46 310 88 334 c 0xd2
EndSplineSet
Layer: 2
SplineSet
168 64 m 4xd2
 168 41 168 25 176 25 c 6
 215 25 l 6
 227 25 228 21 228 12 c 4
 228 3 228 -2 215 -2 c 4
 196 -2 165 0 136 0 c 4
 111 0 73 -2 43 -2 c 4
 30 -2 30 1 30 12 c 4
 30 21 32 25 42 25 c 6
 94 25 l 6
 98 25 98 85 98 110 c 4
 98 131 97 211 96 303 c 4
 96 310 92 309 88 307 c 4
 75 300 32 274 31 274 c 4
 30 274 29 278 29 283 c 4
 29 291 30 301 32 302 c 6
 88 334 l 6
 95 338 96 339 96 350 c 4xd2
 94 463 91 582 87 627 c 4
 85 644 86 646 76 646 c 4
 71 646 32 642 28 642 c 4
 21 642 20 642 20 645 c 4
 20 648 21 654 22 661 c 4
 24 669 23 668 32 669 c 4xe8
 72 672 149 678 155 678 c 4
 162 678 162 675 162 663 c 4xd8
 162 546 163 460 164 388 c 4
 164 378 166 380 172 383 c 4
 184 390 223 413 224 413 c 4
 226 413 227 403 227 395 c 4xd4
 227 391 227 387 226 386 c 6
 174 356 l 6
 169 353 165 353 165 344 c 4
 166 249 168 172 168 64 c 4xd2
EndSplineSet
EndChar

